%TF.GenerationSoftware,KiCad,Pcbnew,7.0.10*%
%TF.CreationDate,2024-01-12T02:52:17-05:00*%
%TF.ProjectId,ESP32,45535033-322e-46b6-9963-61645f706362,2*%
%TF.SameCoordinates,Original*%
%TF.FileFunction,Copper,L1,Top*%
%TF.FilePolarity,Positive*%
%FSLAX46Y46*%
G04 Gerber Fmt 4.6, Leading zero omitted, Abs format (unit mm)*
G04 Created by KiCad (PCBNEW 7.0.10) date 2024-01-12 02:52:17*
%MOMM*%
%LPD*%
G01*
G04 APERTURE LIST*
%TA.AperFunction,ComponentPad*%
%ADD10O,1.700000X1.700000*%
%TD*%
%TA.AperFunction,ComponentPad*%
%ADD11R,1.700000X1.700000*%
%TD*%
%TA.AperFunction,ComponentPad*%
%ADD12C,1.700000*%
%TD*%
%TA.AperFunction,Conductor*%
%ADD13C,0.500000*%
%TD*%
G04 APERTURE END LIST*
D10*
%TO.P,FZ_R,9*%
%TO.N,N/C*%
X152390000Y-101610000D03*
%TO.P,FZ_R,10*%
X154930000Y-101610000D03*
%TO.P,FZ_R,11*%
X157470000Y-101610000D03*
%TO.P,FZ_R,12*%
X160010000Y-101610000D03*
%TO.P,FZ_R,13*%
X162550000Y-101610000D03*
%TO.P,FZ_R,14*%
X165090000Y-101610000D03*
%TO.P,FZ_R,15*%
X167630000Y-101610000D03*
%TO.P,FZ_R,16*%
X170170000Y-101610000D03*
%TO.P,FZ_R,18*%
X172710000Y-101610000D03*
D11*
%TO.P,FZ_R,19*%
X175250000Y-101610000D03*
%TD*%
D12*
%TO.P,Bottom,1*%
%TO.N,N/C*%
X124450000Y-111770000D03*
D10*
%TO.P,Bottom,2*%
X126990000Y-111770000D03*
%TO.P,Bottom,3*%
X129530000Y-111770000D03*
D11*
%TO.P,Bottom,4*%
X132070000Y-111770000D03*
D10*
%TO.P,Bottom,5*%
X134610000Y-111770000D03*
%TO.P,Bottom,6*%
X137150000Y-111770000D03*
%TO.P,Bottom,7*%
X139690000Y-111770000D03*
%TO.P,Bottom,8*%
X142230000Y-111770000D03*
%TO.P,Bottom,9*%
X144770000Y-111770000D03*
%TO.P,Bottom,10*%
X147310000Y-111770000D03*
%TO.P,Bottom,11*%
X149850000Y-111770000D03*
%TO.P,Bottom,12*%
X152390000Y-111770000D03*
%TO.P,Bottom,13*%
X154930000Y-111770000D03*
%TO.P,Bottom,14*%
X157470000Y-111770000D03*
%TO.P,Bottom,15*%
X160010000Y-111770000D03*
%TO.P,Bottom,16*%
X162550000Y-111770000D03*
%TO.P,Bottom,17*%
X165090000Y-111770000D03*
%TO.P,Bottom,18*%
X167630000Y-111770000D03*
%TO.P,Bottom,19*%
X170170000Y-111770000D03*
%TD*%
D12*
%TO.P,Top,1*%
%TO.N,N/C*%
X124460000Y-88885000D03*
D10*
%TO.P,Top,2*%
X127000000Y-88885000D03*
%TO.P,Top,3*%
X129540000Y-88885000D03*
D11*
%TO.P,Top,4*%
X132080000Y-88885000D03*
D10*
%TO.P,Top,5*%
X134620000Y-88885000D03*
%TO.P,Top,6*%
X137160000Y-88885000D03*
%TO.P,Top,7*%
X139700000Y-88885000D03*
%TO.P,Top,8*%
X142240000Y-88885000D03*
%TO.P,Top,9*%
X144780000Y-88885000D03*
%TO.P,Top,10*%
X147320000Y-88885000D03*
%TO.P,Top,11*%
X149860000Y-88885000D03*
%TO.P,Top,12*%
X152400000Y-88885000D03*
%TO.P,Top,13*%
X154940000Y-88885000D03*
%TO.P,Top,14*%
X157480000Y-88885000D03*
%TO.P,Top,15*%
X160020000Y-88885000D03*
%TO.P,Top,16*%
X162560000Y-88885000D03*
%TO.P,Top,17*%
X165100000Y-88885000D03*
%TO.P,Top,18*%
X167640000Y-88885000D03*
%TO.P,Top,19*%
X170180000Y-88885000D03*
%TD*%
D12*
%TO.P,Left,1*%
%TO.N,N/C*%
X116830000Y-101585000D03*
D10*
%TO.P,Left,2*%
X119370000Y-101585000D03*
%TO.P,Left,3*%
X121910000Y-101585000D03*
%TO.P,Left,4*%
X124450000Y-101585000D03*
%TO.P,Left,5*%
X126990000Y-101585000D03*
%TO.P,Left,6*%
X129530000Y-101585000D03*
%TO.P,Left,7*%
X132070000Y-101585000D03*
D11*
%TO.P,Left,8*%
X134610000Y-101585000D03*
%TD*%
D13*
%TO.N,*%
X170170000Y-104130000D02*
X170170000Y-101610000D01*
X170180000Y-104140000D02*
X170170000Y-104130000D01*
X165676189Y-108643811D02*
X170180000Y-104140000D01*
X145421548Y-108643811D02*
X165676189Y-108643811D01*
X144770000Y-111770000D02*
X144770000Y-109295359D01*
X144770000Y-109295359D02*
X145421548Y-108643811D01*
X165100000Y-106680000D02*
X167630000Y-104150000D01*
X144780000Y-106680000D02*
X165100000Y-106680000D01*
X142230000Y-109230000D02*
X144780000Y-106680000D01*
X142230000Y-111770000D02*
X142230000Y-109230000D01*
X167630000Y-104150000D02*
X167630000Y-101610000D01*
%TD*%
%TA.AperFunction,NonConductor*%
G36*
X180282539Y-86380185D02*
G01*
X180328294Y-86432989D01*
X180339500Y-86484500D01*
X180339500Y-114175500D01*
X180319815Y-114242539D01*
X180267011Y-114288294D01*
X180215500Y-114299500D01*
X111884500Y-114299500D01*
X111817461Y-114279815D01*
X111771706Y-114227011D01*
X111760500Y-114175500D01*
X111760500Y-111770000D01*
X123094341Y-111770000D01*
X123114936Y-112005403D01*
X123114938Y-112005413D01*
X123176094Y-112233655D01*
X123176096Y-112233659D01*
X123176097Y-112233663D01*
X123180000Y-112242032D01*
X123275965Y-112447830D01*
X123275967Y-112447834D01*
X123384281Y-112602521D01*
X123411505Y-112641401D01*
X123578599Y-112808495D01*
X123675384Y-112876265D01*
X123772165Y-112944032D01*
X123772167Y-112944033D01*
X123772170Y-112944035D01*
X123986337Y-113043903D01*
X124214592Y-113105063D01*
X124391034Y-113120500D01*
X124449999Y-113125659D01*
X124450000Y-113125659D01*
X124450001Y-113125659D01*
X124508966Y-113120500D01*
X124685408Y-113105063D01*
X124913663Y-113043903D01*
X125127830Y-112944035D01*
X125321401Y-112808495D01*
X125488495Y-112641401D01*
X125618425Y-112455842D01*
X125673002Y-112412217D01*
X125742500Y-112405023D01*
X125804855Y-112436546D01*
X125821575Y-112455842D01*
X125951500Y-112641395D01*
X125951505Y-112641401D01*
X126118599Y-112808495D01*
X126215384Y-112876265D01*
X126312165Y-112944032D01*
X126312167Y-112944033D01*
X126312170Y-112944035D01*
X126526337Y-113043903D01*
X126754592Y-113105063D01*
X126931034Y-113120500D01*
X126989999Y-113125659D01*
X126990000Y-113125659D01*
X126990001Y-113125659D01*
X127048966Y-113120500D01*
X127225408Y-113105063D01*
X127453663Y-113043903D01*
X127667830Y-112944035D01*
X127861401Y-112808495D01*
X128028495Y-112641401D01*
X128158425Y-112455842D01*
X128213002Y-112412217D01*
X128282500Y-112405023D01*
X128344855Y-112436546D01*
X128361575Y-112455842D01*
X128491500Y-112641395D01*
X128491505Y-112641401D01*
X128658599Y-112808495D01*
X128755384Y-112876265D01*
X128852165Y-112944032D01*
X128852167Y-112944033D01*
X128852170Y-112944035D01*
X129066337Y-113043903D01*
X129294592Y-113105063D01*
X129471034Y-113120500D01*
X129529999Y-113125659D01*
X129530000Y-113125659D01*
X129530001Y-113125659D01*
X129588966Y-113120500D01*
X129765408Y-113105063D01*
X129993663Y-113043903D01*
X130207830Y-112944035D01*
X130401401Y-112808495D01*
X130523329Y-112686566D01*
X130584648Y-112653084D01*
X130654340Y-112658068D01*
X130710274Y-112699939D01*
X130727189Y-112730917D01*
X130776202Y-112862328D01*
X130776206Y-112862335D01*
X130862452Y-112977544D01*
X130862455Y-112977547D01*
X130977664Y-113063793D01*
X130977671Y-113063797D01*
X131112517Y-113114091D01*
X131112516Y-113114091D01*
X131119444Y-113114835D01*
X131172127Y-113120500D01*
X132967872Y-113120499D01*
X133027483Y-113114091D01*
X133162331Y-113063796D01*
X133277546Y-112977546D01*
X133363796Y-112862331D01*
X133412810Y-112730916D01*
X133454681Y-112674984D01*
X133520145Y-112650566D01*
X133588418Y-112665417D01*
X133616673Y-112686569D01*
X133738599Y-112808495D01*
X133835384Y-112876265D01*
X133932165Y-112944032D01*
X133932167Y-112944033D01*
X133932170Y-112944035D01*
X134146337Y-113043903D01*
X134374592Y-113105063D01*
X134551034Y-113120500D01*
X134609999Y-113125659D01*
X134610000Y-113125659D01*
X134610001Y-113125659D01*
X134668966Y-113120500D01*
X134845408Y-113105063D01*
X135073663Y-113043903D01*
X135287830Y-112944035D01*
X135481401Y-112808495D01*
X135648495Y-112641401D01*
X135778425Y-112455842D01*
X135833002Y-112412217D01*
X135902500Y-112405023D01*
X135964855Y-112436546D01*
X135981575Y-112455842D01*
X136111500Y-112641395D01*
X136111505Y-112641401D01*
X136278599Y-112808495D01*
X136375384Y-112876265D01*
X136472165Y-112944032D01*
X136472167Y-112944033D01*
X136472170Y-112944035D01*
X136686337Y-113043903D01*
X136914592Y-113105063D01*
X137091034Y-113120500D01*
X137149999Y-113125659D01*
X137150000Y-113125659D01*
X137150001Y-113125659D01*
X137208966Y-113120500D01*
X137385408Y-113105063D01*
X137613663Y-113043903D01*
X137827830Y-112944035D01*
X138021401Y-112808495D01*
X138188495Y-112641401D01*
X138318425Y-112455842D01*
X138373002Y-112412217D01*
X138442500Y-112405023D01*
X138504855Y-112436546D01*
X138521575Y-112455842D01*
X138651500Y-112641395D01*
X138651505Y-112641401D01*
X138818599Y-112808495D01*
X138915384Y-112876265D01*
X139012165Y-112944032D01*
X139012167Y-112944033D01*
X139012170Y-112944035D01*
X139226337Y-113043903D01*
X139454592Y-113105063D01*
X139631034Y-113120500D01*
X139689999Y-113125659D01*
X139690000Y-113125659D01*
X139690001Y-113125659D01*
X139748966Y-113120500D01*
X139925408Y-113105063D01*
X140153663Y-113043903D01*
X140367830Y-112944035D01*
X140561401Y-112808495D01*
X140728495Y-112641401D01*
X140858425Y-112455842D01*
X140913002Y-112412217D01*
X140982500Y-112405023D01*
X141044855Y-112436546D01*
X141061575Y-112455842D01*
X141191500Y-112641395D01*
X141191505Y-112641401D01*
X141358599Y-112808495D01*
X141455384Y-112876265D01*
X141552165Y-112944032D01*
X141552167Y-112944033D01*
X141552170Y-112944035D01*
X141766337Y-113043903D01*
X141994592Y-113105063D01*
X142171034Y-113120500D01*
X142229999Y-113125659D01*
X142230000Y-113125659D01*
X142230001Y-113125659D01*
X142288966Y-113120500D01*
X142465408Y-113105063D01*
X142693663Y-113043903D01*
X142907830Y-112944035D01*
X143101401Y-112808495D01*
X143268495Y-112641401D01*
X143398425Y-112455842D01*
X143453002Y-112412217D01*
X143522500Y-112405023D01*
X143584855Y-112436546D01*
X143601575Y-112455842D01*
X143731500Y-112641395D01*
X143731505Y-112641401D01*
X143898599Y-112808495D01*
X143995384Y-112876265D01*
X144092165Y-112944032D01*
X144092167Y-112944033D01*
X144092170Y-112944035D01*
X144306337Y-113043903D01*
X144534592Y-113105063D01*
X144711034Y-113120500D01*
X144769999Y-113125659D01*
X144770000Y-113125659D01*
X144770001Y-113125659D01*
X144828966Y-113120500D01*
X145005408Y-113105063D01*
X145233663Y-113043903D01*
X145447830Y-112944035D01*
X145641401Y-112808495D01*
X145808495Y-112641401D01*
X145938425Y-112455842D01*
X145993002Y-112412217D01*
X146062500Y-112405023D01*
X146124855Y-112436546D01*
X146141575Y-112455842D01*
X146271500Y-112641395D01*
X146271505Y-112641401D01*
X146438599Y-112808495D01*
X146535384Y-112876265D01*
X146632165Y-112944032D01*
X146632167Y-112944033D01*
X146632170Y-112944035D01*
X146846337Y-113043903D01*
X147074592Y-113105063D01*
X147251034Y-113120500D01*
X147309999Y-113125659D01*
X147310000Y-113125659D01*
X147310001Y-113125659D01*
X147368966Y-113120500D01*
X147545408Y-113105063D01*
X147773663Y-113043903D01*
X147987830Y-112944035D01*
X148181401Y-112808495D01*
X148348495Y-112641401D01*
X148478425Y-112455842D01*
X148533002Y-112412217D01*
X148602500Y-112405023D01*
X148664855Y-112436546D01*
X148681575Y-112455842D01*
X148811500Y-112641395D01*
X148811505Y-112641401D01*
X148978599Y-112808495D01*
X149075384Y-112876265D01*
X149172165Y-112944032D01*
X149172167Y-112944033D01*
X149172170Y-112944035D01*
X149386337Y-113043903D01*
X149614592Y-113105063D01*
X149791034Y-113120500D01*
X149849999Y-113125659D01*
X149850000Y-113125659D01*
X149850001Y-113125659D01*
X149908966Y-113120500D01*
X150085408Y-113105063D01*
X150313663Y-113043903D01*
X150527830Y-112944035D01*
X150721401Y-112808495D01*
X150888495Y-112641401D01*
X151018425Y-112455842D01*
X151073002Y-112412217D01*
X151142500Y-112405023D01*
X151204855Y-112436546D01*
X151221575Y-112455842D01*
X151351500Y-112641395D01*
X151351505Y-112641401D01*
X151518599Y-112808495D01*
X151615384Y-112876265D01*
X151712165Y-112944032D01*
X151712167Y-112944033D01*
X151712170Y-112944035D01*
X151926337Y-113043903D01*
X152154592Y-113105063D01*
X152331034Y-113120500D01*
X152389999Y-113125659D01*
X152390000Y-113125659D01*
X152390001Y-113125659D01*
X152448966Y-113120500D01*
X152625408Y-113105063D01*
X152853663Y-113043903D01*
X153067830Y-112944035D01*
X153261401Y-112808495D01*
X153428495Y-112641401D01*
X153558425Y-112455842D01*
X153613002Y-112412217D01*
X153682500Y-112405023D01*
X153744855Y-112436546D01*
X153761575Y-112455842D01*
X153891500Y-112641395D01*
X153891505Y-112641401D01*
X154058599Y-112808495D01*
X154155384Y-112876265D01*
X154252165Y-112944032D01*
X154252167Y-112944033D01*
X154252170Y-112944035D01*
X154466337Y-113043903D01*
X154694592Y-113105063D01*
X154871034Y-113120500D01*
X154929999Y-113125659D01*
X154930000Y-113125659D01*
X154930001Y-113125659D01*
X154988966Y-113120500D01*
X155165408Y-113105063D01*
X155393663Y-113043903D01*
X155607830Y-112944035D01*
X155801401Y-112808495D01*
X155968495Y-112641401D01*
X156098425Y-112455842D01*
X156153002Y-112412217D01*
X156222500Y-112405023D01*
X156284855Y-112436546D01*
X156301575Y-112455842D01*
X156431500Y-112641395D01*
X156431505Y-112641401D01*
X156598599Y-112808495D01*
X156695384Y-112876265D01*
X156792165Y-112944032D01*
X156792167Y-112944033D01*
X156792170Y-112944035D01*
X157006337Y-113043903D01*
X157234592Y-113105063D01*
X157411034Y-113120500D01*
X157469999Y-113125659D01*
X157470000Y-113125659D01*
X157470001Y-113125659D01*
X157528966Y-113120500D01*
X157705408Y-113105063D01*
X157933663Y-113043903D01*
X158147830Y-112944035D01*
X158341401Y-112808495D01*
X158508495Y-112641401D01*
X158638425Y-112455842D01*
X158693002Y-112412217D01*
X158762500Y-112405023D01*
X158824855Y-112436546D01*
X158841575Y-112455842D01*
X158971500Y-112641395D01*
X158971505Y-112641401D01*
X159138599Y-112808495D01*
X159235384Y-112876265D01*
X159332165Y-112944032D01*
X159332167Y-112944033D01*
X159332170Y-112944035D01*
X159546337Y-113043903D01*
X159774592Y-113105063D01*
X159951034Y-113120500D01*
X160009999Y-113125659D01*
X160010000Y-113125659D01*
X160010001Y-113125659D01*
X160068966Y-113120500D01*
X160245408Y-113105063D01*
X160473663Y-113043903D01*
X160687830Y-112944035D01*
X160881401Y-112808495D01*
X161048495Y-112641401D01*
X161178425Y-112455842D01*
X161233002Y-112412217D01*
X161302500Y-112405023D01*
X161364855Y-112436546D01*
X161381575Y-112455842D01*
X161511500Y-112641395D01*
X161511505Y-112641401D01*
X161678599Y-112808495D01*
X161775384Y-112876265D01*
X161872165Y-112944032D01*
X161872167Y-112944033D01*
X161872170Y-112944035D01*
X162086337Y-113043903D01*
X162314592Y-113105063D01*
X162491034Y-113120500D01*
X162549999Y-113125659D01*
X162550000Y-113125659D01*
X162550001Y-113125659D01*
X162608966Y-113120500D01*
X162785408Y-113105063D01*
X163013663Y-113043903D01*
X163227830Y-112944035D01*
X163421401Y-112808495D01*
X163588495Y-112641401D01*
X163718425Y-112455842D01*
X163773002Y-112412217D01*
X163842500Y-112405023D01*
X163904855Y-112436546D01*
X163921575Y-112455842D01*
X164051500Y-112641395D01*
X164051505Y-112641401D01*
X164218599Y-112808495D01*
X164315384Y-112876265D01*
X164412165Y-112944032D01*
X164412167Y-112944033D01*
X164412170Y-112944035D01*
X164626337Y-113043903D01*
X164854592Y-113105063D01*
X165031034Y-113120500D01*
X165089999Y-113125659D01*
X165090000Y-113125659D01*
X165090001Y-113125659D01*
X165148966Y-113120500D01*
X165325408Y-113105063D01*
X165553663Y-113043903D01*
X165767830Y-112944035D01*
X165961401Y-112808495D01*
X166128495Y-112641401D01*
X166258425Y-112455842D01*
X166313002Y-112412217D01*
X166382500Y-112405023D01*
X166444855Y-112436546D01*
X166461575Y-112455842D01*
X166591500Y-112641395D01*
X166591505Y-112641401D01*
X166758599Y-112808495D01*
X166855384Y-112876265D01*
X166952165Y-112944032D01*
X166952167Y-112944033D01*
X166952170Y-112944035D01*
X167166337Y-113043903D01*
X167394592Y-113105063D01*
X167571034Y-113120500D01*
X167629999Y-113125659D01*
X167630000Y-113125659D01*
X167630001Y-113125659D01*
X167688966Y-113120500D01*
X167865408Y-113105063D01*
X168093663Y-113043903D01*
X168307830Y-112944035D01*
X168501401Y-112808495D01*
X168668495Y-112641401D01*
X168798425Y-112455842D01*
X168853002Y-112412217D01*
X168922500Y-112405023D01*
X168984855Y-112436546D01*
X169001575Y-112455842D01*
X169131500Y-112641395D01*
X169131505Y-112641401D01*
X169298599Y-112808495D01*
X169395384Y-112876265D01*
X169492165Y-112944032D01*
X169492167Y-112944033D01*
X169492170Y-112944035D01*
X169706337Y-113043903D01*
X169934592Y-113105063D01*
X170111034Y-113120500D01*
X170169999Y-113125659D01*
X170170000Y-113125659D01*
X170170001Y-113125659D01*
X170228966Y-113120500D01*
X170405408Y-113105063D01*
X170633663Y-113043903D01*
X170847830Y-112944035D01*
X171041401Y-112808495D01*
X171208495Y-112641401D01*
X171344035Y-112447830D01*
X171443903Y-112233663D01*
X171505063Y-112005408D01*
X171525659Y-111770000D01*
X171505063Y-111534592D01*
X171443903Y-111306337D01*
X171344035Y-111092171D01*
X171338425Y-111084158D01*
X171208494Y-110898597D01*
X171041402Y-110731506D01*
X171041395Y-110731501D01*
X170847834Y-110595967D01*
X170847830Y-110595965D01*
X170818521Y-110582298D01*
X170633663Y-110496097D01*
X170633659Y-110496096D01*
X170633655Y-110496094D01*
X170405413Y-110434938D01*
X170405403Y-110434936D01*
X170170001Y-110414341D01*
X170169999Y-110414341D01*
X169934596Y-110434936D01*
X169934586Y-110434938D01*
X169706344Y-110496094D01*
X169706335Y-110496098D01*
X169492171Y-110595964D01*
X169492169Y-110595965D01*
X169298597Y-110731505D01*
X169131505Y-110898597D01*
X169001575Y-111084158D01*
X168946998Y-111127783D01*
X168877500Y-111134977D01*
X168815145Y-111103454D01*
X168798425Y-111084158D01*
X168668494Y-110898597D01*
X168501402Y-110731506D01*
X168501395Y-110731501D01*
X168307834Y-110595967D01*
X168307830Y-110595965D01*
X168278521Y-110582298D01*
X168093663Y-110496097D01*
X168093659Y-110496096D01*
X168093655Y-110496094D01*
X167865413Y-110434938D01*
X167865403Y-110434936D01*
X167630001Y-110414341D01*
X167629999Y-110414341D01*
X167394596Y-110434936D01*
X167394586Y-110434938D01*
X167166344Y-110496094D01*
X167166335Y-110496098D01*
X166952171Y-110595964D01*
X166952169Y-110595965D01*
X166758597Y-110731505D01*
X166591505Y-110898597D01*
X166461575Y-111084158D01*
X166406998Y-111127783D01*
X166337500Y-111134977D01*
X166275145Y-111103454D01*
X166258425Y-111084158D01*
X166128494Y-110898597D01*
X165961402Y-110731506D01*
X165961395Y-110731501D01*
X165767834Y-110595967D01*
X165767830Y-110595965D01*
X165738521Y-110582298D01*
X165553663Y-110496097D01*
X165553659Y-110496096D01*
X165553655Y-110496094D01*
X165325413Y-110434938D01*
X165325403Y-110434936D01*
X165090001Y-110414341D01*
X165089999Y-110414341D01*
X164854596Y-110434936D01*
X164854586Y-110434938D01*
X164626344Y-110496094D01*
X164626335Y-110496098D01*
X164412171Y-110595964D01*
X164412169Y-110595965D01*
X164218597Y-110731505D01*
X164051505Y-110898597D01*
X163921575Y-111084158D01*
X163866998Y-111127783D01*
X163797500Y-111134977D01*
X163735145Y-111103454D01*
X163718425Y-111084158D01*
X163588494Y-110898597D01*
X163421402Y-110731506D01*
X163421395Y-110731501D01*
X163227834Y-110595967D01*
X163227830Y-110595965D01*
X163198521Y-110582298D01*
X163013663Y-110496097D01*
X163013659Y-110496096D01*
X163013655Y-110496094D01*
X162785413Y-110434938D01*
X162785403Y-110434936D01*
X162550001Y-110414341D01*
X162549999Y-110414341D01*
X162314596Y-110434936D01*
X162314586Y-110434938D01*
X162086344Y-110496094D01*
X162086335Y-110496098D01*
X161872171Y-110595964D01*
X161872169Y-110595965D01*
X161678597Y-110731505D01*
X161511505Y-110898597D01*
X161381575Y-111084158D01*
X161326998Y-111127783D01*
X161257500Y-111134977D01*
X161195145Y-111103454D01*
X161178425Y-111084158D01*
X161048494Y-110898597D01*
X160881402Y-110731506D01*
X160881395Y-110731501D01*
X160687834Y-110595967D01*
X160687830Y-110595965D01*
X160658521Y-110582298D01*
X160473663Y-110496097D01*
X160473659Y-110496096D01*
X160473655Y-110496094D01*
X160245413Y-110434938D01*
X160245403Y-110434936D01*
X160010001Y-110414341D01*
X160009999Y-110414341D01*
X159774596Y-110434936D01*
X159774586Y-110434938D01*
X159546344Y-110496094D01*
X159546335Y-110496098D01*
X159332171Y-110595964D01*
X159332169Y-110595965D01*
X159138597Y-110731505D01*
X158971505Y-110898597D01*
X158841575Y-111084158D01*
X158786998Y-111127783D01*
X158717500Y-111134977D01*
X158655145Y-111103454D01*
X158638425Y-111084158D01*
X158508494Y-110898597D01*
X158341402Y-110731506D01*
X158341395Y-110731501D01*
X158147834Y-110595967D01*
X158147830Y-110595965D01*
X158118521Y-110582298D01*
X157933663Y-110496097D01*
X157933659Y-110496096D01*
X157933655Y-110496094D01*
X157705413Y-110434938D01*
X157705403Y-110434936D01*
X157470001Y-110414341D01*
X157469999Y-110414341D01*
X157234596Y-110434936D01*
X157234586Y-110434938D01*
X157006344Y-110496094D01*
X157006335Y-110496098D01*
X156792171Y-110595964D01*
X156792169Y-110595965D01*
X156598597Y-110731505D01*
X156431505Y-110898597D01*
X156301575Y-111084158D01*
X156246998Y-111127783D01*
X156177500Y-111134977D01*
X156115145Y-111103454D01*
X156098425Y-111084158D01*
X155968494Y-110898597D01*
X155801402Y-110731506D01*
X155801395Y-110731501D01*
X155607834Y-110595967D01*
X155607830Y-110595965D01*
X155578521Y-110582298D01*
X155393663Y-110496097D01*
X155393659Y-110496096D01*
X155393655Y-110496094D01*
X155165413Y-110434938D01*
X155165403Y-110434936D01*
X154930001Y-110414341D01*
X154929999Y-110414341D01*
X154694596Y-110434936D01*
X154694586Y-110434938D01*
X154466344Y-110496094D01*
X154466335Y-110496098D01*
X154252171Y-110595964D01*
X154252169Y-110595965D01*
X154058597Y-110731505D01*
X153891505Y-110898597D01*
X153761575Y-111084158D01*
X153706998Y-111127783D01*
X153637500Y-111134977D01*
X153575145Y-111103454D01*
X153558425Y-111084158D01*
X153428494Y-110898597D01*
X153261402Y-110731506D01*
X153261395Y-110731501D01*
X153067834Y-110595967D01*
X153067830Y-110595965D01*
X153038521Y-110582298D01*
X152853663Y-110496097D01*
X152853659Y-110496096D01*
X152853655Y-110496094D01*
X152625413Y-110434938D01*
X152625403Y-110434936D01*
X152390001Y-110414341D01*
X152389999Y-110414341D01*
X152154596Y-110434936D01*
X152154586Y-110434938D01*
X151926344Y-110496094D01*
X151926335Y-110496098D01*
X151712171Y-110595964D01*
X151712169Y-110595965D01*
X151518597Y-110731505D01*
X151351505Y-110898597D01*
X151221575Y-111084158D01*
X151166998Y-111127783D01*
X151097500Y-111134977D01*
X151035145Y-111103454D01*
X151018425Y-111084158D01*
X150888494Y-110898597D01*
X150721402Y-110731506D01*
X150721395Y-110731501D01*
X150527834Y-110595967D01*
X150527830Y-110595965D01*
X150498521Y-110582298D01*
X150313663Y-110496097D01*
X150313659Y-110496096D01*
X150313655Y-110496094D01*
X150085413Y-110434938D01*
X150085403Y-110434936D01*
X149850001Y-110414341D01*
X149849999Y-110414341D01*
X149614596Y-110434936D01*
X149614586Y-110434938D01*
X149386344Y-110496094D01*
X149386335Y-110496098D01*
X149172171Y-110595964D01*
X149172169Y-110595965D01*
X148978597Y-110731505D01*
X148811505Y-110898597D01*
X148681575Y-111084158D01*
X148626998Y-111127783D01*
X148557500Y-111134977D01*
X148495145Y-111103454D01*
X148478425Y-111084158D01*
X148348494Y-110898597D01*
X148181402Y-110731506D01*
X148181395Y-110731501D01*
X147987834Y-110595967D01*
X147987830Y-110595965D01*
X147958521Y-110582298D01*
X147773663Y-110496097D01*
X147773659Y-110496096D01*
X147773655Y-110496094D01*
X147545413Y-110434938D01*
X147545403Y-110434936D01*
X147310001Y-110414341D01*
X147309999Y-110414341D01*
X147074596Y-110434936D01*
X147074586Y-110434938D01*
X146846344Y-110496094D01*
X146846335Y-110496098D01*
X146632171Y-110595964D01*
X146632169Y-110595965D01*
X146438597Y-110731505D01*
X146271505Y-110898597D01*
X146141575Y-111084158D01*
X146086998Y-111127783D01*
X146017500Y-111134977D01*
X145955145Y-111103454D01*
X145938425Y-111084158D01*
X145808494Y-110898597D01*
X145641404Y-110731507D01*
X145573375Y-110683872D01*
X145529751Y-110629294D01*
X145520500Y-110582298D01*
X145520500Y-109657589D01*
X145540185Y-109590550D01*
X145556819Y-109569908D01*
X145696097Y-109430630D01*
X145757420Y-109397145D01*
X145783778Y-109394311D01*
X165612484Y-109394311D01*
X165630454Y-109395620D01*
X165654212Y-109399100D01*
X165703558Y-109394782D01*
X165714365Y-109394311D01*
X165719893Y-109394311D01*
X165719898Y-109394311D01*
X165750745Y-109390704D01*
X165754219Y-109390350D01*
X165828986Y-109383810D01*
X165828994Y-109383807D01*
X165836055Y-109382350D01*
X165836067Y-109382409D01*
X165843432Y-109380776D01*
X165843418Y-109380717D01*
X165850438Y-109379052D01*
X165850444Y-109379052D01*
X165920968Y-109353383D01*
X165924306Y-109352223D01*
X165995523Y-109328625D01*
X165995531Y-109328619D01*
X166002071Y-109325571D01*
X166002097Y-109325627D01*
X166008879Y-109322343D01*
X166008852Y-109322289D01*
X166015302Y-109319049D01*
X166015306Y-109319048D01*
X166078026Y-109277795D01*
X166080921Y-109275951D01*
X166144845Y-109236523D01*
X166144851Y-109236516D01*
X166150514Y-109232040D01*
X166150551Y-109232088D01*
X166156393Y-109227329D01*
X166156353Y-109227282D01*
X166161875Y-109222646D01*
X166161885Y-109222641D01*
X166213374Y-109168064D01*
X166215821Y-109165545D01*
X170692696Y-104688669D01*
X170697906Y-104683753D01*
X170744459Y-104642326D01*
X170780204Y-104591274D01*
X170784472Y-104585542D01*
X170823111Y-104536677D01*
X170827851Y-104526510D01*
X170838656Y-104507796D01*
X170845088Y-104498612D01*
X170868082Y-104440729D01*
X170870925Y-104434137D01*
X170897257Y-104377672D01*
X170899523Y-104366694D01*
X170905726Y-104345976D01*
X170909862Y-104335567D01*
X170918890Y-104273924D01*
X170920128Y-104266899D01*
X170932734Y-104205855D01*
X170932408Y-104194652D01*
X170933664Y-104173071D01*
X170935289Y-104161975D01*
X170929862Y-104099958D01*
X170929442Y-104092753D01*
X170927631Y-104030487D01*
X170926442Y-104026051D01*
X170924727Y-104019647D01*
X170920930Y-103997853D01*
X170920928Y-103997829D01*
X170920500Y-103987531D01*
X170920500Y-102797700D01*
X170940185Y-102730661D01*
X170973375Y-102696126D01*
X171041401Y-102648495D01*
X171208495Y-102481401D01*
X171338425Y-102295842D01*
X171393002Y-102252217D01*
X171462500Y-102245023D01*
X171524855Y-102276546D01*
X171541575Y-102295842D01*
X171671500Y-102481395D01*
X171671505Y-102481401D01*
X171838599Y-102648495D01*
X171935384Y-102716265D01*
X172032165Y-102784032D01*
X172032167Y-102784033D01*
X172032170Y-102784035D01*
X172246337Y-102883903D01*
X172474592Y-102945063D01*
X172651034Y-102960500D01*
X172709999Y-102965659D01*
X172710000Y-102965659D01*
X172710001Y-102965659D01*
X172768966Y-102960500D01*
X172945408Y-102945063D01*
X173173663Y-102883903D01*
X173387830Y-102784035D01*
X173581401Y-102648495D01*
X173703329Y-102526566D01*
X173764648Y-102493084D01*
X173834340Y-102498068D01*
X173890274Y-102539939D01*
X173907189Y-102570917D01*
X173956202Y-102702328D01*
X173956206Y-102702335D01*
X174042452Y-102817544D01*
X174042455Y-102817547D01*
X174157664Y-102903793D01*
X174157671Y-102903797D01*
X174292517Y-102954091D01*
X174292516Y-102954091D01*
X174299444Y-102954835D01*
X174352127Y-102960500D01*
X176147872Y-102960499D01*
X176207483Y-102954091D01*
X176342331Y-102903796D01*
X176457546Y-102817546D01*
X176543796Y-102702331D01*
X176594091Y-102567483D01*
X176600500Y-102507873D01*
X176600499Y-100712128D01*
X176594091Y-100652517D01*
X176592810Y-100649083D01*
X176543797Y-100517671D01*
X176543793Y-100517664D01*
X176457547Y-100402455D01*
X176457544Y-100402452D01*
X176342335Y-100316206D01*
X176342328Y-100316202D01*
X176207482Y-100265908D01*
X176207483Y-100265908D01*
X176147883Y-100259501D01*
X176147881Y-100259500D01*
X176147873Y-100259500D01*
X176147864Y-100259500D01*
X174352129Y-100259500D01*
X174352123Y-100259501D01*
X174292516Y-100265908D01*
X174157671Y-100316202D01*
X174157664Y-100316206D01*
X174042455Y-100402452D01*
X174042452Y-100402455D01*
X173956206Y-100517664D01*
X173956203Y-100517669D01*
X173907189Y-100649083D01*
X173865317Y-100705016D01*
X173799853Y-100729433D01*
X173731580Y-100714581D01*
X173703326Y-100693430D01*
X173581402Y-100571506D01*
X173581395Y-100571501D01*
X173387834Y-100435967D01*
X173387830Y-100435965D01*
X173387828Y-100435964D01*
X173173663Y-100336097D01*
X173173659Y-100336096D01*
X173173655Y-100336094D01*
X172945413Y-100274938D01*
X172945403Y-100274936D01*
X172710001Y-100254341D01*
X172709999Y-100254341D01*
X172474596Y-100274936D01*
X172474586Y-100274938D01*
X172246344Y-100336094D01*
X172246335Y-100336098D01*
X172032171Y-100435964D01*
X172032169Y-100435965D01*
X171838597Y-100571505D01*
X171671505Y-100738597D01*
X171541575Y-100924158D01*
X171486998Y-100967783D01*
X171417500Y-100974977D01*
X171355145Y-100943454D01*
X171338425Y-100924158D01*
X171208494Y-100738597D01*
X171041402Y-100571506D01*
X171041395Y-100571501D01*
X170847834Y-100435967D01*
X170847830Y-100435965D01*
X170847828Y-100435964D01*
X170633663Y-100336097D01*
X170633659Y-100336096D01*
X170633655Y-100336094D01*
X170405413Y-100274938D01*
X170405403Y-100274936D01*
X170170001Y-100254341D01*
X170169999Y-100254341D01*
X169934596Y-100274936D01*
X169934586Y-100274938D01*
X169706344Y-100336094D01*
X169706335Y-100336098D01*
X169492171Y-100435964D01*
X169492169Y-100435965D01*
X169298597Y-100571505D01*
X169131505Y-100738597D01*
X169001575Y-100924158D01*
X168946998Y-100967783D01*
X168877500Y-100974977D01*
X168815145Y-100943454D01*
X168798425Y-100924158D01*
X168668494Y-100738597D01*
X168501402Y-100571506D01*
X168501395Y-100571501D01*
X168307834Y-100435967D01*
X168307830Y-100435965D01*
X168307828Y-100435964D01*
X168093663Y-100336097D01*
X168093659Y-100336096D01*
X168093655Y-100336094D01*
X167865413Y-100274938D01*
X167865403Y-100274936D01*
X167630001Y-100254341D01*
X167629999Y-100254341D01*
X167394596Y-100274936D01*
X167394586Y-100274938D01*
X167166344Y-100336094D01*
X167166335Y-100336098D01*
X166952171Y-100435964D01*
X166952169Y-100435965D01*
X166758597Y-100571505D01*
X166591505Y-100738597D01*
X166461575Y-100924158D01*
X166406998Y-100967783D01*
X166337500Y-100974977D01*
X166275145Y-100943454D01*
X166258425Y-100924158D01*
X166128494Y-100738597D01*
X165961402Y-100571506D01*
X165961395Y-100571501D01*
X165767834Y-100435967D01*
X165767830Y-100435965D01*
X165767828Y-100435964D01*
X165553663Y-100336097D01*
X165553659Y-100336096D01*
X165553655Y-100336094D01*
X165325413Y-100274938D01*
X165325403Y-100274936D01*
X165090001Y-100254341D01*
X165089999Y-100254341D01*
X164854596Y-100274936D01*
X164854586Y-100274938D01*
X164626344Y-100336094D01*
X164626335Y-100336098D01*
X164412171Y-100435964D01*
X164412169Y-100435965D01*
X164218597Y-100571505D01*
X164051505Y-100738597D01*
X163921575Y-100924158D01*
X163866998Y-100967783D01*
X163797500Y-100974977D01*
X163735145Y-100943454D01*
X163718425Y-100924158D01*
X163588494Y-100738597D01*
X163421402Y-100571506D01*
X163421395Y-100571501D01*
X163227834Y-100435967D01*
X163227830Y-100435965D01*
X163227828Y-100435964D01*
X163013663Y-100336097D01*
X163013659Y-100336096D01*
X163013655Y-100336094D01*
X162785413Y-100274938D01*
X162785403Y-100274936D01*
X162550001Y-100254341D01*
X162549999Y-100254341D01*
X162314596Y-100274936D01*
X162314586Y-100274938D01*
X162086344Y-100336094D01*
X162086335Y-100336098D01*
X161872171Y-100435964D01*
X161872169Y-100435965D01*
X161678597Y-100571505D01*
X161511505Y-100738597D01*
X161381575Y-100924158D01*
X161326998Y-100967783D01*
X161257500Y-100974977D01*
X161195145Y-100943454D01*
X161178425Y-100924158D01*
X161048494Y-100738597D01*
X160881402Y-100571506D01*
X160881395Y-100571501D01*
X160687834Y-100435967D01*
X160687830Y-100435965D01*
X160687828Y-100435964D01*
X160473663Y-100336097D01*
X160473659Y-100336096D01*
X160473655Y-100336094D01*
X160245413Y-100274938D01*
X160245403Y-100274936D01*
X160010001Y-100254341D01*
X160009999Y-100254341D01*
X159774596Y-100274936D01*
X159774586Y-100274938D01*
X159546344Y-100336094D01*
X159546335Y-100336098D01*
X159332171Y-100435964D01*
X159332169Y-100435965D01*
X159138597Y-100571505D01*
X158971505Y-100738597D01*
X158841575Y-100924158D01*
X158786998Y-100967783D01*
X158717500Y-100974977D01*
X158655145Y-100943454D01*
X158638425Y-100924158D01*
X158508494Y-100738597D01*
X158341402Y-100571506D01*
X158341395Y-100571501D01*
X158147834Y-100435967D01*
X158147830Y-100435965D01*
X158147828Y-100435964D01*
X157933663Y-100336097D01*
X157933659Y-100336096D01*
X157933655Y-100336094D01*
X157705413Y-100274938D01*
X157705403Y-100274936D01*
X157470001Y-100254341D01*
X157469999Y-100254341D01*
X157234596Y-100274936D01*
X157234586Y-100274938D01*
X157006344Y-100336094D01*
X157006335Y-100336098D01*
X156792171Y-100435964D01*
X156792169Y-100435965D01*
X156598597Y-100571505D01*
X156431505Y-100738597D01*
X156301575Y-100924158D01*
X156246998Y-100967783D01*
X156177500Y-100974977D01*
X156115145Y-100943454D01*
X156098425Y-100924158D01*
X155968494Y-100738597D01*
X155801402Y-100571506D01*
X155801395Y-100571501D01*
X155607834Y-100435967D01*
X155607830Y-100435965D01*
X155607828Y-100435964D01*
X155393663Y-100336097D01*
X155393659Y-100336096D01*
X155393655Y-100336094D01*
X155165413Y-100274938D01*
X155165403Y-100274936D01*
X154930001Y-100254341D01*
X154929999Y-100254341D01*
X154694596Y-100274936D01*
X154694586Y-100274938D01*
X154466344Y-100336094D01*
X154466335Y-100336098D01*
X154252171Y-100435964D01*
X154252169Y-100435965D01*
X154058597Y-100571505D01*
X153891505Y-100738597D01*
X153761575Y-100924158D01*
X153706998Y-100967783D01*
X153637500Y-100974977D01*
X153575145Y-100943454D01*
X153558425Y-100924158D01*
X153428494Y-100738597D01*
X153261402Y-100571506D01*
X153261395Y-100571501D01*
X153067834Y-100435967D01*
X153067830Y-100435965D01*
X153067828Y-100435964D01*
X152853663Y-100336097D01*
X152853659Y-100336096D01*
X152853655Y-100336094D01*
X152625413Y-100274938D01*
X152625403Y-100274936D01*
X152390001Y-100254341D01*
X152389999Y-100254341D01*
X152154596Y-100274936D01*
X152154586Y-100274938D01*
X151926344Y-100336094D01*
X151926335Y-100336098D01*
X151712171Y-100435964D01*
X151712169Y-100435965D01*
X151518597Y-100571505D01*
X151351505Y-100738597D01*
X151215965Y-100932169D01*
X151215964Y-100932171D01*
X151116098Y-101146335D01*
X151116094Y-101146344D01*
X151054938Y-101374586D01*
X151054936Y-101374596D01*
X151034341Y-101609999D01*
X151034341Y-101610000D01*
X151054936Y-101845403D01*
X151054938Y-101845413D01*
X151116094Y-102073655D01*
X151116096Y-102073659D01*
X151116097Y-102073663D01*
X151199358Y-102252217D01*
X151215965Y-102287830D01*
X151215967Y-102287834D01*
X151324281Y-102442521D01*
X151351505Y-102481401D01*
X151518599Y-102648495D01*
X151615384Y-102716265D01*
X151712165Y-102784032D01*
X151712167Y-102784033D01*
X151712170Y-102784035D01*
X151926337Y-102883903D01*
X152154592Y-102945063D01*
X152331034Y-102960500D01*
X152389999Y-102965659D01*
X152390000Y-102965659D01*
X152390001Y-102965659D01*
X152448966Y-102960500D01*
X152625408Y-102945063D01*
X152853663Y-102883903D01*
X153067830Y-102784035D01*
X153261401Y-102648495D01*
X153428495Y-102481401D01*
X153558425Y-102295842D01*
X153613002Y-102252217D01*
X153682500Y-102245023D01*
X153744855Y-102276546D01*
X153761575Y-102295842D01*
X153891500Y-102481395D01*
X153891505Y-102481401D01*
X154058599Y-102648495D01*
X154155384Y-102716265D01*
X154252165Y-102784032D01*
X154252167Y-102784033D01*
X154252170Y-102784035D01*
X154466337Y-102883903D01*
X154694592Y-102945063D01*
X154871034Y-102960500D01*
X154929999Y-102965659D01*
X154930000Y-102965659D01*
X154930001Y-102965659D01*
X154988966Y-102960500D01*
X155165408Y-102945063D01*
X155393663Y-102883903D01*
X155607830Y-102784035D01*
X155801401Y-102648495D01*
X155968495Y-102481401D01*
X156098425Y-102295842D01*
X156153002Y-102252217D01*
X156222500Y-102245023D01*
X156284855Y-102276546D01*
X156301575Y-102295842D01*
X156431500Y-102481395D01*
X156431505Y-102481401D01*
X156598599Y-102648495D01*
X156695384Y-102716265D01*
X156792165Y-102784032D01*
X156792167Y-102784033D01*
X156792170Y-102784035D01*
X157006337Y-102883903D01*
X157234592Y-102945063D01*
X157411034Y-102960500D01*
X157469999Y-102965659D01*
X157470000Y-102965659D01*
X157470001Y-102965659D01*
X157528966Y-102960500D01*
X157705408Y-102945063D01*
X157933663Y-102883903D01*
X158147830Y-102784035D01*
X158341401Y-102648495D01*
X158508495Y-102481401D01*
X158638425Y-102295842D01*
X158693002Y-102252217D01*
X158762500Y-102245023D01*
X158824855Y-102276546D01*
X158841575Y-102295842D01*
X158971500Y-102481395D01*
X158971505Y-102481401D01*
X159138599Y-102648495D01*
X159235384Y-102716265D01*
X159332165Y-102784032D01*
X159332167Y-102784033D01*
X159332170Y-102784035D01*
X159546337Y-102883903D01*
X159774592Y-102945063D01*
X159951034Y-102960500D01*
X160009999Y-102965659D01*
X160010000Y-102965659D01*
X160010001Y-102965659D01*
X160068966Y-102960500D01*
X160245408Y-102945063D01*
X160473663Y-102883903D01*
X160687830Y-102784035D01*
X160881401Y-102648495D01*
X161048495Y-102481401D01*
X161178425Y-102295842D01*
X161233002Y-102252217D01*
X161302500Y-102245023D01*
X161364855Y-102276546D01*
X161381575Y-102295842D01*
X161511500Y-102481395D01*
X161511505Y-102481401D01*
X161678599Y-102648495D01*
X161775384Y-102716265D01*
X161872165Y-102784032D01*
X161872167Y-102784033D01*
X161872170Y-102784035D01*
X162086337Y-102883903D01*
X162314592Y-102945063D01*
X162491034Y-102960500D01*
X162549999Y-102965659D01*
X162550000Y-102965659D01*
X162550001Y-102965659D01*
X162608966Y-102960500D01*
X162785408Y-102945063D01*
X163013663Y-102883903D01*
X163227830Y-102784035D01*
X163421401Y-102648495D01*
X163588495Y-102481401D01*
X163718425Y-102295842D01*
X163773002Y-102252217D01*
X163842500Y-102245023D01*
X163904855Y-102276546D01*
X163921575Y-102295842D01*
X164051500Y-102481395D01*
X164051505Y-102481401D01*
X164218599Y-102648495D01*
X164315384Y-102716265D01*
X164412165Y-102784032D01*
X164412167Y-102784033D01*
X164412170Y-102784035D01*
X164626337Y-102883903D01*
X164854592Y-102945063D01*
X165031034Y-102960500D01*
X165089999Y-102965659D01*
X165090000Y-102965659D01*
X165090001Y-102965659D01*
X165148966Y-102960500D01*
X165325408Y-102945063D01*
X165553663Y-102883903D01*
X165767830Y-102784035D01*
X165961401Y-102648495D01*
X166128495Y-102481401D01*
X166258425Y-102295842D01*
X166313002Y-102252217D01*
X166382500Y-102245023D01*
X166444855Y-102276546D01*
X166461575Y-102295842D01*
X166591501Y-102481396D01*
X166591506Y-102481402D01*
X166758595Y-102648492D01*
X166758598Y-102648494D01*
X166758599Y-102648495D01*
X166826623Y-102696125D01*
X166870248Y-102750701D01*
X166879500Y-102797700D01*
X166879500Y-103787770D01*
X166859815Y-103854809D01*
X166843181Y-103875451D01*
X164825451Y-105893181D01*
X164764128Y-105926666D01*
X164737770Y-105929500D01*
X144843705Y-105929500D01*
X144825735Y-105928191D01*
X144801972Y-105924710D01*
X144754843Y-105928834D01*
X144752630Y-105929028D01*
X144741824Y-105929500D01*
X144736284Y-105929500D01*
X144705501Y-105933098D01*
X144701916Y-105933464D01*
X144627199Y-105940001D01*
X144620132Y-105941460D01*
X144620120Y-105941404D01*
X144612763Y-105943035D01*
X144612777Y-105943092D01*
X144605740Y-105944760D01*
X144535231Y-105970421D01*
X144531854Y-105971595D01*
X144492848Y-105984521D01*
X144460668Y-105995185D01*
X144454126Y-105998236D01*
X144454101Y-105998183D01*
X144447308Y-106001471D01*
X144447334Y-106001523D01*
X144440880Y-106004764D01*
X144378221Y-106045975D01*
X144375181Y-106047912D01*
X144311348Y-106087285D01*
X144305683Y-106091765D01*
X144305647Y-106091719D01*
X144299798Y-106096484D01*
X144299835Y-106096528D01*
X144294310Y-106101164D01*
X144242832Y-106155726D01*
X144240320Y-106158311D01*
X141744358Y-108654272D01*
X141730729Y-108666051D01*
X141711469Y-108680390D01*
X141679632Y-108718331D01*
X141672346Y-108726284D01*
X141668407Y-108730224D01*
X141649176Y-108754545D01*
X141646902Y-108757337D01*
X141598694Y-108814790D01*
X141594729Y-108820819D01*
X141594682Y-108820788D01*
X141590630Y-108827147D01*
X141590679Y-108827177D01*
X141586889Y-108833321D01*
X141555192Y-108901294D01*
X141553623Y-108904536D01*
X141519957Y-108971572D01*
X141517488Y-108978357D01*
X141517432Y-108978336D01*
X141514960Y-108985450D01*
X141515015Y-108985469D01*
X141512743Y-108992325D01*
X141497573Y-109065788D01*
X141496793Y-109069304D01*
X141479499Y-109142279D01*
X141478661Y-109149454D01*
X141478601Y-109149447D01*
X141477835Y-109156945D01*
X141477895Y-109156951D01*
X141477265Y-109164140D01*
X141479448Y-109239128D01*
X141479500Y-109242735D01*
X141479500Y-110582298D01*
X141459815Y-110649337D01*
X141426625Y-110683872D01*
X141358595Y-110731507D01*
X141191505Y-110898597D01*
X141061575Y-111084158D01*
X141006998Y-111127783D01*
X140937500Y-111134977D01*
X140875145Y-111103454D01*
X140858425Y-111084158D01*
X140728494Y-110898597D01*
X140561402Y-110731506D01*
X140561395Y-110731501D01*
X140367834Y-110595967D01*
X140367830Y-110595965D01*
X140338521Y-110582298D01*
X140153663Y-110496097D01*
X140153659Y-110496096D01*
X140153655Y-110496094D01*
X139925413Y-110434938D01*
X139925403Y-110434936D01*
X139690001Y-110414341D01*
X139689999Y-110414341D01*
X139454596Y-110434936D01*
X139454586Y-110434938D01*
X139226344Y-110496094D01*
X139226335Y-110496098D01*
X139012171Y-110595964D01*
X139012169Y-110595965D01*
X138818597Y-110731505D01*
X138651505Y-110898597D01*
X138521575Y-111084158D01*
X138466998Y-111127783D01*
X138397500Y-111134977D01*
X138335145Y-111103454D01*
X138318425Y-111084158D01*
X138188494Y-110898597D01*
X138021402Y-110731506D01*
X138021395Y-110731501D01*
X137827834Y-110595967D01*
X137827830Y-110595965D01*
X137798521Y-110582298D01*
X137613663Y-110496097D01*
X137613659Y-110496096D01*
X137613655Y-110496094D01*
X137385413Y-110434938D01*
X137385403Y-110434936D01*
X137150001Y-110414341D01*
X137149999Y-110414341D01*
X136914596Y-110434936D01*
X136914586Y-110434938D01*
X136686344Y-110496094D01*
X136686335Y-110496098D01*
X136472171Y-110595964D01*
X136472169Y-110595965D01*
X136278597Y-110731505D01*
X136111505Y-110898597D01*
X135981575Y-111084158D01*
X135926998Y-111127783D01*
X135857500Y-111134977D01*
X135795145Y-111103454D01*
X135778425Y-111084158D01*
X135648494Y-110898597D01*
X135481402Y-110731506D01*
X135481395Y-110731501D01*
X135287834Y-110595967D01*
X135287830Y-110595965D01*
X135258521Y-110582298D01*
X135073663Y-110496097D01*
X135073659Y-110496096D01*
X135073655Y-110496094D01*
X134845413Y-110434938D01*
X134845403Y-110434936D01*
X134610001Y-110414341D01*
X134609999Y-110414341D01*
X134374596Y-110434936D01*
X134374586Y-110434938D01*
X134146344Y-110496094D01*
X134146335Y-110496098D01*
X133932171Y-110595964D01*
X133932169Y-110595965D01*
X133738600Y-110731503D01*
X133616673Y-110853430D01*
X133555350Y-110886914D01*
X133485658Y-110881930D01*
X133429725Y-110840058D01*
X133412810Y-110809081D01*
X133363797Y-110677671D01*
X133363793Y-110677664D01*
X133277547Y-110562455D01*
X133277544Y-110562452D01*
X133162335Y-110476206D01*
X133162328Y-110476202D01*
X133027482Y-110425908D01*
X133027483Y-110425908D01*
X132967883Y-110419501D01*
X132967881Y-110419500D01*
X132967873Y-110419500D01*
X132967864Y-110419500D01*
X131172129Y-110419500D01*
X131172123Y-110419501D01*
X131112516Y-110425908D01*
X130977671Y-110476202D01*
X130977664Y-110476206D01*
X130862455Y-110562452D01*
X130862452Y-110562455D01*
X130776206Y-110677664D01*
X130776203Y-110677669D01*
X130727189Y-110809083D01*
X130685317Y-110865016D01*
X130619853Y-110889433D01*
X130551580Y-110874581D01*
X130523326Y-110853430D01*
X130401402Y-110731506D01*
X130401395Y-110731501D01*
X130207834Y-110595967D01*
X130207830Y-110595965D01*
X130178521Y-110582298D01*
X129993663Y-110496097D01*
X129993659Y-110496096D01*
X129993655Y-110496094D01*
X129765413Y-110434938D01*
X129765403Y-110434936D01*
X129530001Y-110414341D01*
X129529999Y-110414341D01*
X129294596Y-110434936D01*
X129294586Y-110434938D01*
X129066344Y-110496094D01*
X129066335Y-110496098D01*
X128852171Y-110595964D01*
X128852169Y-110595965D01*
X128658597Y-110731505D01*
X128491505Y-110898597D01*
X128361575Y-111084158D01*
X128306998Y-111127783D01*
X128237500Y-111134977D01*
X128175145Y-111103454D01*
X128158425Y-111084158D01*
X128028494Y-110898597D01*
X127861402Y-110731506D01*
X127861395Y-110731501D01*
X127667834Y-110595967D01*
X127667830Y-110595965D01*
X127638521Y-110582298D01*
X127453663Y-110496097D01*
X127453659Y-110496096D01*
X127453655Y-110496094D01*
X127225413Y-110434938D01*
X127225403Y-110434936D01*
X126990001Y-110414341D01*
X126989999Y-110414341D01*
X126754596Y-110434936D01*
X126754586Y-110434938D01*
X126526344Y-110496094D01*
X126526335Y-110496098D01*
X126312171Y-110595964D01*
X126312169Y-110595965D01*
X126118597Y-110731505D01*
X125951505Y-110898597D01*
X125821575Y-111084158D01*
X125766998Y-111127783D01*
X125697500Y-111134977D01*
X125635145Y-111103454D01*
X125618425Y-111084158D01*
X125488494Y-110898597D01*
X125321402Y-110731506D01*
X125321395Y-110731501D01*
X125127834Y-110595967D01*
X125127830Y-110595965D01*
X125098521Y-110582298D01*
X124913663Y-110496097D01*
X124913659Y-110496096D01*
X124913655Y-110496094D01*
X124685413Y-110434938D01*
X124685403Y-110434936D01*
X124450001Y-110414341D01*
X124449999Y-110414341D01*
X124214596Y-110434936D01*
X124214586Y-110434938D01*
X123986344Y-110496094D01*
X123986335Y-110496098D01*
X123772171Y-110595964D01*
X123772169Y-110595965D01*
X123578597Y-110731505D01*
X123411505Y-110898597D01*
X123275965Y-111092169D01*
X123275964Y-111092171D01*
X123176098Y-111306335D01*
X123176094Y-111306344D01*
X123114938Y-111534586D01*
X123114936Y-111534596D01*
X123094341Y-111769999D01*
X123094341Y-111770000D01*
X111760500Y-111770000D01*
X111760500Y-101585000D01*
X115474341Y-101585000D01*
X115494936Y-101820403D01*
X115494938Y-101820413D01*
X115556094Y-102048655D01*
X115556096Y-102048659D01*
X115556097Y-102048663D01*
X115636004Y-102220023D01*
X115655965Y-102262830D01*
X115655967Y-102262834D01*
X115679080Y-102295842D01*
X115791505Y-102456401D01*
X115958599Y-102623495D01*
X116055384Y-102691265D01*
X116152165Y-102759032D01*
X116152167Y-102759033D01*
X116152170Y-102759035D01*
X116366337Y-102858903D01*
X116594592Y-102920063D01*
X116771034Y-102935500D01*
X116829999Y-102940659D01*
X116830000Y-102940659D01*
X116830001Y-102940659D01*
X116888966Y-102935500D01*
X117065408Y-102920063D01*
X117293663Y-102858903D01*
X117507830Y-102759035D01*
X117701401Y-102623495D01*
X117868495Y-102456401D01*
X117998425Y-102270842D01*
X118053002Y-102227217D01*
X118122500Y-102220023D01*
X118184855Y-102251546D01*
X118201575Y-102270842D01*
X118331500Y-102456395D01*
X118331505Y-102456401D01*
X118498599Y-102623495D01*
X118595384Y-102691265D01*
X118692165Y-102759032D01*
X118692167Y-102759033D01*
X118692170Y-102759035D01*
X118906337Y-102858903D01*
X119134592Y-102920063D01*
X119311034Y-102935500D01*
X119369999Y-102940659D01*
X119370000Y-102940659D01*
X119370001Y-102940659D01*
X119428966Y-102935500D01*
X119605408Y-102920063D01*
X119833663Y-102858903D01*
X120047830Y-102759035D01*
X120241401Y-102623495D01*
X120408495Y-102456401D01*
X120538425Y-102270842D01*
X120593002Y-102227217D01*
X120662500Y-102220023D01*
X120724855Y-102251546D01*
X120741575Y-102270842D01*
X120871500Y-102456395D01*
X120871505Y-102456401D01*
X121038599Y-102623495D01*
X121135384Y-102691265D01*
X121232165Y-102759032D01*
X121232167Y-102759033D01*
X121232170Y-102759035D01*
X121446337Y-102858903D01*
X121674592Y-102920063D01*
X121851034Y-102935500D01*
X121909999Y-102940659D01*
X121910000Y-102940659D01*
X121910001Y-102940659D01*
X121968966Y-102935500D01*
X122145408Y-102920063D01*
X122373663Y-102858903D01*
X122587830Y-102759035D01*
X122781401Y-102623495D01*
X122948495Y-102456401D01*
X123078425Y-102270842D01*
X123133002Y-102227217D01*
X123202500Y-102220023D01*
X123264855Y-102251546D01*
X123281575Y-102270842D01*
X123411500Y-102456395D01*
X123411505Y-102456401D01*
X123578599Y-102623495D01*
X123675384Y-102691265D01*
X123772165Y-102759032D01*
X123772167Y-102759033D01*
X123772170Y-102759035D01*
X123986337Y-102858903D01*
X124214592Y-102920063D01*
X124391034Y-102935500D01*
X124449999Y-102940659D01*
X124450000Y-102940659D01*
X124450001Y-102940659D01*
X124508966Y-102935500D01*
X124685408Y-102920063D01*
X124913663Y-102858903D01*
X125127830Y-102759035D01*
X125321401Y-102623495D01*
X125488495Y-102456401D01*
X125618425Y-102270842D01*
X125673002Y-102227217D01*
X125742500Y-102220023D01*
X125804855Y-102251546D01*
X125821575Y-102270842D01*
X125951500Y-102456395D01*
X125951505Y-102456401D01*
X126118599Y-102623495D01*
X126215384Y-102691265D01*
X126312165Y-102759032D01*
X126312167Y-102759033D01*
X126312170Y-102759035D01*
X126526337Y-102858903D01*
X126754592Y-102920063D01*
X126931034Y-102935500D01*
X126989999Y-102940659D01*
X126990000Y-102940659D01*
X126990001Y-102940659D01*
X127048966Y-102935500D01*
X127225408Y-102920063D01*
X127453663Y-102858903D01*
X127667830Y-102759035D01*
X127861401Y-102623495D01*
X128028495Y-102456401D01*
X128158425Y-102270842D01*
X128213002Y-102227217D01*
X128282500Y-102220023D01*
X128344855Y-102251546D01*
X128361575Y-102270842D01*
X128491500Y-102456395D01*
X128491505Y-102456401D01*
X128658599Y-102623495D01*
X128755384Y-102691265D01*
X128852165Y-102759032D01*
X128852167Y-102759033D01*
X128852170Y-102759035D01*
X129066337Y-102858903D01*
X129294592Y-102920063D01*
X129471034Y-102935500D01*
X129529999Y-102940659D01*
X129530000Y-102940659D01*
X129530001Y-102940659D01*
X129588966Y-102935500D01*
X129765408Y-102920063D01*
X129993663Y-102858903D01*
X130207830Y-102759035D01*
X130401401Y-102623495D01*
X130568495Y-102456401D01*
X130698425Y-102270842D01*
X130753002Y-102227217D01*
X130822500Y-102220023D01*
X130884855Y-102251546D01*
X130901575Y-102270842D01*
X131031500Y-102456395D01*
X131031505Y-102456401D01*
X131198599Y-102623495D01*
X131295384Y-102691265D01*
X131392165Y-102759032D01*
X131392167Y-102759033D01*
X131392170Y-102759035D01*
X131606337Y-102858903D01*
X131834592Y-102920063D01*
X132011034Y-102935500D01*
X132069999Y-102940659D01*
X132070000Y-102940659D01*
X132070001Y-102940659D01*
X132128966Y-102935500D01*
X132305408Y-102920063D01*
X132533663Y-102858903D01*
X132747830Y-102759035D01*
X132941401Y-102623495D01*
X133063329Y-102501566D01*
X133124648Y-102468084D01*
X133194340Y-102473068D01*
X133250274Y-102514939D01*
X133267189Y-102545917D01*
X133316202Y-102677328D01*
X133316206Y-102677335D01*
X133402452Y-102792544D01*
X133402455Y-102792547D01*
X133517664Y-102878793D01*
X133517671Y-102878797D01*
X133652517Y-102929091D01*
X133652516Y-102929091D01*
X133659444Y-102929835D01*
X133712127Y-102935500D01*
X135507872Y-102935499D01*
X135567483Y-102929091D01*
X135702331Y-102878796D01*
X135817546Y-102792546D01*
X135903796Y-102677331D01*
X135954091Y-102542483D01*
X135960500Y-102482873D01*
X135960499Y-100687128D01*
X135954091Y-100627517D01*
X135952810Y-100624083D01*
X135903797Y-100492671D01*
X135903793Y-100492664D01*
X135817547Y-100377455D01*
X135817544Y-100377452D01*
X135702335Y-100291206D01*
X135702328Y-100291202D01*
X135567482Y-100240908D01*
X135567483Y-100240908D01*
X135507883Y-100234501D01*
X135507881Y-100234500D01*
X135507873Y-100234500D01*
X135507864Y-100234500D01*
X133712129Y-100234500D01*
X133712123Y-100234501D01*
X133652516Y-100240908D01*
X133517671Y-100291202D01*
X133517664Y-100291206D01*
X133402455Y-100377452D01*
X133402452Y-100377455D01*
X133316206Y-100492664D01*
X133316203Y-100492669D01*
X133267189Y-100624083D01*
X133225317Y-100680016D01*
X133159853Y-100704433D01*
X133091580Y-100689581D01*
X133063326Y-100668430D01*
X132941402Y-100546506D01*
X132941395Y-100546501D01*
X132747834Y-100410967D01*
X132747830Y-100410965D01*
X132729574Y-100402452D01*
X132533663Y-100311097D01*
X132533659Y-100311096D01*
X132533655Y-100311094D01*
X132305413Y-100249938D01*
X132305403Y-100249936D01*
X132070001Y-100229341D01*
X132069999Y-100229341D01*
X131834596Y-100249936D01*
X131834586Y-100249938D01*
X131606344Y-100311094D01*
X131606335Y-100311098D01*
X131392171Y-100410964D01*
X131392169Y-100410965D01*
X131198597Y-100546505D01*
X131031505Y-100713597D01*
X130901575Y-100899158D01*
X130846998Y-100942783D01*
X130777500Y-100949977D01*
X130715145Y-100918454D01*
X130698425Y-100899158D01*
X130568494Y-100713597D01*
X130401402Y-100546506D01*
X130401395Y-100546501D01*
X130207834Y-100410967D01*
X130207830Y-100410965D01*
X130189574Y-100402452D01*
X129993663Y-100311097D01*
X129993659Y-100311096D01*
X129993655Y-100311094D01*
X129765413Y-100249938D01*
X129765403Y-100249936D01*
X129530001Y-100229341D01*
X129529999Y-100229341D01*
X129294596Y-100249936D01*
X129294586Y-100249938D01*
X129066344Y-100311094D01*
X129066335Y-100311098D01*
X128852171Y-100410964D01*
X128852169Y-100410965D01*
X128658597Y-100546505D01*
X128491505Y-100713597D01*
X128361575Y-100899158D01*
X128306998Y-100942783D01*
X128237500Y-100949977D01*
X128175145Y-100918454D01*
X128158425Y-100899158D01*
X128028494Y-100713597D01*
X127861402Y-100546506D01*
X127861395Y-100546501D01*
X127667834Y-100410967D01*
X127667830Y-100410965D01*
X127649574Y-100402452D01*
X127453663Y-100311097D01*
X127453659Y-100311096D01*
X127453655Y-100311094D01*
X127225413Y-100249938D01*
X127225403Y-100249936D01*
X126990001Y-100229341D01*
X126989999Y-100229341D01*
X126754596Y-100249936D01*
X126754586Y-100249938D01*
X126526344Y-100311094D01*
X126526335Y-100311098D01*
X126312171Y-100410964D01*
X126312169Y-100410965D01*
X126118597Y-100546505D01*
X125951505Y-100713597D01*
X125821575Y-100899158D01*
X125766998Y-100942783D01*
X125697500Y-100949977D01*
X125635145Y-100918454D01*
X125618425Y-100899158D01*
X125488494Y-100713597D01*
X125321402Y-100546506D01*
X125321395Y-100546501D01*
X125127834Y-100410967D01*
X125127830Y-100410965D01*
X125109574Y-100402452D01*
X124913663Y-100311097D01*
X124913659Y-100311096D01*
X124913655Y-100311094D01*
X124685413Y-100249938D01*
X124685403Y-100249936D01*
X124450001Y-100229341D01*
X124449999Y-100229341D01*
X124214596Y-100249936D01*
X124214586Y-100249938D01*
X123986344Y-100311094D01*
X123986335Y-100311098D01*
X123772171Y-100410964D01*
X123772169Y-100410965D01*
X123578597Y-100546505D01*
X123411505Y-100713597D01*
X123281575Y-100899158D01*
X123226998Y-100942783D01*
X123157500Y-100949977D01*
X123095145Y-100918454D01*
X123078425Y-100899158D01*
X122948494Y-100713597D01*
X122781402Y-100546506D01*
X122781395Y-100546501D01*
X122587834Y-100410967D01*
X122587830Y-100410965D01*
X122569574Y-100402452D01*
X122373663Y-100311097D01*
X122373659Y-100311096D01*
X122373655Y-100311094D01*
X122145413Y-100249938D01*
X122145403Y-100249936D01*
X121910001Y-100229341D01*
X121909999Y-100229341D01*
X121674596Y-100249936D01*
X121674586Y-100249938D01*
X121446344Y-100311094D01*
X121446335Y-100311098D01*
X121232171Y-100410964D01*
X121232169Y-100410965D01*
X121038597Y-100546505D01*
X120871505Y-100713597D01*
X120741575Y-100899158D01*
X120686998Y-100942783D01*
X120617500Y-100949977D01*
X120555145Y-100918454D01*
X120538425Y-100899158D01*
X120408494Y-100713597D01*
X120241402Y-100546506D01*
X120241395Y-100546501D01*
X120047834Y-100410967D01*
X120047830Y-100410965D01*
X120029574Y-100402452D01*
X119833663Y-100311097D01*
X119833659Y-100311096D01*
X119833655Y-100311094D01*
X119605413Y-100249938D01*
X119605403Y-100249936D01*
X119370001Y-100229341D01*
X119369999Y-100229341D01*
X119134596Y-100249936D01*
X119134586Y-100249938D01*
X118906344Y-100311094D01*
X118906335Y-100311098D01*
X118692171Y-100410964D01*
X118692169Y-100410965D01*
X118498597Y-100546505D01*
X118331505Y-100713597D01*
X118201575Y-100899158D01*
X118146998Y-100942783D01*
X118077500Y-100949977D01*
X118015145Y-100918454D01*
X117998425Y-100899158D01*
X117868494Y-100713597D01*
X117701402Y-100546506D01*
X117701395Y-100546501D01*
X117507834Y-100410967D01*
X117507830Y-100410965D01*
X117489574Y-100402452D01*
X117293663Y-100311097D01*
X117293659Y-100311096D01*
X117293655Y-100311094D01*
X117065413Y-100249938D01*
X117065403Y-100249936D01*
X116830001Y-100229341D01*
X116829999Y-100229341D01*
X116594596Y-100249936D01*
X116594586Y-100249938D01*
X116366344Y-100311094D01*
X116366335Y-100311098D01*
X116152171Y-100410964D01*
X116152169Y-100410965D01*
X115958597Y-100546505D01*
X115791505Y-100713597D01*
X115655965Y-100907169D01*
X115655964Y-100907171D01*
X115556098Y-101121335D01*
X115556094Y-101121344D01*
X115494938Y-101349586D01*
X115494936Y-101349596D01*
X115474341Y-101584999D01*
X115474341Y-101585000D01*
X111760500Y-101585000D01*
X111760500Y-88885000D01*
X123104341Y-88885000D01*
X123124936Y-89120403D01*
X123124938Y-89120413D01*
X123186094Y-89348655D01*
X123186096Y-89348659D01*
X123186097Y-89348663D01*
X123190000Y-89357032D01*
X123285965Y-89562830D01*
X123285967Y-89562834D01*
X123394281Y-89717521D01*
X123421505Y-89756401D01*
X123588599Y-89923495D01*
X123685384Y-89991265D01*
X123782165Y-90059032D01*
X123782167Y-90059033D01*
X123782170Y-90059035D01*
X123996337Y-90158903D01*
X124224592Y-90220063D01*
X124401034Y-90235500D01*
X124459999Y-90240659D01*
X124460000Y-90240659D01*
X124460001Y-90240659D01*
X124518966Y-90235500D01*
X124695408Y-90220063D01*
X124923663Y-90158903D01*
X125137830Y-90059035D01*
X125331401Y-89923495D01*
X125498495Y-89756401D01*
X125628425Y-89570842D01*
X125683002Y-89527217D01*
X125752500Y-89520023D01*
X125814855Y-89551546D01*
X125831575Y-89570842D01*
X125961500Y-89756395D01*
X125961505Y-89756401D01*
X126128599Y-89923495D01*
X126225384Y-89991265D01*
X126322165Y-90059032D01*
X126322167Y-90059033D01*
X126322170Y-90059035D01*
X126536337Y-90158903D01*
X126764592Y-90220063D01*
X126941034Y-90235500D01*
X126999999Y-90240659D01*
X127000000Y-90240659D01*
X127000001Y-90240659D01*
X127058966Y-90235500D01*
X127235408Y-90220063D01*
X127463663Y-90158903D01*
X127677830Y-90059035D01*
X127871401Y-89923495D01*
X128038495Y-89756401D01*
X128168425Y-89570842D01*
X128223002Y-89527217D01*
X128292500Y-89520023D01*
X128354855Y-89551546D01*
X128371575Y-89570842D01*
X128501500Y-89756395D01*
X128501505Y-89756401D01*
X128668599Y-89923495D01*
X128765384Y-89991265D01*
X128862165Y-90059032D01*
X128862167Y-90059033D01*
X128862170Y-90059035D01*
X129076337Y-90158903D01*
X129304592Y-90220063D01*
X129481034Y-90235500D01*
X129539999Y-90240659D01*
X129540000Y-90240659D01*
X129540001Y-90240659D01*
X129598966Y-90235500D01*
X129775408Y-90220063D01*
X130003663Y-90158903D01*
X130217830Y-90059035D01*
X130411401Y-89923495D01*
X130533329Y-89801566D01*
X130594648Y-89768084D01*
X130664340Y-89773068D01*
X130720274Y-89814939D01*
X130737189Y-89845917D01*
X130786202Y-89977328D01*
X130786206Y-89977335D01*
X130872452Y-90092544D01*
X130872455Y-90092547D01*
X130987664Y-90178793D01*
X130987671Y-90178797D01*
X131122517Y-90229091D01*
X131122516Y-90229091D01*
X131129444Y-90229835D01*
X131182127Y-90235500D01*
X132977872Y-90235499D01*
X133037483Y-90229091D01*
X133172331Y-90178796D01*
X133287546Y-90092546D01*
X133373796Y-89977331D01*
X133422810Y-89845916D01*
X133464681Y-89789984D01*
X133530145Y-89765566D01*
X133598418Y-89780417D01*
X133626673Y-89801569D01*
X133748599Y-89923495D01*
X133845384Y-89991265D01*
X133942165Y-90059032D01*
X133942167Y-90059033D01*
X133942170Y-90059035D01*
X134156337Y-90158903D01*
X134384592Y-90220063D01*
X134561034Y-90235500D01*
X134619999Y-90240659D01*
X134620000Y-90240659D01*
X134620001Y-90240659D01*
X134678966Y-90235500D01*
X134855408Y-90220063D01*
X135083663Y-90158903D01*
X135297830Y-90059035D01*
X135491401Y-89923495D01*
X135658495Y-89756401D01*
X135788425Y-89570842D01*
X135843002Y-89527217D01*
X135912500Y-89520023D01*
X135974855Y-89551546D01*
X135991575Y-89570842D01*
X136121500Y-89756395D01*
X136121505Y-89756401D01*
X136288599Y-89923495D01*
X136385384Y-89991265D01*
X136482165Y-90059032D01*
X136482167Y-90059033D01*
X136482170Y-90059035D01*
X136696337Y-90158903D01*
X136924592Y-90220063D01*
X137101034Y-90235500D01*
X137159999Y-90240659D01*
X137160000Y-90240659D01*
X137160001Y-90240659D01*
X137218966Y-90235500D01*
X137395408Y-90220063D01*
X137623663Y-90158903D01*
X137837830Y-90059035D01*
X138031401Y-89923495D01*
X138198495Y-89756401D01*
X138328425Y-89570842D01*
X138383002Y-89527217D01*
X138452500Y-89520023D01*
X138514855Y-89551546D01*
X138531575Y-89570842D01*
X138661500Y-89756395D01*
X138661505Y-89756401D01*
X138828599Y-89923495D01*
X138925384Y-89991265D01*
X139022165Y-90059032D01*
X139022167Y-90059033D01*
X139022170Y-90059035D01*
X139236337Y-90158903D01*
X139464592Y-90220063D01*
X139641034Y-90235500D01*
X139699999Y-90240659D01*
X139700000Y-90240659D01*
X139700001Y-90240659D01*
X139758966Y-90235500D01*
X139935408Y-90220063D01*
X140163663Y-90158903D01*
X140377830Y-90059035D01*
X140571401Y-89923495D01*
X140738495Y-89756401D01*
X140868425Y-89570842D01*
X140923002Y-89527217D01*
X140992500Y-89520023D01*
X141054855Y-89551546D01*
X141071575Y-89570842D01*
X141201500Y-89756395D01*
X141201505Y-89756401D01*
X141368599Y-89923495D01*
X141465384Y-89991265D01*
X141562165Y-90059032D01*
X141562167Y-90059033D01*
X141562170Y-90059035D01*
X141776337Y-90158903D01*
X142004592Y-90220063D01*
X142181034Y-90235500D01*
X142239999Y-90240659D01*
X142240000Y-90240659D01*
X142240001Y-90240659D01*
X142298966Y-90235500D01*
X142475408Y-90220063D01*
X142703663Y-90158903D01*
X142917830Y-90059035D01*
X143111401Y-89923495D01*
X143278495Y-89756401D01*
X143408425Y-89570842D01*
X143463002Y-89527217D01*
X143532500Y-89520023D01*
X143594855Y-89551546D01*
X143611575Y-89570842D01*
X143741500Y-89756395D01*
X143741505Y-89756401D01*
X143908599Y-89923495D01*
X144005384Y-89991265D01*
X144102165Y-90059032D01*
X144102167Y-90059033D01*
X144102170Y-90059035D01*
X144316337Y-90158903D01*
X144544592Y-90220063D01*
X144721034Y-90235500D01*
X144779999Y-90240659D01*
X144780000Y-90240659D01*
X144780001Y-90240659D01*
X144838966Y-90235500D01*
X145015408Y-90220063D01*
X145243663Y-90158903D01*
X145457830Y-90059035D01*
X145651401Y-89923495D01*
X145818495Y-89756401D01*
X145948425Y-89570842D01*
X146003002Y-89527217D01*
X146072500Y-89520023D01*
X146134855Y-89551546D01*
X146151575Y-89570842D01*
X146281500Y-89756395D01*
X146281505Y-89756401D01*
X146448599Y-89923495D01*
X146545384Y-89991265D01*
X146642165Y-90059032D01*
X146642167Y-90059033D01*
X146642170Y-90059035D01*
X146856337Y-90158903D01*
X147084592Y-90220063D01*
X147261034Y-90235500D01*
X147319999Y-90240659D01*
X147320000Y-90240659D01*
X147320001Y-90240659D01*
X147378966Y-90235500D01*
X147555408Y-90220063D01*
X147783663Y-90158903D01*
X147997830Y-90059035D01*
X148191401Y-89923495D01*
X148358495Y-89756401D01*
X148488425Y-89570842D01*
X148543002Y-89527217D01*
X148612500Y-89520023D01*
X148674855Y-89551546D01*
X148691575Y-89570842D01*
X148821500Y-89756395D01*
X148821505Y-89756401D01*
X148988599Y-89923495D01*
X149085384Y-89991265D01*
X149182165Y-90059032D01*
X149182167Y-90059033D01*
X149182170Y-90059035D01*
X149396337Y-90158903D01*
X149624592Y-90220063D01*
X149801034Y-90235500D01*
X149859999Y-90240659D01*
X149860000Y-90240659D01*
X149860001Y-90240659D01*
X149918966Y-90235500D01*
X150095408Y-90220063D01*
X150323663Y-90158903D01*
X150537830Y-90059035D01*
X150731401Y-89923495D01*
X150898495Y-89756401D01*
X151028425Y-89570842D01*
X151083002Y-89527217D01*
X151152500Y-89520023D01*
X151214855Y-89551546D01*
X151231575Y-89570842D01*
X151361500Y-89756395D01*
X151361505Y-89756401D01*
X151528599Y-89923495D01*
X151625384Y-89991265D01*
X151722165Y-90059032D01*
X151722167Y-90059033D01*
X151722170Y-90059035D01*
X151936337Y-90158903D01*
X152164592Y-90220063D01*
X152341034Y-90235500D01*
X152399999Y-90240659D01*
X152400000Y-90240659D01*
X152400001Y-90240659D01*
X152458966Y-90235500D01*
X152635408Y-90220063D01*
X152863663Y-90158903D01*
X153077830Y-90059035D01*
X153271401Y-89923495D01*
X153438495Y-89756401D01*
X153568425Y-89570842D01*
X153623002Y-89527217D01*
X153692500Y-89520023D01*
X153754855Y-89551546D01*
X153771575Y-89570842D01*
X153901500Y-89756395D01*
X153901505Y-89756401D01*
X154068599Y-89923495D01*
X154165384Y-89991265D01*
X154262165Y-90059032D01*
X154262167Y-90059033D01*
X154262170Y-90059035D01*
X154476337Y-90158903D01*
X154704592Y-90220063D01*
X154881034Y-90235500D01*
X154939999Y-90240659D01*
X154940000Y-90240659D01*
X154940001Y-90240659D01*
X154998966Y-90235500D01*
X155175408Y-90220063D01*
X155403663Y-90158903D01*
X155617830Y-90059035D01*
X155811401Y-89923495D01*
X155978495Y-89756401D01*
X156108425Y-89570842D01*
X156163002Y-89527217D01*
X156232500Y-89520023D01*
X156294855Y-89551546D01*
X156311575Y-89570842D01*
X156441500Y-89756395D01*
X156441505Y-89756401D01*
X156608599Y-89923495D01*
X156705384Y-89991265D01*
X156802165Y-90059032D01*
X156802167Y-90059033D01*
X156802170Y-90059035D01*
X157016337Y-90158903D01*
X157244592Y-90220063D01*
X157421034Y-90235500D01*
X157479999Y-90240659D01*
X157480000Y-90240659D01*
X157480001Y-90240659D01*
X157538966Y-90235500D01*
X157715408Y-90220063D01*
X157943663Y-90158903D01*
X158157830Y-90059035D01*
X158351401Y-89923495D01*
X158518495Y-89756401D01*
X158648425Y-89570842D01*
X158703002Y-89527217D01*
X158772500Y-89520023D01*
X158834855Y-89551546D01*
X158851575Y-89570842D01*
X158981500Y-89756395D01*
X158981505Y-89756401D01*
X159148599Y-89923495D01*
X159245384Y-89991265D01*
X159342165Y-90059032D01*
X159342167Y-90059033D01*
X159342170Y-90059035D01*
X159556337Y-90158903D01*
X159784592Y-90220063D01*
X159961034Y-90235500D01*
X160019999Y-90240659D01*
X160020000Y-90240659D01*
X160020001Y-90240659D01*
X160078966Y-90235500D01*
X160255408Y-90220063D01*
X160483663Y-90158903D01*
X160697830Y-90059035D01*
X160891401Y-89923495D01*
X161058495Y-89756401D01*
X161188425Y-89570842D01*
X161243002Y-89527217D01*
X161312500Y-89520023D01*
X161374855Y-89551546D01*
X161391575Y-89570842D01*
X161521500Y-89756395D01*
X161521505Y-89756401D01*
X161688599Y-89923495D01*
X161785384Y-89991265D01*
X161882165Y-90059032D01*
X161882167Y-90059033D01*
X161882170Y-90059035D01*
X162096337Y-90158903D01*
X162324592Y-90220063D01*
X162501034Y-90235500D01*
X162559999Y-90240659D01*
X162560000Y-90240659D01*
X162560001Y-90240659D01*
X162618966Y-90235500D01*
X162795408Y-90220063D01*
X163023663Y-90158903D01*
X163237830Y-90059035D01*
X163431401Y-89923495D01*
X163598495Y-89756401D01*
X163728425Y-89570842D01*
X163783002Y-89527217D01*
X163852500Y-89520023D01*
X163914855Y-89551546D01*
X163931575Y-89570842D01*
X164061500Y-89756395D01*
X164061505Y-89756401D01*
X164228599Y-89923495D01*
X164325384Y-89991265D01*
X164422165Y-90059032D01*
X164422167Y-90059033D01*
X164422170Y-90059035D01*
X164636337Y-90158903D01*
X164864592Y-90220063D01*
X165041034Y-90235500D01*
X165099999Y-90240659D01*
X165100000Y-90240659D01*
X165100001Y-90240659D01*
X165158966Y-90235500D01*
X165335408Y-90220063D01*
X165563663Y-90158903D01*
X165777830Y-90059035D01*
X165971401Y-89923495D01*
X166138495Y-89756401D01*
X166268425Y-89570842D01*
X166323002Y-89527217D01*
X166392500Y-89520023D01*
X166454855Y-89551546D01*
X166471575Y-89570842D01*
X166601500Y-89756395D01*
X166601505Y-89756401D01*
X166768599Y-89923495D01*
X166865384Y-89991265D01*
X166962165Y-90059032D01*
X166962167Y-90059033D01*
X166962170Y-90059035D01*
X167176337Y-90158903D01*
X167404592Y-90220063D01*
X167581034Y-90235500D01*
X167639999Y-90240659D01*
X167640000Y-90240659D01*
X167640001Y-90240659D01*
X167698966Y-90235500D01*
X167875408Y-90220063D01*
X168103663Y-90158903D01*
X168317830Y-90059035D01*
X168511401Y-89923495D01*
X168678495Y-89756401D01*
X168808425Y-89570842D01*
X168863002Y-89527217D01*
X168932500Y-89520023D01*
X168994855Y-89551546D01*
X169011575Y-89570842D01*
X169141500Y-89756395D01*
X169141505Y-89756401D01*
X169308599Y-89923495D01*
X169405384Y-89991265D01*
X169502165Y-90059032D01*
X169502167Y-90059033D01*
X169502170Y-90059035D01*
X169716337Y-90158903D01*
X169944592Y-90220063D01*
X170121034Y-90235500D01*
X170179999Y-90240659D01*
X170180000Y-90240659D01*
X170180001Y-90240659D01*
X170238966Y-90235500D01*
X170415408Y-90220063D01*
X170643663Y-90158903D01*
X170857830Y-90059035D01*
X171051401Y-89923495D01*
X171218495Y-89756401D01*
X171354035Y-89562830D01*
X171453903Y-89348663D01*
X171515063Y-89120408D01*
X171535659Y-88885000D01*
X171515063Y-88649592D01*
X171453903Y-88421337D01*
X171354035Y-88207171D01*
X171348425Y-88199158D01*
X171218494Y-88013597D01*
X171051402Y-87846506D01*
X171051395Y-87846501D01*
X170857834Y-87710967D01*
X170857830Y-87710965D01*
X170857828Y-87710964D01*
X170643663Y-87611097D01*
X170643659Y-87611096D01*
X170643655Y-87611094D01*
X170415413Y-87549938D01*
X170415403Y-87549936D01*
X170180001Y-87529341D01*
X170179999Y-87529341D01*
X169944596Y-87549936D01*
X169944586Y-87549938D01*
X169716344Y-87611094D01*
X169716335Y-87611098D01*
X169502171Y-87710964D01*
X169502169Y-87710965D01*
X169308597Y-87846505D01*
X169141505Y-88013597D01*
X169011575Y-88199158D01*
X168956998Y-88242783D01*
X168887500Y-88249977D01*
X168825145Y-88218454D01*
X168808425Y-88199158D01*
X168678494Y-88013597D01*
X168511402Y-87846506D01*
X168511395Y-87846501D01*
X168317834Y-87710967D01*
X168317830Y-87710965D01*
X168317828Y-87710964D01*
X168103663Y-87611097D01*
X168103659Y-87611096D01*
X168103655Y-87611094D01*
X167875413Y-87549938D01*
X167875403Y-87549936D01*
X167640001Y-87529341D01*
X167639999Y-87529341D01*
X167404596Y-87549936D01*
X167404586Y-87549938D01*
X167176344Y-87611094D01*
X167176335Y-87611098D01*
X166962171Y-87710964D01*
X166962169Y-87710965D01*
X166768597Y-87846505D01*
X166601505Y-88013597D01*
X166471575Y-88199158D01*
X166416998Y-88242783D01*
X166347500Y-88249977D01*
X166285145Y-88218454D01*
X166268425Y-88199158D01*
X166138494Y-88013597D01*
X165971402Y-87846506D01*
X165971395Y-87846501D01*
X165777834Y-87710967D01*
X165777830Y-87710965D01*
X165777828Y-87710964D01*
X165563663Y-87611097D01*
X165563659Y-87611096D01*
X165563655Y-87611094D01*
X165335413Y-87549938D01*
X165335403Y-87549936D01*
X165100001Y-87529341D01*
X165099999Y-87529341D01*
X164864596Y-87549936D01*
X164864586Y-87549938D01*
X164636344Y-87611094D01*
X164636335Y-87611098D01*
X164422171Y-87710964D01*
X164422169Y-87710965D01*
X164228597Y-87846505D01*
X164061505Y-88013597D01*
X163931575Y-88199158D01*
X163876998Y-88242783D01*
X163807500Y-88249977D01*
X163745145Y-88218454D01*
X163728425Y-88199158D01*
X163598494Y-88013597D01*
X163431402Y-87846506D01*
X163431395Y-87846501D01*
X163237834Y-87710967D01*
X163237830Y-87710965D01*
X163237828Y-87710964D01*
X163023663Y-87611097D01*
X163023659Y-87611096D01*
X163023655Y-87611094D01*
X162795413Y-87549938D01*
X162795403Y-87549936D01*
X162560001Y-87529341D01*
X162559999Y-87529341D01*
X162324596Y-87549936D01*
X162324586Y-87549938D01*
X162096344Y-87611094D01*
X162096335Y-87611098D01*
X161882171Y-87710964D01*
X161882169Y-87710965D01*
X161688597Y-87846505D01*
X161521505Y-88013597D01*
X161391575Y-88199158D01*
X161336998Y-88242783D01*
X161267500Y-88249977D01*
X161205145Y-88218454D01*
X161188425Y-88199158D01*
X161058494Y-88013597D01*
X160891402Y-87846506D01*
X160891395Y-87846501D01*
X160697834Y-87710967D01*
X160697830Y-87710965D01*
X160697828Y-87710964D01*
X160483663Y-87611097D01*
X160483659Y-87611096D01*
X160483655Y-87611094D01*
X160255413Y-87549938D01*
X160255403Y-87549936D01*
X160020001Y-87529341D01*
X160019999Y-87529341D01*
X159784596Y-87549936D01*
X159784586Y-87549938D01*
X159556344Y-87611094D01*
X159556335Y-87611098D01*
X159342171Y-87710964D01*
X159342169Y-87710965D01*
X159148597Y-87846505D01*
X158981505Y-88013597D01*
X158851575Y-88199158D01*
X158796998Y-88242783D01*
X158727500Y-88249977D01*
X158665145Y-88218454D01*
X158648425Y-88199158D01*
X158518494Y-88013597D01*
X158351402Y-87846506D01*
X158351395Y-87846501D01*
X158157834Y-87710967D01*
X158157830Y-87710965D01*
X158157828Y-87710964D01*
X157943663Y-87611097D01*
X157943659Y-87611096D01*
X157943655Y-87611094D01*
X157715413Y-87549938D01*
X157715403Y-87549936D01*
X157480001Y-87529341D01*
X157479999Y-87529341D01*
X157244596Y-87549936D01*
X157244586Y-87549938D01*
X157016344Y-87611094D01*
X157016335Y-87611098D01*
X156802171Y-87710964D01*
X156802169Y-87710965D01*
X156608597Y-87846505D01*
X156441505Y-88013597D01*
X156311575Y-88199158D01*
X156256998Y-88242783D01*
X156187500Y-88249977D01*
X156125145Y-88218454D01*
X156108425Y-88199158D01*
X155978494Y-88013597D01*
X155811402Y-87846506D01*
X155811395Y-87846501D01*
X155617834Y-87710967D01*
X155617830Y-87710965D01*
X155617828Y-87710964D01*
X155403663Y-87611097D01*
X155403659Y-87611096D01*
X155403655Y-87611094D01*
X155175413Y-87549938D01*
X155175403Y-87549936D01*
X154940001Y-87529341D01*
X154939999Y-87529341D01*
X154704596Y-87549936D01*
X154704586Y-87549938D01*
X154476344Y-87611094D01*
X154476335Y-87611098D01*
X154262171Y-87710964D01*
X154262169Y-87710965D01*
X154068597Y-87846505D01*
X153901505Y-88013597D01*
X153771575Y-88199158D01*
X153716998Y-88242783D01*
X153647500Y-88249977D01*
X153585145Y-88218454D01*
X153568425Y-88199158D01*
X153438494Y-88013597D01*
X153271402Y-87846506D01*
X153271395Y-87846501D01*
X153077834Y-87710967D01*
X153077830Y-87710965D01*
X153077828Y-87710964D01*
X152863663Y-87611097D01*
X152863659Y-87611096D01*
X152863655Y-87611094D01*
X152635413Y-87549938D01*
X152635403Y-87549936D01*
X152400001Y-87529341D01*
X152399999Y-87529341D01*
X152164596Y-87549936D01*
X152164586Y-87549938D01*
X151936344Y-87611094D01*
X151936335Y-87611098D01*
X151722171Y-87710964D01*
X151722169Y-87710965D01*
X151528597Y-87846505D01*
X151361505Y-88013597D01*
X151231575Y-88199158D01*
X151176998Y-88242783D01*
X151107500Y-88249977D01*
X151045145Y-88218454D01*
X151028425Y-88199158D01*
X150898494Y-88013597D01*
X150731402Y-87846506D01*
X150731395Y-87846501D01*
X150537834Y-87710967D01*
X150537830Y-87710965D01*
X150537828Y-87710964D01*
X150323663Y-87611097D01*
X150323659Y-87611096D01*
X150323655Y-87611094D01*
X150095413Y-87549938D01*
X150095403Y-87549936D01*
X149860001Y-87529341D01*
X149859999Y-87529341D01*
X149624596Y-87549936D01*
X149624586Y-87549938D01*
X149396344Y-87611094D01*
X149396335Y-87611098D01*
X149182171Y-87710964D01*
X149182169Y-87710965D01*
X148988597Y-87846505D01*
X148821505Y-88013597D01*
X148691575Y-88199158D01*
X148636998Y-88242783D01*
X148567500Y-88249977D01*
X148505145Y-88218454D01*
X148488425Y-88199158D01*
X148358494Y-88013597D01*
X148191402Y-87846506D01*
X148191395Y-87846501D01*
X147997834Y-87710967D01*
X147997830Y-87710965D01*
X147997828Y-87710964D01*
X147783663Y-87611097D01*
X147783659Y-87611096D01*
X147783655Y-87611094D01*
X147555413Y-87549938D01*
X147555403Y-87549936D01*
X147320001Y-87529341D01*
X147319999Y-87529341D01*
X147084596Y-87549936D01*
X147084586Y-87549938D01*
X146856344Y-87611094D01*
X146856335Y-87611098D01*
X146642171Y-87710964D01*
X146642169Y-87710965D01*
X146448597Y-87846505D01*
X146281505Y-88013597D01*
X146151575Y-88199158D01*
X146096998Y-88242783D01*
X146027500Y-88249977D01*
X145965145Y-88218454D01*
X145948425Y-88199158D01*
X145818494Y-88013597D01*
X145651402Y-87846506D01*
X145651395Y-87846501D01*
X145457834Y-87710967D01*
X145457830Y-87710965D01*
X145457828Y-87710964D01*
X145243663Y-87611097D01*
X145243659Y-87611096D01*
X145243655Y-87611094D01*
X145015413Y-87549938D01*
X145015403Y-87549936D01*
X144780001Y-87529341D01*
X144779999Y-87529341D01*
X144544596Y-87549936D01*
X144544586Y-87549938D01*
X144316344Y-87611094D01*
X144316335Y-87611098D01*
X144102171Y-87710964D01*
X144102169Y-87710965D01*
X143908597Y-87846505D01*
X143741505Y-88013597D01*
X143611575Y-88199158D01*
X143556998Y-88242783D01*
X143487500Y-88249977D01*
X143425145Y-88218454D01*
X143408425Y-88199158D01*
X143278494Y-88013597D01*
X143111402Y-87846506D01*
X143111395Y-87846501D01*
X142917834Y-87710967D01*
X142917830Y-87710965D01*
X142917828Y-87710964D01*
X142703663Y-87611097D01*
X142703659Y-87611096D01*
X142703655Y-87611094D01*
X142475413Y-87549938D01*
X142475403Y-87549936D01*
X142240001Y-87529341D01*
X142239999Y-87529341D01*
X142004596Y-87549936D01*
X142004586Y-87549938D01*
X141776344Y-87611094D01*
X141776335Y-87611098D01*
X141562171Y-87710964D01*
X141562169Y-87710965D01*
X141368597Y-87846505D01*
X141201505Y-88013597D01*
X141071575Y-88199158D01*
X141016998Y-88242783D01*
X140947500Y-88249977D01*
X140885145Y-88218454D01*
X140868425Y-88199158D01*
X140738494Y-88013597D01*
X140571402Y-87846506D01*
X140571395Y-87846501D01*
X140377834Y-87710967D01*
X140377830Y-87710965D01*
X140377828Y-87710964D01*
X140163663Y-87611097D01*
X140163659Y-87611096D01*
X140163655Y-87611094D01*
X139935413Y-87549938D01*
X139935403Y-87549936D01*
X139700001Y-87529341D01*
X139699999Y-87529341D01*
X139464596Y-87549936D01*
X139464586Y-87549938D01*
X139236344Y-87611094D01*
X139236335Y-87611098D01*
X139022171Y-87710964D01*
X139022169Y-87710965D01*
X138828597Y-87846505D01*
X138661505Y-88013597D01*
X138531575Y-88199158D01*
X138476998Y-88242783D01*
X138407500Y-88249977D01*
X138345145Y-88218454D01*
X138328425Y-88199158D01*
X138198494Y-88013597D01*
X138031402Y-87846506D01*
X138031395Y-87846501D01*
X137837834Y-87710967D01*
X137837830Y-87710965D01*
X137837828Y-87710964D01*
X137623663Y-87611097D01*
X137623659Y-87611096D01*
X137623655Y-87611094D01*
X137395413Y-87549938D01*
X137395403Y-87549936D01*
X137160001Y-87529341D01*
X137159999Y-87529341D01*
X136924596Y-87549936D01*
X136924586Y-87549938D01*
X136696344Y-87611094D01*
X136696335Y-87611098D01*
X136482171Y-87710964D01*
X136482169Y-87710965D01*
X136288597Y-87846505D01*
X136121505Y-88013597D01*
X135991575Y-88199158D01*
X135936998Y-88242783D01*
X135867500Y-88249977D01*
X135805145Y-88218454D01*
X135788425Y-88199158D01*
X135658494Y-88013597D01*
X135491402Y-87846506D01*
X135491395Y-87846501D01*
X135297834Y-87710967D01*
X135297830Y-87710965D01*
X135297828Y-87710964D01*
X135083663Y-87611097D01*
X135083659Y-87611096D01*
X135083655Y-87611094D01*
X134855413Y-87549938D01*
X134855403Y-87549936D01*
X134620001Y-87529341D01*
X134619999Y-87529341D01*
X134384596Y-87549936D01*
X134384586Y-87549938D01*
X134156344Y-87611094D01*
X134156335Y-87611098D01*
X133942171Y-87710964D01*
X133942169Y-87710965D01*
X133748600Y-87846503D01*
X133626673Y-87968430D01*
X133565350Y-88001914D01*
X133495658Y-87996930D01*
X133439725Y-87955058D01*
X133422810Y-87924081D01*
X133373797Y-87792671D01*
X133373793Y-87792664D01*
X133287547Y-87677455D01*
X133287544Y-87677452D01*
X133172335Y-87591206D01*
X133172328Y-87591202D01*
X133037482Y-87540908D01*
X133037483Y-87540908D01*
X132977883Y-87534501D01*
X132977881Y-87534500D01*
X132977873Y-87534500D01*
X132977864Y-87534500D01*
X131182129Y-87534500D01*
X131182123Y-87534501D01*
X131122516Y-87540908D01*
X130987671Y-87591202D01*
X130987664Y-87591206D01*
X130872455Y-87677452D01*
X130872452Y-87677455D01*
X130786206Y-87792664D01*
X130786203Y-87792669D01*
X130737189Y-87924083D01*
X130695317Y-87980016D01*
X130629853Y-88004433D01*
X130561580Y-87989581D01*
X130533326Y-87968430D01*
X130411402Y-87846506D01*
X130411395Y-87846501D01*
X130217834Y-87710967D01*
X130217830Y-87710965D01*
X130217828Y-87710964D01*
X130003663Y-87611097D01*
X130003659Y-87611096D01*
X130003655Y-87611094D01*
X129775413Y-87549938D01*
X129775403Y-87549936D01*
X129540001Y-87529341D01*
X129539999Y-87529341D01*
X129304596Y-87549936D01*
X129304586Y-87549938D01*
X129076344Y-87611094D01*
X129076335Y-87611098D01*
X128862171Y-87710964D01*
X128862169Y-87710965D01*
X128668597Y-87846505D01*
X128501505Y-88013597D01*
X128371575Y-88199158D01*
X128316998Y-88242783D01*
X128247500Y-88249977D01*
X128185145Y-88218454D01*
X128168425Y-88199158D01*
X128038494Y-88013597D01*
X127871402Y-87846506D01*
X127871395Y-87846501D01*
X127677834Y-87710967D01*
X127677830Y-87710965D01*
X127677828Y-87710964D01*
X127463663Y-87611097D01*
X127463659Y-87611096D01*
X127463655Y-87611094D01*
X127235413Y-87549938D01*
X127235403Y-87549936D01*
X127000001Y-87529341D01*
X126999999Y-87529341D01*
X126764596Y-87549936D01*
X126764586Y-87549938D01*
X126536344Y-87611094D01*
X126536335Y-87611098D01*
X126322171Y-87710964D01*
X126322169Y-87710965D01*
X126128597Y-87846505D01*
X125961505Y-88013597D01*
X125831575Y-88199158D01*
X125776998Y-88242783D01*
X125707500Y-88249977D01*
X125645145Y-88218454D01*
X125628425Y-88199158D01*
X125498494Y-88013597D01*
X125331402Y-87846506D01*
X125331395Y-87846501D01*
X125137834Y-87710967D01*
X125137830Y-87710965D01*
X125137828Y-87710964D01*
X124923663Y-87611097D01*
X124923659Y-87611096D01*
X124923655Y-87611094D01*
X124695413Y-87549938D01*
X124695403Y-87549936D01*
X124460001Y-87529341D01*
X124459999Y-87529341D01*
X124224596Y-87549936D01*
X124224586Y-87549938D01*
X123996344Y-87611094D01*
X123996335Y-87611098D01*
X123782171Y-87710964D01*
X123782169Y-87710965D01*
X123588597Y-87846505D01*
X123421505Y-88013597D01*
X123285965Y-88207169D01*
X123285964Y-88207171D01*
X123186098Y-88421335D01*
X123186094Y-88421344D01*
X123124938Y-88649586D01*
X123124936Y-88649596D01*
X123104341Y-88884999D01*
X123104341Y-88885000D01*
X111760500Y-88885000D01*
X111760500Y-86484500D01*
X111780185Y-86417461D01*
X111832989Y-86371706D01*
X111884500Y-86360500D01*
X180215500Y-86360500D01*
X180282539Y-86380185D01*
G37*
%TD.AperFunction*%
%TA.AperFunction,NonConductor*%
G36*
X168984855Y-102276546D02*
G01*
X169001575Y-102295842D01*
X169131501Y-102481396D01*
X169131506Y-102481402D01*
X169298595Y-102648492D01*
X169298598Y-102648494D01*
X169298599Y-102648495D01*
X169366623Y-102696125D01*
X169410248Y-102750701D01*
X169419500Y-102797700D01*
X169419500Y-103787770D01*
X169399815Y-103854809D01*
X169383181Y-103875451D01*
X165401640Y-107856992D01*
X165340317Y-107890477D01*
X165313959Y-107893311D01*
X145485253Y-107893311D01*
X145467283Y-107892002D01*
X145443520Y-107888521D01*
X145396391Y-107892645D01*
X145394178Y-107892839D01*
X145383372Y-107893311D01*
X145377832Y-107893311D01*
X145347049Y-107896909D01*
X145343464Y-107897275D01*
X145268747Y-107903812D01*
X145261680Y-107905271D01*
X145261668Y-107905215D01*
X145254311Y-107906846D01*
X145254325Y-107906903D01*
X145247288Y-107908571D01*
X145176779Y-107934232D01*
X145173378Y-107935414D01*
X145102216Y-107958995D01*
X145095674Y-107962046D01*
X145095649Y-107961994D01*
X145088856Y-107965282D01*
X145088882Y-107965333D01*
X145082434Y-107968571D01*
X145019776Y-108009781D01*
X145016739Y-108011716D01*
X144952892Y-108051099D01*
X144947225Y-108055580D01*
X144947189Y-108055534D01*
X144941346Y-108060295D01*
X144941383Y-108060339D01*
X144935858Y-108064975D01*
X144884396Y-108119520D01*
X144881884Y-108122105D01*
X144284358Y-108719631D01*
X144270729Y-108731410D01*
X144251469Y-108745749D01*
X144219632Y-108783690D01*
X144212346Y-108791643D01*
X144208407Y-108795583D01*
X144189176Y-108819904D01*
X144186902Y-108822696D01*
X144138694Y-108880149D01*
X144134729Y-108886178D01*
X144134682Y-108886147D01*
X144130630Y-108892506D01*
X144130679Y-108892536D01*
X144126889Y-108898680D01*
X144095192Y-108966653D01*
X144093623Y-108969895D01*
X144059957Y-109036931D01*
X144057488Y-109043716D01*
X144057432Y-109043695D01*
X144054960Y-109050809D01*
X144055015Y-109050828D01*
X144052743Y-109057684D01*
X144037573Y-109131147D01*
X144036793Y-109134663D01*
X144019499Y-109207638D01*
X144018661Y-109214813D01*
X144018601Y-109214806D01*
X144017835Y-109222304D01*
X144017895Y-109222310D01*
X144017265Y-109229499D01*
X144019448Y-109304487D01*
X144019500Y-109308094D01*
X144019500Y-110582298D01*
X143999815Y-110649337D01*
X143966625Y-110683872D01*
X143898595Y-110731507D01*
X143731505Y-110898597D01*
X143601575Y-111084158D01*
X143546998Y-111127783D01*
X143477500Y-111134977D01*
X143415145Y-111103454D01*
X143398425Y-111084158D01*
X143268494Y-110898597D01*
X143101404Y-110731507D01*
X143033375Y-110683872D01*
X142989751Y-110629294D01*
X142980500Y-110582298D01*
X142980500Y-109592229D01*
X143000185Y-109525190D01*
X143016819Y-109504548D01*
X145054548Y-107466819D01*
X145115871Y-107433334D01*
X145142229Y-107430500D01*
X165036295Y-107430500D01*
X165054265Y-107431809D01*
X165078023Y-107435289D01*
X165127369Y-107430971D01*
X165138176Y-107430500D01*
X165143704Y-107430500D01*
X165143709Y-107430500D01*
X165174556Y-107426893D01*
X165178030Y-107426539D01*
X165252797Y-107419999D01*
X165252805Y-107419996D01*
X165259866Y-107418539D01*
X165259878Y-107418598D01*
X165267243Y-107416965D01*
X165267229Y-107416906D01*
X165274249Y-107415241D01*
X165274255Y-107415241D01*
X165344779Y-107389572D01*
X165348117Y-107388412D01*
X165419334Y-107364814D01*
X165419342Y-107364808D01*
X165425882Y-107361760D01*
X165425908Y-107361816D01*
X165432690Y-107358532D01*
X165432663Y-107358478D01*
X165439113Y-107355238D01*
X165439117Y-107355237D01*
X165501837Y-107313984D01*
X165504732Y-107312140D01*
X165568656Y-107272712D01*
X165568662Y-107272705D01*
X165574325Y-107268229D01*
X165574362Y-107268277D01*
X165580204Y-107263518D01*
X165580164Y-107263471D01*
X165585686Y-107258835D01*
X165585696Y-107258830D01*
X165637185Y-107204253D01*
X165639632Y-107201734D01*
X168115638Y-104725727D01*
X168129267Y-104713950D01*
X168148530Y-104699610D01*
X168180366Y-104661669D01*
X168187683Y-104653684D01*
X168188993Y-104652372D01*
X168191590Y-104649777D01*
X168197482Y-104642325D01*
X168210811Y-104625467D01*
X168213094Y-104622664D01*
X168244264Y-104585519D01*
X168261302Y-104565214D01*
X168261303Y-104565211D01*
X168265272Y-104559179D01*
X168265323Y-104559212D01*
X168269369Y-104552860D01*
X168269317Y-104552828D01*
X168273105Y-104546683D01*
X168273111Y-104546677D01*
X168304829Y-104478655D01*
X168306369Y-104475476D01*
X168340040Y-104408433D01*
X168340043Y-104408417D01*
X168342510Y-104401644D01*
X168342568Y-104401665D01*
X168345043Y-104394546D01*
X168344985Y-104394527D01*
X168347255Y-104387677D01*
X168349321Y-104377672D01*
X168362431Y-104314171D01*
X168363186Y-104310767D01*
X168380500Y-104237721D01*
X168380500Y-104237719D01*
X168380501Y-104237715D01*
X168381339Y-104230548D01*
X168381397Y-104230554D01*
X168382164Y-104223056D01*
X168382104Y-104223051D01*
X168382733Y-104215860D01*
X168381165Y-104161977D01*
X168380552Y-104140889D01*
X168380500Y-104137283D01*
X168380500Y-102797700D01*
X168400185Y-102730661D01*
X168433375Y-102696126D01*
X168501401Y-102648495D01*
X168668495Y-102481401D01*
X168798425Y-102295842D01*
X168853002Y-102252217D01*
X168922500Y-102245023D01*
X168984855Y-102276546D01*
G37*
%TD.AperFunction*%
M02*
