M48
; DRILL file {KiCad 7.0.10} date Wed Jan 17 15:37:31 2024
; FORMAT={-:-/ absolute / inch / decimal}
; #@! TF.CreationDate,2024-01-17T15:37:31-05:00
; #@! TF.GenerationSoftware,Kicad,Pcbnew,7.0.10
; #@! TF.FileFunction,Plated,1,4,PTH
FMAT,2
INCH
; #@! TA.AperFunction,Plated,PTH,ComponentDrill
T1C0.0394
; #@! TA.AperFunction,Plated,PTH,ComponentDrill
T2C0.0413
%
G90
G05
T1
X4.3Y-3.7
X4.3Y-3.8
X4.3Y-3.9
X4.3Y-4.0
X4.3Y-4.1
X4.3Y-4.2
T2
X4.5996Y-3.9994
X4.6996Y-3.9994
X4.7996Y-3.9994
X4.8996Y-3.9994
X4.8996Y-4.4004
X4.9Y-3.5
X4.9996Y-3.9994
X4.9996Y-4.4004
X5.0Y-3.5
X5.0996Y-3.9994
X5.0996Y-4.4004
X5.1Y-3.5
X5.1996Y-3.9994
X5.1996Y-4.4004
X5.2Y-3.5
X5.2996Y-3.9994
X5.2996Y-4.4004
X5.3Y-3.5
X5.3996Y-4.4004
X5.4Y-3.5
X5.4996Y-4.4004
X5.5Y-3.5
X5.5996Y-4.4004
X5.6Y-3.5
X5.6996Y-4.4004
X5.7Y-3.5
X5.7996Y-4.4004
X5.8Y-3.5
X5.8996Y-4.4004
X5.9Y-3.5
X5.9996Y-4.0004
X5.9996Y-4.4004
X6.0Y-3.5
X6.0996Y-4.0004
X6.0996Y-4.4004
X6.1Y-3.5
X6.1996Y-4.0004
X6.1996Y-4.4004
X6.2Y-3.5
X6.2996Y-4.0004
X6.2996Y-4.4004
X6.3Y-3.5
X6.3996Y-4.0004
X6.3996Y-4.4004
X6.4Y-3.5
X6.4996Y-4.0004
X6.4996Y-4.4004
X6.5Y-3.5
X6.5996Y-4.0004
X6.5996Y-4.4004
X6.6Y-3.5
X6.6996Y-4.0004
X6.6996Y-4.4004
X6.7Y-3.5
X6.7996Y-4.0004
X6.8996Y-4.0004
M30
