%TF.GenerationSoftware,KiCad,Pcbnew,7.0.10*%
%TF.CreationDate,2024-01-17T15:28:00-05:00*%
%TF.ProjectId,ESP32-SD,45535033-322d-4534-942e-6b696361645f,1*%
%TF.SameCoordinates,Original*%
%TF.FileFunction,Copper,L4,Bot*%
%TF.FilePolarity,Positive*%
%FSLAX46Y46*%
G04 Gerber Fmt 4.6, Leading zero omitted, Abs format (unit mm)*
G04 Created by KiCad (PCBNEW 7.0.10) date 2024-01-17 15:28:00*
%MOMM*%
%LPD*%
G01*
G04 APERTURE LIST*
%TA.AperFunction,ComponentPad*%
%ADD10R,1.700000X1.700000*%
%TD*%
%TA.AperFunction,ComponentPad*%
%ADD11O,1.700000X1.700000*%
%TD*%
%TA.AperFunction,ComponentPad*%
%ADD12C,1.700000*%
%TD*%
%TA.AperFunction,Conductor*%
%ADD13C,0.500000*%
%TD*%
G04 APERTURE END LIST*
D10*
%TO.P,SD,GND*%
%TO.N,N/C*%
X109220000Y-93980000D03*
D11*
%TO.P,SD,MISO*%
X109220000Y-96520000D03*
%TO.P,SD,CLK*%
X109220000Y-99060000D03*
%TO.P,SD,MOSI*%
X109220000Y-101600000D03*
%TO.P,SD,SS*%
X109220000Y-104140000D03*
%TO.P,SD,3v3*%
X109220000Y-106680000D03*
%TD*%
%TO.P,FZ_R,3V3*%
%TO.N,N/C*%
X152390000Y-101610000D03*
%TO.P,FZ_R,PA14*%
X154930000Y-101610000D03*
D10*
%TO.P,FZ_R,GND*%
X157470000Y-101610000D03*
D11*
%TO.P,FZ_R,PA13*%
X160010000Y-101610000D03*
%TO.P,FZ_R,Tx1*%
X162550000Y-101610000D03*
%TO.P,FZ_R,Rx1*%
X165090000Y-101610000D03*
%TO.P,FZ_R,Tx2*%
X167630000Y-101610000D03*
%TO.P,FZ_R,Rx2*%
X170170000Y-101610000D03*
%TO.P,FZ_R,PB14*%
X172710000Y-101610000D03*
D10*
%TO.P,FZ_R,GND*%
X175250000Y-101610000D03*
%TD*%
D12*
%TO.P,Bottom,CLK*%
%TO.N,N/C*%
X124450000Y-111770000D03*
D11*
%TO.P,Bottom,SDD*%
X126990000Y-111770000D03*
%TO.P,Bottom,SD1*%
X129530000Y-111770000D03*
D12*
%TO.P,Bottom,P15*%
X132070000Y-111770000D03*
D11*
%TO.P,Bottom,P2*%
X134610000Y-111770000D03*
%TO.P,Bottom,P0*%
X137150000Y-111770000D03*
%TO.P,Bottom,P4*%
X139690000Y-111770000D03*
%TO.P,Bottom,Rx2*%
X142230000Y-111770000D03*
%TO.P,Bottom,Tx2*%
X144770000Y-111770000D03*
%TO.P,Bottom,SS*%
X147310000Y-111770000D03*
%TO.P,Bottom,CLK*%
X149850000Y-111770000D03*
%TO.P,Bottom,MISO*%
X152390000Y-111770000D03*
D10*
%TO.P,Bottom,GND*%
X154930000Y-111770000D03*
D11*
%TO.P,Bottom,P21*%
X157470000Y-111770000D03*
%TO.P,Bottom,Rx*%
X160010000Y-111770000D03*
%TO.P,Bottom,Tx*%
X162550000Y-111770000D03*
%TO.P,Bottom,P22*%
X165090000Y-111770000D03*
%TO.P,Bottom,MOSI*%
X167630000Y-111770000D03*
D10*
%TO.P,Bottom,GND*%
X170170000Y-111770000D03*
%TD*%
D12*
%TO.P,Top,5V*%
%TO.N,N/C*%
X124460000Y-88900000D03*
D11*
%TO.P,Top,CND*%
X127000000Y-88900000D03*
%TO.P,Top,SD3*%
X129540000Y-88900000D03*
D12*
%TO.P,Top,SD2*%
X132080000Y-88900000D03*
D11*
%TO.P,Top,P13*%
X134620000Y-88900000D03*
D10*
%TO.P,Top,GND*%
X137160000Y-88900000D03*
D11*
%TO.P,Top,P12*%
X139700000Y-88900000D03*
%TO.P,Top,P14*%
X142240000Y-88900000D03*
%TO.P,Top,P27*%
X144780000Y-88900000D03*
%TO.P,Top,P26*%
X147320000Y-88900000D03*
%TO.P,Top,P25*%
X149860000Y-88900000D03*
%TO.P,Top,P33*%
X152400000Y-88900000D03*
%TO.P,Top,P32*%
X154940000Y-88900000D03*
%TO.P,Top,P35*%
X157480000Y-88900000D03*
%TO.P,Top,P34*%
X160020000Y-88900000D03*
%TO.P,Top,SVN*%
X162560000Y-88900000D03*
%TO.P,Top,SVP*%
X165100000Y-88900000D03*
%TO.P,Top,EN*%
X167640000Y-88900000D03*
%TO.P,Top,3v3*%
X170180000Y-88900000D03*
%TD*%
D12*
%TO.P,Left,5V*%
%TO.N,N/C*%
X116830000Y-101585000D03*
D11*
%TO.P,Left,PA7*%
X119370000Y-101585000D03*
%TO.P,Left,PA6*%
X121910000Y-101585000D03*
%TO.P,Left,PA4*%
X124450000Y-101585000D03*
%TO.P,Left,PB3*%
X126990000Y-101585000D03*
%TO.P,Left,PB2*%
X129530000Y-101585000D03*
%TO.P,Left,PC3*%
X132070000Y-101585000D03*
D10*
%TO.P,Left,GND*%
X134610000Y-101585000D03*
%TD*%
D13*
%TO.N,*%
X149860000Y-109240000D02*
X152390000Y-111770000D01*
X149860000Y-104140000D02*
X149860000Y-109240000D01*
X142240000Y-96520000D02*
X149860000Y-104140000D01*
X109220000Y-96520000D02*
X142240000Y-96520000D01*
X142240000Y-99060000D02*
X109220000Y-99060000D01*
X147320000Y-104140000D02*
X142240000Y-99060000D01*
X147320000Y-109240000D02*
X147320000Y-104140000D01*
X149850000Y-111770000D02*
X147320000Y-109240000D01*
X144760000Y-109220000D02*
X147310000Y-111770000D01*
X116840000Y-109220000D02*
X144760000Y-109220000D01*
X111760000Y-104140000D02*
X116840000Y-109220000D01*
X109220000Y-104140000D02*
X111760000Y-104140000D01*
%TD*%
%TA.AperFunction,NonConductor*%
G36*
X180282539Y-86380185D02*
G01*
X180328294Y-86432989D01*
X180339500Y-86484500D01*
X180339500Y-114175500D01*
X180319815Y-114242539D01*
X180267011Y-114288294D01*
X180215500Y-114299500D01*
X94104500Y-114299500D01*
X94037461Y-114279815D01*
X93991706Y-114227011D01*
X93980500Y-114175500D01*
X93980500Y-106680000D01*
X107864341Y-106680000D01*
X107884936Y-106915403D01*
X107884938Y-106915413D01*
X107946094Y-107143655D01*
X107946096Y-107143659D01*
X107946097Y-107143663D01*
X108045965Y-107357830D01*
X108045967Y-107357834D01*
X108154281Y-107512521D01*
X108181505Y-107551401D01*
X108348599Y-107718495D01*
X108445384Y-107786265D01*
X108542165Y-107854032D01*
X108542167Y-107854033D01*
X108542170Y-107854035D01*
X108756337Y-107953903D01*
X108984592Y-108015063D01*
X109172918Y-108031539D01*
X109219999Y-108035659D01*
X109220000Y-108035659D01*
X109220001Y-108035659D01*
X109259234Y-108032226D01*
X109455408Y-108015063D01*
X109683663Y-107953903D01*
X109897830Y-107854035D01*
X110091401Y-107718495D01*
X110258495Y-107551401D01*
X110394035Y-107357830D01*
X110493903Y-107143663D01*
X110555063Y-106915408D01*
X110575659Y-106680000D01*
X110555063Y-106444592D01*
X110493903Y-106216337D01*
X110394035Y-106002171D01*
X110258495Y-105808599D01*
X110258494Y-105808597D01*
X110091402Y-105641506D01*
X110091396Y-105641501D01*
X109905842Y-105511575D01*
X109862217Y-105456998D01*
X109855023Y-105387500D01*
X109886546Y-105325145D01*
X109905842Y-105308425D01*
X109928026Y-105292891D01*
X110091401Y-105178495D01*
X110258495Y-105011401D01*
X110306127Y-104943376D01*
X110360704Y-104899751D01*
X110407701Y-104890500D01*
X111397770Y-104890500D01*
X111464809Y-104910185D01*
X111485451Y-104926819D01*
X116264270Y-109705638D01*
X116276051Y-109719270D01*
X116290388Y-109738528D01*
X116328337Y-109770372D01*
X116336310Y-109777679D01*
X116340217Y-109781586D01*
X116340223Y-109781591D01*
X116364537Y-109800816D01*
X116367318Y-109803080D01*
X116394956Y-109826271D01*
X116424789Y-109851305D01*
X116430818Y-109855270D01*
X116430785Y-109855319D01*
X116437147Y-109859372D01*
X116437179Y-109859321D01*
X116443319Y-109863108D01*
X116443323Y-109863111D01*
X116481977Y-109881135D01*
X116511320Y-109894819D01*
X116514566Y-109896391D01*
X116581562Y-109930038D01*
X116588357Y-109932511D01*
X116588336Y-109932567D01*
X116595457Y-109935043D01*
X116595476Y-109934986D01*
X116602319Y-109937253D01*
X116602327Y-109937257D01*
X116675895Y-109952447D01*
X116679228Y-109953186D01*
X116752279Y-109970500D01*
X116752281Y-109970500D01*
X116752285Y-109970501D01*
X116759453Y-109971339D01*
X116759446Y-109971398D01*
X116766944Y-109972164D01*
X116766950Y-109972105D01*
X116774139Y-109972734D01*
X116774143Y-109972733D01*
X116774144Y-109972734D01*
X116849130Y-109970552D01*
X116852737Y-109970500D01*
X144397770Y-109970500D01*
X144464809Y-109990185D01*
X144485451Y-110006819D01*
X144695047Y-110216415D01*
X144728532Y-110277738D01*
X144723548Y-110347430D01*
X144681676Y-110403363D01*
X144618174Y-110427624D01*
X144534596Y-110434936D01*
X144534586Y-110434938D01*
X144306344Y-110496094D01*
X144306335Y-110496098D01*
X144092171Y-110595964D01*
X144092169Y-110595965D01*
X143898597Y-110731505D01*
X143731505Y-110898597D01*
X143601575Y-111084158D01*
X143546998Y-111127783D01*
X143477500Y-111134977D01*
X143415145Y-111103454D01*
X143398425Y-111084158D01*
X143268494Y-110898597D01*
X143101402Y-110731506D01*
X143101395Y-110731501D01*
X142907834Y-110595967D01*
X142907830Y-110595965D01*
X142907828Y-110595964D01*
X142693663Y-110496097D01*
X142693659Y-110496096D01*
X142693655Y-110496094D01*
X142465413Y-110434938D01*
X142465403Y-110434936D01*
X142230001Y-110414341D01*
X142229999Y-110414341D01*
X141994596Y-110434936D01*
X141994586Y-110434938D01*
X141766344Y-110496094D01*
X141766335Y-110496098D01*
X141552171Y-110595964D01*
X141552169Y-110595965D01*
X141358597Y-110731505D01*
X141191505Y-110898597D01*
X141061575Y-111084158D01*
X141006998Y-111127783D01*
X140937500Y-111134977D01*
X140875145Y-111103454D01*
X140858425Y-111084158D01*
X140728494Y-110898597D01*
X140561402Y-110731506D01*
X140561395Y-110731501D01*
X140367834Y-110595967D01*
X140367830Y-110595965D01*
X140367828Y-110595964D01*
X140153663Y-110496097D01*
X140153659Y-110496096D01*
X140153655Y-110496094D01*
X139925413Y-110434938D01*
X139925403Y-110434936D01*
X139690001Y-110414341D01*
X139689999Y-110414341D01*
X139454596Y-110434936D01*
X139454586Y-110434938D01*
X139226344Y-110496094D01*
X139226335Y-110496098D01*
X139012171Y-110595964D01*
X139012169Y-110595965D01*
X138818597Y-110731505D01*
X138651505Y-110898597D01*
X138521575Y-111084158D01*
X138466998Y-111127783D01*
X138397500Y-111134977D01*
X138335145Y-111103454D01*
X138318425Y-111084158D01*
X138188494Y-110898597D01*
X138021402Y-110731506D01*
X138021395Y-110731501D01*
X137827834Y-110595967D01*
X137827830Y-110595965D01*
X137827828Y-110595964D01*
X137613663Y-110496097D01*
X137613659Y-110496096D01*
X137613655Y-110496094D01*
X137385413Y-110434938D01*
X137385403Y-110434936D01*
X137150001Y-110414341D01*
X137149999Y-110414341D01*
X136914596Y-110434936D01*
X136914586Y-110434938D01*
X136686344Y-110496094D01*
X136686335Y-110496098D01*
X136472171Y-110595964D01*
X136472169Y-110595965D01*
X136278597Y-110731505D01*
X136111505Y-110898597D01*
X135981575Y-111084158D01*
X135926998Y-111127783D01*
X135857500Y-111134977D01*
X135795145Y-111103454D01*
X135778425Y-111084158D01*
X135648494Y-110898597D01*
X135481402Y-110731506D01*
X135481395Y-110731501D01*
X135287834Y-110595967D01*
X135287830Y-110595965D01*
X135287828Y-110595964D01*
X135073663Y-110496097D01*
X135073659Y-110496096D01*
X135073655Y-110496094D01*
X134845413Y-110434938D01*
X134845403Y-110434936D01*
X134610001Y-110414341D01*
X134609999Y-110414341D01*
X134374596Y-110434936D01*
X134374586Y-110434938D01*
X134146344Y-110496094D01*
X134146335Y-110496098D01*
X133932171Y-110595964D01*
X133932169Y-110595965D01*
X133738597Y-110731505D01*
X133571505Y-110898597D01*
X133441575Y-111084158D01*
X133386998Y-111127783D01*
X133317500Y-111134977D01*
X133255145Y-111103454D01*
X133238425Y-111084158D01*
X133108494Y-110898597D01*
X132941402Y-110731506D01*
X132941395Y-110731501D01*
X132747834Y-110595967D01*
X132747830Y-110595965D01*
X132747828Y-110595964D01*
X132533663Y-110496097D01*
X132533659Y-110496096D01*
X132533655Y-110496094D01*
X132305413Y-110434938D01*
X132305403Y-110434936D01*
X132070001Y-110414341D01*
X132069999Y-110414341D01*
X131834596Y-110434936D01*
X131834586Y-110434938D01*
X131606344Y-110496094D01*
X131606335Y-110496098D01*
X131392171Y-110595964D01*
X131392169Y-110595965D01*
X131198597Y-110731505D01*
X131031505Y-110898597D01*
X130901575Y-111084158D01*
X130846998Y-111127783D01*
X130777500Y-111134977D01*
X130715145Y-111103454D01*
X130698425Y-111084158D01*
X130568494Y-110898597D01*
X130401402Y-110731506D01*
X130401395Y-110731501D01*
X130207834Y-110595967D01*
X130207830Y-110595965D01*
X130207828Y-110595964D01*
X129993663Y-110496097D01*
X129993659Y-110496096D01*
X129993655Y-110496094D01*
X129765413Y-110434938D01*
X129765403Y-110434936D01*
X129530001Y-110414341D01*
X129529999Y-110414341D01*
X129294596Y-110434936D01*
X129294586Y-110434938D01*
X129066344Y-110496094D01*
X129066335Y-110496098D01*
X128852171Y-110595964D01*
X128852169Y-110595965D01*
X128658597Y-110731505D01*
X128491505Y-110898597D01*
X128361575Y-111084158D01*
X128306998Y-111127783D01*
X128237500Y-111134977D01*
X128175145Y-111103454D01*
X128158425Y-111084158D01*
X128028494Y-110898597D01*
X127861402Y-110731506D01*
X127861395Y-110731501D01*
X127667834Y-110595967D01*
X127667830Y-110595965D01*
X127667828Y-110595964D01*
X127453663Y-110496097D01*
X127453659Y-110496096D01*
X127453655Y-110496094D01*
X127225413Y-110434938D01*
X127225403Y-110434936D01*
X126990001Y-110414341D01*
X126989999Y-110414341D01*
X126754596Y-110434936D01*
X126754586Y-110434938D01*
X126526344Y-110496094D01*
X126526335Y-110496098D01*
X126312171Y-110595964D01*
X126312169Y-110595965D01*
X126118597Y-110731505D01*
X125951505Y-110898597D01*
X125821575Y-111084158D01*
X125766998Y-111127783D01*
X125697500Y-111134977D01*
X125635145Y-111103454D01*
X125618425Y-111084158D01*
X125488494Y-110898597D01*
X125321402Y-110731506D01*
X125321395Y-110731501D01*
X125127834Y-110595967D01*
X125127830Y-110595965D01*
X125127828Y-110595964D01*
X124913663Y-110496097D01*
X124913659Y-110496096D01*
X124913655Y-110496094D01*
X124685413Y-110434938D01*
X124685403Y-110434936D01*
X124450001Y-110414341D01*
X124449999Y-110414341D01*
X124214596Y-110434936D01*
X124214586Y-110434938D01*
X123986344Y-110496094D01*
X123986335Y-110496098D01*
X123772171Y-110595964D01*
X123772169Y-110595965D01*
X123578597Y-110731505D01*
X123411505Y-110898597D01*
X123275965Y-111092169D01*
X123275964Y-111092171D01*
X123176098Y-111306335D01*
X123176094Y-111306344D01*
X123114938Y-111534586D01*
X123114936Y-111534596D01*
X123094341Y-111769999D01*
X123094341Y-111770000D01*
X123114936Y-112005403D01*
X123114938Y-112005413D01*
X123176094Y-112233655D01*
X123176096Y-112233659D01*
X123176097Y-112233663D01*
X123180000Y-112242032D01*
X123275965Y-112447830D01*
X123275967Y-112447834D01*
X123384281Y-112602521D01*
X123411505Y-112641401D01*
X123578599Y-112808495D01*
X123675384Y-112876265D01*
X123772165Y-112944032D01*
X123772167Y-112944033D01*
X123772170Y-112944035D01*
X123986337Y-113043903D01*
X124214592Y-113105063D01*
X124391034Y-113120500D01*
X124449999Y-113125659D01*
X124450000Y-113125659D01*
X124450001Y-113125659D01*
X124508966Y-113120500D01*
X124685408Y-113105063D01*
X124913663Y-113043903D01*
X125127830Y-112944035D01*
X125321401Y-112808495D01*
X125488495Y-112641401D01*
X125618425Y-112455842D01*
X125673002Y-112412217D01*
X125742500Y-112405023D01*
X125804855Y-112436546D01*
X125821575Y-112455842D01*
X125951500Y-112641395D01*
X125951505Y-112641401D01*
X126118599Y-112808495D01*
X126215384Y-112876265D01*
X126312165Y-112944032D01*
X126312167Y-112944033D01*
X126312170Y-112944035D01*
X126526337Y-113043903D01*
X126754592Y-113105063D01*
X126931034Y-113120500D01*
X126989999Y-113125659D01*
X126990000Y-113125659D01*
X126990001Y-113125659D01*
X127048966Y-113120500D01*
X127225408Y-113105063D01*
X127453663Y-113043903D01*
X127667830Y-112944035D01*
X127861401Y-112808495D01*
X128028495Y-112641401D01*
X128158425Y-112455842D01*
X128213002Y-112412217D01*
X128282500Y-112405023D01*
X128344855Y-112436546D01*
X128361575Y-112455842D01*
X128491500Y-112641395D01*
X128491505Y-112641401D01*
X128658599Y-112808495D01*
X128755384Y-112876265D01*
X128852165Y-112944032D01*
X128852167Y-112944033D01*
X128852170Y-112944035D01*
X129066337Y-113043903D01*
X129294592Y-113105063D01*
X129471034Y-113120500D01*
X129529999Y-113125659D01*
X129530000Y-113125659D01*
X129530001Y-113125659D01*
X129588966Y-113120500D01*
X129765408Y-113105063D01*
X129993663Y-113043903D01*
X130207830Y-112944035D01*
X130401401Y-112808495D01*
X130568495Y-112641401D01*
X130698425Y-112455842D01*
X130753002Y-112412217D01*
X130822500Y-112405023D01*
X130884855Y-112436546D01*
X130901575Y-112455842D01*
X131031500Y-112641395D01*
X131031505Y-112641401D01*
X131198599Y-112808495D01*
X131295384Y-112876265D01*
X131392165Y-112944032D01*
X131392167Y-112944033D01*
X131392170Y-112944035D01*
X131606337Y-113043903D01*
X131834592Y-113105063D01*
X132011034Y-113120500D01*
X132069999Y-113125659D01*
X132070000Y-113125659D01*
X132070001Y-113125659D01*
X132128966Y-113120500D01*
X132305408Y-113105063D01*
X132533663Y-113043903D01*
X132747830Y-112944035D01*
X132941401Y-112808495D01*
X133108495Y-112641401D01*
X133238425Y-112455842D01*
X133293002Y-112412217D01*
X133362500Y-112405023D01*
X133424855Y-112436546D01*
X133441575Y-112455842D01*
X133571500Y-112641395D01*
X133571505Y-112641401D01*
X133738599Y-112808495D01*
X133835384Y-112876265D01*
X133932165Y-112944032D01*
X133932167Y-112944033D01*
X133932170Y-112944035D01*
X134146337Y-113043903D01*
X134374592Y-113105063D01*
X134551034Y-113120500D01*
X134609999Y-113125659D01*
X134610000Y-113125659D01*
X134610001Y-113125659D01*
X134668966Y-113120500D01*
X134845408Y-113105063D01*
X135073663Y-113043903D01*
X135287830Y-112944035D01*
X135481401Y-112808495D01*
X135648495Y-112641401D01*
X135778425Y-112455842D01*
X135833002Y-112412217D01*
X135902500Y-112405023D01*
X135964855Y-112436546D01*
X135981575Y-112455842D01*
X136111500Y-112641395D01*
X136111505Y-112641401D01*
X136278599Y-112808495D01*
X136375384Y-112876265D01*
X136472165Y-112944032D01*
X136472167Y-112944033D01*
X136472170Y-112944035D01*
X136686337Y-113043903D01*
X136914592Y-113105063D01*
X137091034Y-113120500D01*
X137149999Y-113125659D01*
X137150000Y-113125659D01*
X137150001Y-113125659D01*
X137208966Y-113120500D01*
X137385408Y-113105063D01*
X137613663Y-113043903D01*
X137827830Y-112944035D01*
X138021401Y-112808495D01*
X138188495Y-112641401D01*
X138318425Y-112455842D01*
X138373002Y-112412217D01*
X138442500Y-112405023D01*
X138504855Y-112436546D01*
X138521575Y-112455842D01*
X138651500Y-112641395D01*
X138651505Y-112641401D01*
X138818599Y-112808495D01*
X138915384Y-112876265D01*
X139012165Y-112944032D01*
X139012167Y-112944033D01*
X139012170Y-112944035D01*
X139226337Y-113043903D01*
X139454592Y-113105063D01*
X139631034Y-113120500D01*
X139689999Y-113125659D01*
X139690000Y-113125659D01*
X139690001Y-113125659D01*
X139748966Y-113120500D01*
X139925408Y-113105063D01*
X140153663Y-113043903D01*
X140367830Y-112944035D01*
X140561401Y-112808495D01*
X140728495Y-112641401D01*
X140858425Y-112455842D01*
X140913002Y-112412217D01*
X140982500Y-112405023D01*
X141044855Y-112436546D01*
X141061575Y-112455842D01*
X141191500Y-112641395D01*
X141191505Y-112641401D01*
X141358599Y-112808495D01*
X141455384Y-112876265D01*
X141552165Y-112944032D01*
X141552167Y-112944033D01*
X141552170Y-112944035D01*
X141766337Y-113043903D01*
X141994592Y-113105063D01*
X142171034Y-113120500D01*
X142229999Y-113125659D01*
X142230000Y-113125659D01*
X142230001Y-113125659D01*
X142288966Y-113120500D01*
X142465408Y-113105063D01*
X142693663Y-113043903D01*
X142907830Y-112944035D01*
X143101401Y-112808495D01*
X143268495Y-112641401D01*
X143398425Y-112455842D01*
X143453002Y-112412217D01*
X143522500Y-112405023D01*
X143584855Y-112436546D01*
X143601575Y-112455842D01*
X143731500Y-112641395D01*
X143731505Y-112641401D01*
X143898599Y-112808495D01*
X143995384Y-112876265D01*
X144092165Y-112944032D01*
X144092167Y-112944033D01*
X144092170Y-112944035D01*
X144306337Y-113043903D01*
X144534592Y-113105063D01*
X144711034Y-113120500D01*
X144769999Y-113125659D01*
X144770000Y-113125659D01*
X144770001Y-113125659D01*
X144828966Y-113120500D01*
X145005408Y-113105063D01*
X145233663Y-113043903D01*
X145447830Y-112944035D01*
X145641401Y-112808495D01*
X145808495Y-112641401D01*
X145938425Y-112455842D01*
X145993002Y-112412217D01*
X146062500Y-112405023D01*
X146124855Y-112436546D01*
X146141575Y-112455842D01*
X146271500Y-112641395D01*
X146271505Y-112641401D01*
X146438599Y-112808495D01*
X146535384Y-112876265D01*
X146632165Y-112944032D01*
X146632167Y-112944033D01*
X146632170Y-112944035D01*
X146846337Y-113043903D01*
X147074592Y-113105063D01*
X147251034Y-113120500D01*
X147309999Y-113125659D01*
X147310000Y-113125659D01*
X147310001Y-113125659D01*
X147368966Y-113120500D01*
X147545408Y-113105063D01*
X147773663Y-113043903D01*
X147987830Y-112944035D01*
X148181401Y-112808495D01*
X148348495Y-112641401D01*
X148478425Y-112455842D01*
X148533002Y-112412217D01*
X148602500Y-112405023D01*
X148664855Y-112436546D01*
X148681575Y-112455842D01*
X148811500Y-112641395D01*
X148811505Y-112641401D01*
X148978599Y-112808495D01*
X149075384Y-112876265D01*
X149172165Y-112944032D01*
X149172167Y-112944033D01*
X149172170Y-112944035D01*
X149386337Y-113043903D01*
X149614592Y-113105063D01*
X149791034Y-113120500D01*
X149849999Y-113125659D01*
X149850000Y-113125659D01*
X149850001Y-113125659D01*
X149908966Y-113120500D01*
X150085408Y-113105063D01*
X150313663Y-113043903D01*
X150527830Y-112944035D01*
X150721401Y-112808495D01*
X150888495Y-112641401D01*
X151018425Y-112455842D01*
X151073002Y-112412217D01*
X151142500Y-112405023D01*
X151204855Y-112436546D01*
X151221575Y-112455842D01*
X151351500Y-112641395D01*
X151351505Y-112641401D01*
X151518599Y-112808495D01*
X151615384Y-112876265D01*
X151712165Y-112944032D01*
X151712167Y-112944033D01*
X151712170Y-112944035D01*
X151926337Y-113043903D01*
X152154592Y-113105063D01*
X152331034Y-113120500D01*
X152389999Y-113125659D01*
X152390000Y-113125659D01*
X152390001Y-113125659D01*
X152448966Y-113120500D01*
X152625408Y-113105063D01*
X152853663Y-113043903D01*
X153067830Y-112944035D01*
X153261401Y-112808495D01*
X153383329Y-112686566D01*
X153444648Y-112653084D01*
X153514340Y-112658068D01*
X153570274Y-112699939D01*
X153587189Y-112730917D01*
X153636202Y-112862328D01*
X153636206Y-112862335D01*
X153722452Y-112977544D01*
X153722455Y-112977547D01*
X153837664Y-113063793D01*
X153837671Y-113063797D01*
X153972517Y-113114091D01*
X153972516Y-113114091D01*
X153979444Y-113114835D01*
X154032127Y-113120500D01*
X155827872Y-113120499D01*
X155887483Y-113114091D01*
X156022331Y-113063796D01*
X156137546Y-112977546D01*
X156223796Y-112862331D01*
X156272810Y-112730916D01*
X156314681Y-112674984D01*
X156380145Y-112650566D01*
X156448418Y-112665417D01*
X156476673Y-112686569D01*
X156598599Y-112808495D01*
X156695384Y-112876265D01*
X156792165Y-112944032D01*
X156792167Y-112944033D01*
X156792170Y-112944035D01*
X157006337Y-113043903D01*
X157234592Y-113105063D01*
X157411034Y-113120500D01*
X157469999Y-113125659D01*
X157470000Y-113125659D01*
X157470001Y-113125659D01*
X157528966Y-113120500D01*
X157705408Y-113105063D01*
X157933663Y-113043903D01*
X158147830Y-112944035D01*
X158341401Y-112808495D01*
X158508495Y-112641401D01*
X158638425Y-112455842D01*
X158693002Y-112412217D01*
X158762500Y-112405023D01*
X158824855Y-112436546D01*
X158841575Y-112455842D01*
X158971500Y-112641395D01*
X158971505Y-112641401D01*
X159138599Y-112808495D01*
X159235384Y-112876265D01*
X159332165Y-112944032D01*
X159332167Y-112944033D01*
X159332170Y-112944035D01*
X159546337Y-113043903D01*
X159774592Y-113105063D01*
X159951034Y-113120500D01*
X160009999Y-113125659D01*
X160010000Y-113125659D01*
X160010001Y-113125659D01*
X160068966Y-113120500D01*
X160245408Y-113105063D01*
X160473663Y-113043903D01*
X160687830Y-112944035D01*
X160881401Y-112808495D01*
X161048495Y-112641401D01*
X161178425Y-112455842D01*
X161233002Y-112412217D01*
X161302500Y-112405023D01*
X161364855Y-112436546D01*
X161381575Y-112455842D01*
X161511500Y-112641395D01*
X161511505Y-112641401D01*
X161678599Y-112808495D01*
X161775384Y-112876265D01*
X161872165Y-112944032D01*
X161872167Y-112944033D01*
X161872170Y-112944035D01*
X162086337Y-113043903D01*
X162314592Y-113105063D01*
X162491034Y-113120500D01*
X162549999Y-113125659D01*
X162550000Y-113125659D01*
X162550001Y-113125659D01*
X162608966Y-113120500D01*
X162785408Y-113105063D01*
X163013663Y-113043903D01*
X163227830Y-112944035D01*
X163421401Y-112808495D01*
X163588495Y-112641401D01*
X163718425Y-112455842D01*
X163773002Y-112412217D01*
X163842500Y-112405023D01*
X163904855Y-112436546D01*
X163921575Y-112455842D01*
X164051500Y-112641395D01*
X164051505Y-112641401D01*
X164218599Y-112808495D01*
X164315384Y-112876265D01*
X164412165Y-112944032D01*
X164412167Y-112944033D01*
X164412170Y-112944035D01*
X164626337Y-113043903D01*
X164854592Y-113105063D01*
X165031034Y-113120500D01*
X165089999Y-113125659D01*
X165090000Y-113125659D01*
X165090001Y-113125659D01*
X165148966Y-113120500D01*
X165325408Y-113105063D01*
X165553663Y-113043903D01*
X165767830Y-112944035D01*
X165961401Y-112808495D01*
X166128495Y-112641401D01*
X166258425Y-112455842D01*
X166313002Y-112412217D01*
X166382500Y-112405023D01*
X166444855Y-112436546D01*
X166461575Y-112455842D01*
X166591500Y-112641395D01*
X166591505Y-112641401D01*
X166758599Y-112808495D01*
X166855384Y-112876265D01*
X166952165Y-112944032D01*
X166952167Y-112944033D01*
X166952170Y-112944035D01*
X167166337Y-113043903D01*
X167394592Y-113105063D01*
X167571034Y-113120500D01*
X167629999Y-113125659D01*
X167630000Y-113125659D01*
X167630001Y-113125659D01*
X167688966Y-113120500D01*
X167865408Y-113105063D01*
X168093663Y-113043903D01*
X168307830Y-112944035D01*
X168501401Y-112808495D01*
X168623329Y-112686566D01*
X168684648Y-112653084D01*
X168754340Y-112658068D01*
X168810274Y-112699939D01*
X168827189Y-112730917D01*
X168876202Y-112862328D01*
X168876206Y-112862335D01*
X168962452Y-112977544D01*
X168962455Y-112977547D01*
X169077664Y-113063793D01*
X169077671Y-113063797D01*
X169212517Y-113114091D01*
X169212516Y-113114091D01*
X169219444Y-113114835D01*
X169272127Y-113120500D01*
X171067872Y-113120499D01*
X171127483Y-113114091D01*
X171262331Y-113063796D01*
X171377546Y-112977546D01*
X171463796Y-112862331D01*
X171514091Y-112727483D01*
X171520500Y-112667873D01*
X171520499Y-110872128D01*
X171514091Y-110812517D01*
X171512810Y-110809083D01*
X171463797Y-110677671D01*
X171463793Y-110677664D01*
X171377547Y-110562455D01*
X171377544Y-110562452D01*
X171262335Y-110476206D01*
X171262328Y-110476202D01*
X171127482Y-110425908D01*
X171127483Y-110425908D01*
X171067883Y-110419501D01*
X171067881Y-110419500D01*
X171067873Y-110419500D01*
X171067864Y-110419500D01*
X169272129Y-110419500D01*
X169272123Y-110419501D01*
X169212516Y-110425908D01*
X169077671Y-110476202D01*
X169077664Y-110476206D01*
X168962455Y-110562452D01*
X168962452Y-110562455D01*
X168876206Y-110677664D01*
X168876203Y-110677669D01*
X168827189Y-110809083D01*
X168785317Y-110865016D01*
X168719853Y-110889433D01*
X168651580Y-110874581D01*
X168623326Y-110853430D01*
X168501402Y-110731506D01*
X168501395Y-110731501D01*
X168307834Y-110595967D01*
X168307830Y-110595965D01*
X168307828Y-110595964D01*
X168093663Y-110496097D01*
X168093659Y-110496096D01*
X168093655Y-110496094D01*
X167865413Y-110434938D01*
X167865403Y-110434936D01*
X167630001Y-110414341D01*
X167629999Y-110414341D01*
X167394596Y-110434936D01*
X167394586Y-110434938D01*
X167166344Y-110496094D01*
X167166335Y-110496098D01*
X166952171Y-110595964D01*
X166952169Y-110595965D01*
X166758597Y-110731505D01*
X166591505Y-110898597D01*
X166461575Y-111084158D01*
X166406998Y-111127783D01*
X166337500Y-111134977D01*
X166275145Y-111103454D01*
X166258425Y-111084158D01*
X166128494Y-110898597D01*
X165961402Y-110731506D01*
X165961395Y-110731501D01*
X165767834Y-110595967D01*
X165767830Y-110595965D01*
X165767828Y-110595964D01*
X165553663Y-110496097D01*
X165553659Y-110496096D01*
X165553655Y-110496094D01*
X165325413Y-110434938D01*
X165325403Y-110434936D01*
X165090001Y-110414341D01*
X165089999Y-110414341D01*
X164854596Y-110434936D01*
X164854586Y-110434938D01*
X164626344Y-110496094D01*
X164626335Y-110496098D01*
X164412171Y-110595964D01*
X164412169Y-110595965D01*
X164218597Y-110731505D01*
X164051505Y-110898597D01*
X163921575Y-111084158D01*
X163866998Y-111127783D01*
X163797500Y-111134977D01*
X163735145Y-111103454D01*
X163718425Y-111084158D01*
X163588494Y-110898597D01*
X163421402Y-110731506D01*
X163421395Y-110731501D01*
X163227834Y-110595967D01*
X163227830Y-110595965D01*
X163227828Y-110595964D01*
X163013663Y-110496097D01*
X163013659Y-110496096D01*
X163013655Y-110496094D01*
X162785413Y-110434938D01*
X162785403Y-110434936D01*
X162550001Y-110414341D01*
X162549999Y-110414341D01*
X162314596Y-110434936D01*
X162314586Y-110434938D01*
X162086344Y-110496094D01*
X162086335Y-110496098D01*
X161872171Y-110595964D01*
X161872169Y-110595965D01*
X161678597Y-110731505D01*
X161511505Y-110898597D01*
X161381575Y-111084158D01*
X161326998Y-111127783D01*
X161257500Y-111134977D01*
X161195145Y-111103454D01*
X161178425Y-111084158D01*
X161048494Y-110898597D01*
X160881402Y-110731506D01*
X160881395Y-110731501D01*
X160687834Y-110595967D01*
X160687830Y-110595965D01*
X160687828Y-110595964D01*
X160473663Y-110496097D01*
X160473659Y-110496096D01*
X160473655Y-110496094D01*
X160245413Y-110434938D01*
X160245403Y-110434936D01*
X160010001Y-110414341D01*
X160009999Y-110414341D01*
X159774596Y-110434936D01*
X159774586Y-110434938D01*
X159546344Y-110496094D01*
X159546335Y-110496098D01*
X159332171Y-110595964D01*
X159332169Y-110595965D01*
X159138597Y-110731505D01*
X158971505Y-110898597D01*
X158841575Y-111084158D01*
X158786998Y-111127783D01*
X158717500Y-111134977D01*
X158655145Y-111103454D01*
X158638425Y-111084158D01*
X158508494Y-110898597D01*
X158341402Y-110731506D01*
X158341395Y-110731501D01*
X158147834Y-110595967D01*
X158147830Y-110595965D01*
X158147828Y-110595964D01*
X157933663Y-110496097D01*
X157933659Y-110496096D01*
X157933655Y-110496094D01*
X157705413Y-110434938D01*
X157705403Y-110434936D01*
X157470001Y-110414341D01*
X157469999Y-110414341D01*
X157234596Y-110434936D01*
X157234586Y-110434938D01*
X157006344Y-110496094D01*
X157006335Y-110496098D01*
X156792171Y-110595964D01*
X156792169Y-110595965D01*
X156598600Y-110731503D01*
X156476673Y-110853430D01*
X156415350Y-110886914D01*
X156345658Y-110881930D01*
X156289725Y-110840058D01*
X156272810Y-110809081D01*
X156223797Y-110677671D01*
X156223793Y-110677664D01*
X156137547Y-110562455D01*
X156137544Y-110562452D01*
X156022335Y-110476206D01*
X156022328Y-110476202D01*
X155887482Y-110425908D01*
X155887483Y-110425908D01*
X155827883Y-110419501D01*
X155827881Y-110419500D01*
X155827873Y-110419500D01*
X155827864Y-110419500D01*
X154032129Y-110419500D01*
X154032123Y-110419501D01*
X153972516Y-110425908D01*
X153837671Y-110476202D01*
X153837664Y-110476206D01*
X153722455Y-110562452D01*
X153722452Y-110562455D01*
X153636206Y-110677664D01*
X153636203Y-110677669D01*
X153587189Y-110809083D01*
X153545317Y-110865016D01*
X153479853Y-110889433D01*
X153411580Y-110874581D01*
X153383326Y-110853430D01*
X153261402Y-110731506D01*
X153261395Y-110731501D01*
X153067834Y-110595967D01*
X153067830Y-110595965D01*
X153067828Y-110595964D01*
X152853663Y-110496097D01*
X152853659Y-110496096D01*
X152853655Y-110496094D01*
X152625413Y-110434938D01*
X152625403Y-110434936D01*
X152390001Y-110414341D01*
X152389998Y-110414341D01*
X152176986Y-110432977D01*
X152108486Y-110419210D01*
X152078498Y-110397130D01*
X150646819Y-108965451D01*
X150613334Y-108904128D01*
X150610500Y-108877770D01*
X150610500Y-104203705D01*
X150611809Y-104185735D01*
X150615289Y-104161974D01*
X150610972Y-104112635D01*
X150610500Y-104101826D01*
X150610500Y-104096296D01*
X150610500Y-104096291D01*
X150606898Y-104065478D01*
X150606534Y-104061915D01*
X150599998Y-103987206D01*
X150599998Y-103987202D01*
X150599995Y-103987195D01*
X150598538Y-103980133D01*
X150598597Y-103980120D01*
X150596967Y-103972764D01*
X150596908Y-103972779D01*
X150595241Y-103965747D01*
X150595241Y-103965745D01*
X150569563Y-103895196D01*
X150568424Y-103891918D01*
X150544814Y-103820665D01*
X150544813Y-103820663D01*
X150541763Y-103814121D01*
X150541817Y-103814095D01*
X150538533Y-103807312D01*
X150538480Y-103807340D01*
X150535238Y-103800885D01*
X150535235Y-103800880D01*
X150494025Y-103738223D01*
X150492107Y-103735212D01*
X150452714Y-103671347D01*
X150452713Y-103671346D01*
X150452712Y-103671344D01*
X150452710Y-103671342D01*
X150448234Y-103665681D01*
X150448280Y-103665643D01*
X150443519Y-103659799D01*
X150443474Y-103659838D01*
X150438831Y-103654305D01*
X150384290Y-103602848D01*
X150381703Y-103600335D01*
X148391368Y-101610000D01*
X151034341Y-101610000D01*
X151054936Y-101845403D01*
X151054938Y-101845413D01*
X151116094Y-102073655D01*
X151116096Y-102073659D01*
X151116097Y-102073663D01*
X151199358Y-102252217D01*
X151215965Y-102287830D01*
X151215967Y-102287834D01*
X151324281Y-102442521D01*
X151351505Y-102481401D01*
X151518599Y-102648495D01*
X151615384Y-102716265D01*
X151712165Y-102784032D01*
X151712167Y-102784033D01*
X151712170Y-102784035D01*
X151926337Y-102883903D01*
X152154592Y-102945063D01*
X152331034Y-102960500D01*
X152389999Y-102965659D01*
X152390000Y-102965659D01*
X152390001Y-102965659D01*
X152448966Y-102960500D01*
X152625408Y-102945063D01*
X152853663Y-102883903D01*
X153067830Y-102784035D01*
X153261401Y-102648495D01*
X153428495Y-102481401D01*
X153558425Y-102295842D01*
X153613002Y-102252217D01*
X153682500Y-102245023D01*
X153744855Y-102276546D01*
X153761575Y-102295842D01*
X153891500Y-102481395D01*
X153891505Y-102481401D01*
X154058599Y-102648495D01*
X154155384Y-102716265D01*
X154252165Y-102784032D01*
X154252167Y-102784033D01*
X154252170Y-102784035D01*
X154466337Y-102883903D01*
X154694592Y-102945063D01*
X154871034Y-102960500D01*
X154929999Y-102965659D01*
X154930000Y-102965659D01*
X154930001Y-102965659D01*
X154988966Y-102960500D01*
X155165408Y-102945063D01*
X155393663Y-102883903D01*
X155607830Y-102784035D01*
X155801401Y-102648495D01*
X155923329Y-102526566D01*
X155984648Y-102493084D01*
X156054340Y-102498068D01*
X156110274Y-102539939D01*
X156127189Y-102570917D01*
X156176202Y-102702328D01*
X156176206Y-102702335D01*
X156262452Y-102817544D01*
X156262455Y-102817547D01*
X156377664Y-102903793D01*
X156377671Y-102903797D01*
X156512517Y-102954091D01*
X156512516Y-102954091D01*
X156519444Y-102954835D01*
X156572127Y-102960500D01*
X158367872Y-102960499D01*
X158427483Y-102954091D01*
X158562331Y-102903796D01*
X158677546Y-102817546D01*
X158763796Y-102702331D01*
X158812810Y-102570916D01*
X158854681Y-102514984D01*
X158920145Y-102490566D01*
X158988418Y-102505417D01*
X159016673Y-102526569D01*
X159138599Y-102648495D01*
X159235384Y-102716265D01*
X159332165Y-102784032D01*
X159332167Y-102784033D01*
X159332170Y-102784035D01*
X159546337Y-102883903D01*
X159774592Y-102945063D01*
X159951034Y-102960500D01*
X160009999Y-102965659D01*
X160010000Y-102965659D01*
X160010001Y-102965659D01*
X160068966Y-102960500D01*
X160245408Y-102945063D01*
X160473663Y-102883903D01*
X160687830Y-102784035D01*
X160881401Y-102648495D01*
X161048495Y-102481401D01*
X161178425Y-102295842D01*
X161233002Y-102252217D01*
X161302500Y-102245023D01*
X161364855Y-102276546D01*
X161381575Y-102295842D01*
X161511500Y-102481395D01*
X161511505Y-102481401D01*
X161678599Y-102648495D01*
X161775384Y-102716265D01*
X161872165Y-102784032D01*
X161872167Y-102784033D01*
X161872170Y-102784035D01*
X162086337Y-102883903D01*
X162314592Y-102945063D01*
X162491034Y-102960500D01*
X162549999Y-102965659D01*
X162550000Y-102965659D01*
X162550001Y-102965659D01*
X162608966Y-102960500D01*
X162785408Y-102945063D01*
X163013663Y-102883903D01*
X163227830Y-102784035D01*
X163421401Y-102648495D01*
X163588495Y-102481401D01*
X163718425Y-102295842D01*
X163773002Y-102252217D01*
X163842500Y-102245023D01*
X163904855Y-102276546D01*
X163921575Y-102295842D01*
X164051500Y-102481395D01*
X164051505Y-102481401D01*
X164218599Y-102648495D01*
X164315384Y-102716265D01*
X164412165Y-102784032D01*
X164412167Y-102784033D01*
X164412170Y-102784035D01*
X164626337Y-102883903D01*
X164854592Y-102945063D01*
X165031034Y-102960500D01*
X165089999Y-102965659D01*
X165090000Y-102965659D01*
X165090001Y-102965659D01*
X165148966Y-102960500D01*
X165325408Y-102945063D01*
X165553663Y-102883903D01*
X165767830Y-102784035D01*
X165961401Y-102648495D01*
X166128495Y-102481401D01*
X166258425Y-102295842D01*
X166313002Y-102252217D01*
X166382500Y-102245023D01*
X166444855Y-102276546D01*
X166461575Y-102295842D01*
X166591500Y-102481395D01*
X166591505Y-102481401D01*
X166758599Y-102648495D01*
X166855384Y-102716265D01*
X166952165Y-102784032D01*
X166952167Y-102784033D01*
X166952170Y-102784035D01*
X167166337Y-102883903D01*
X167394592Y-102945063D01*
X167571034Y-102960500D01*
X167629999Y-102965659D01*
X167630000Y-102965659D01*
X167630001Y-102965659D01*
X167688966Y-102960500D01*
X167865408Y-102945063D01*
X168093663Y-102883903D01*
X168307830Y-102784035D01*
X168501401Y-102648495D01*
X168668495Y-102481401D01*
X168798425Y-102295842D01*
X168853002Y-102252217D01*
X168922500Y-102245023D01*
X168984855Y-102276546D01*
X169001575Y-102295842D01*
X169131500Y-102481395D01*
X169131505Y-102481401D01*
X169298599Y-102648495D01*
X169395384Y-102716265D01*
X169492165Y-102784032D01*
X169492167Y-102784033D01*
X169492170Y-102784035D01*
X169706337Y-102883903D01*
X169934592Y-102945063D01*
X170111034Y-102960500D01*
X170169999Y-102965659D01*
X170170000Y-102965659D01*
X170170001Y-102965659D01*
X170228966Y-102960500D01*
X170405408Y-102945063D01*
X170633663Y-102883903D01*
X170847830Y-102784035D01*
X171041401Y-102648495D01*
X171208495Y-102481401D01*
X171338425Y-102295842D01*
X171393002Y-102252217D01*
X171462500Y-102245023D01*
X171524855Y-102276546D01*
X171541575Y-102295842D01*
X171671500Y-102481395D01*
X171671505Y-102481401D01*
X171838599Y-102648495D01*
X171935384Y-102716265D01*
X172032165Y-102784032D01*
X172032167Y-102784033D01*
X172032170Y-102784035D01*
X172246337Y-102883903D01*
X172474592Y-102945063D01*
X172651034Y-102960500D01*
X172709999Y-102965659D01*
X172710000Y-102965659D01*
X172710001Y-102965659D01*
X172768966Y-102960500D01*
X172945408Y-102945063D01*
X173173663Y-102883903D01*
X173387830Y-102784035D01*
X173581401Y-102648495D01*
X173703329Y-102526566D01*
X173764648Y-102493084D01*
X173834340Y-102498068D01*
X173890274Y-102539939D01*
X173907189Y-102570917D01*
X173956202Y-102702328D01*
X173956206Y-102702335D01*
X174042452Y-102817544D01*
X174042455Y-102817547D01*
X174157664Y-102903793D01*
X174157671Y-102903797D01*
X174292517Y-102954091D01*
X174292516Y-102954091D01*
X174299444Y-102954835D01*
X174352127Y-102960500D01*
X176147872Y-102960499D01*
X176207483Y-102954091D01*
X176342331Y-102903796D01*
X176457546Y-102817546D01*
X176543796Y-102702331D01*
X176594091Y-102567483D01*
X176600500Y-102507873D01*
X176600499Y-100712128D01*
X176594091Y-100652517D01*
X176592810Y-100649083D01*
X176543797Y-100517671D01*
X176543793Y-100517664D01*
X176457547Y-100402455D01*
X176457544Y-100402452D01*
X176342335Y-100316206D01*
X176342328Y-100316202D01*
X176207482Y-100265908D01*
X176207483Y-100265908D01*
X176147883Y-100259501D01*
X176147881Y-100259500D01*
X176147873Y-100259500D01*
X176147864Y-100259500D01*
X174352129Y-100259500D01*
X174352123Y-100259501D01*
X174292516Y-100265908D01*
X174157671Y-100316202D01*
X174157664Y-100316206D01*
X174042455Y-100402452D01*
X174042452Y-100402455D01*
X173956206Y-100517664D01*
X173956203Y-100517669D01*
X173907189Y-100649083D01*
X173865317Y-100705016D01*
X173799853Y-100729433D01*
X173731580Y-100714581D01*
X173703326Y-100693430D01*
X173581402Y-100571506D01*
X173581395Y-100571501D01*
X173567119Y-100561505D01*
X173504518Y-100517671D01*
X173387834Y-100435967D01*
X173387830Y-100435965D01*
X173366385Y-100425965D01*
X173173663Y-100336097D01*
X173173659Y-100336096D01*
X173173655Y-100336094D01*
X172945413Y-100274938D01*
X172945403Y-100274936D01*
X172710001Y-100254341D01*
X172709999Y-100254341D01*
X172474596Y-100274936D01*
X172474586Y-100274938D01*
X172246344Y-100336094D01*
X172246335Y-100336098D01*
X172032171Y-100435964D01*
X172032169Y-100435965D01*
X171838597Y-100571505D01*
X171671505Y-100738597D01*
X171541575Y-100924158D01*
X171486998Y-100967783D01*
X171417500Y-100974977D01*
X171355145Y-100943454D01*
X171338425Y-100924158D01*
X171208494Y-100738597D01*
X171041402Y-100571506D01*
X171041395Y-100571501D01*
X171027119Y-100561505D01*
X170964518Y-100517671D01*
X170847834Y-100435967D01*
X170847830Y-100435965D01*
X170826385Y-100425965D01*
X170633663Y-100336097D01*
X170633659Y-100336096D01*
X170633655Y-100336094D01*
X170405413Y-100274938D01*
X170405403Y-100274936D01*
X170170001Y-100254341D01*
X170169999Y-100254341D01*
X169934596Y-100274936D01*
X169934586Y-100274938D01*
X169706344Y-100336094D01*
X169706335Y-100336098D01*
X169492171Y-100435964D01*
X169492169Y-100435965D01*
X169298597Y-100571505D01*
X169131505Y-100738597D01*
X169001575Y-100924158D01*
X168946998Y-100967783D01*
X168877500Y-100974977D01*
X168815145Y-100943454D01*
X168798425Y-100924158D01*
X168668494Y-100738597D01*
X168501402Y-100571506D01*
X168501395Y-100571501D01*
X168487119Y-100561505D01*
X168424518Y-100517671D01*
X168307834Y-100435967D01*
X168307830Y-100435965D01*
X168286385Y-100425965D01*
X168093663Y-100336097D01*
X168093659Y-100336096D01*
X168093655Y-100336094D01*
X167865413Y-100274938D01*
X167865403Y-100274936D01*
X167630001Y-100254341D01*
X167629999Y-100254341D01*
X167394596Y-100274936D01*
X167394586Y-100274938D01*
X167166344Y-100336094D01*
X167166335Y-100336098D01*
X166952171Y-100435964D01*
X166952169Y-100435965D01*
X166758597Y-100571505D01*
X166591505Y-100738597D01*
X166461575Y-100924158D01*
X166406998Y-100967783D01*
X166337500Y-100974977D01*
X166275145Y-100943454D01*
X166258425Y-100924158D01*
X166128494Y-100738597D01*
X165961402Y-100571506D01*
X165961395Y-100571501D01*
X165947119Y-100561505D01*
X165884518Y-100517671D01*
X165767834Y-100435967D01*
X165767830Y-100435965D01*
X165746385Y-100425965D01*
X165553663Y-100336097D01*
X165553659Y-100336096D01*
X165553655Y-100336094D01*
X165325413Y-100274938D01*
X165325403Y-100274936D01*
X165090001Y-100254341D01*
X165089999Y-100254341D01*
X164854596Y-100274936D01*
X164854586Y-100274938D01*
X164626344Y-100336094D01*
X164626335Y-100336098D01*
X164412171Y-100435964D01*
X164412169Y-100435965D01*
X164218597Y-100571505D01*
X164051505Y-100738597D01*
X163921575Y-100924158D01*
X163866998Y-100967783D01*
X163797500Y-100974977D01*
X163735145Y-100943454D01*
X163718425Y-100924158D01*
X163588494Y-100738597D01*
X163421402Y-100571506D01*
X163421395Y-100571501D01*
X163407119Y-100561505D01*
X163344518Y-100517671D01*
X163227834Y-100435967D01*
X163227830Y-100435965D01*
X163206385Y-100425965D01*
X163013663Y-100336097D01*
X163013659Y-100336096D01*
X163013655Y-100336094D01*
X162785413Y-100274938D01*
X162785403Y-100274936D01*
X162550001Y-100254341D01*
X162549999Y-100254341D01*
X162314596Y-100274936D01*
X162314586Y-100274938D01*
X162086344Y-100336094D01*
X162086335Y-100336098D01*
X161872171Y-100435964D01*
X161872169Y-100435965D01*
X161678597Y-100571505D01*
X161511505Y-100738597D01*
X161381575Y-100924158D01*
X161326998Y-100967783D01*
X161257500Y-100974977D01*
X161195145Y-100943454D01*
X161178425Y-100924158D01*
X161048494Y-100738597D01*
X160881402Y-100571506D01*
X160881395Y-100571501D01*
X160867119Y-100561505D01*
X160804518Y-100517671D01*
X160687834Y-100435967D01*
X160687830Y-100435965D01*
X160666385Y-100425965D01*
X160473663Y-100336097D01*
X160473659Y-100336096D01*
X160473655Y-100336094D01*
X160245413Y-100274938D01*
X160245403Y-100274936D01*
X160010001Y-100254341D01*
X160009999Y-100254341D01*
X159774596Y-100274936D01*
X159774586Y-100274938D01*
X159546344Y-100336094D01*
X159546335Y-100336098D01*
X159332171Y-100435964D01*
X159332169Y-100435965D01*
X159138600Y-100571503D01*
X159016673Y-100693430D01*
X158955350Y-100726914D01*
X158885658Y-100721930D01*
X158829725Y-100680058D01*
X158812810Y-100649081D01*
X158763797Y-100517671D01*
X158763793Y-100517664D01*
X158677547Y-100402455D01*
X158677544Y-100402452D01*
X158562335Y-100316206D01*
X158562328Y-100316202D01*
X158427482Y-100265908D01*
X158427483Y-100265908D01*
X158367883Y-100259501D01*
X158367881Y-100259500D01*
X158367873Y-100259500D01*
X158367864Y-100259500D01*
X156572129Y-100259500D01*
X156572123Y-100259501D01*
X156512516Y-100265908D01*
X156377671Y-100316202D01*
X156377664Y-100316206D01*
X156262455Y-100402452D01*
X156262452Y-100402455D01*
X156176206Y-100517664D01*
X156176203Y-100517669D01*
X156127189Y-100649083D01*
X156085317Y-100705016D01*
X156019853Y-100729433D01*
X155951580Y-100714581D01*
X155923326Y-100693430D01*
X155801402Y-100571506D01*
X155801395Y-100571501D01*
X155787119Y-100561505D01*
X155724518Y-100517671D01*
X155607834Y-100435967D01*
X155607830Y-100435965D01*
X155586385Y-100425965D01*
X155393663Y-100336097D01*
X155393659Y-100336096D01*
X155393655Y-100336094D01*
X155165413Y-100274938D01*
X155165403Y-100274936D01*
X154930001Y-100254341D01*
X154929999Y-100254341D01*
X154694596Y-100274936D01*
X154694586Y-100274938D01*
X154466344Y-100336094D01*
X154466335Y-100336098D01*
X154252171Y-100435964D01*
X154252169Y-100435965D01*
X154058597Y-100571505D01*
X153891505Y-100738597D01*
X153761575Y-100924158D01*
X153706998Y-100967783D01*
X153637500Y-100974977D01*
X153575145Y-100943454D01*
X153558425Y-100924158D01*
X153428494Y-100738597D01*
X153261402Y-100571506D01*
X153261395Y-100571501D01*
X153247119Y-100561505D01*
X153184518Y-100517671D01*
X153067834Y-100435967D01*
X153067830Y-100435965D01*
X153046385Y-100425965D01*
X152853663Y-100336097D01*
X152853659Y-100336096D01*
X152853655Y-100336094D01*
X152625413Y-100274938D01*
X152625403Y-100274936D01*
X152390001Y-100254341D01*
X152389999Y-100254341D01*
X152154596Y-100274936D01*
X152154586Y-100274938D01*
X151926344Y-100336094D01*
X151926335Y-100336098D01*
X151712171Y-100435964D01*
X151712169Y-100435965D01*
X151518597Y-100571505D01*
X151351505Y-100738597D01*
X151215965Y-100932169D01*
X151215964Y-100932171D01*
X151116098Y-101146335D01*
X151116094Y-101146344D01*
X151054938Y-101374586D01*
X151054936Y-101374596D01*
X151034341Y-101609999D01*
X151034341Y-101610000D01*
X148391368Y-101610000D01*
X142815729Y-96034361D01*
X142803949Y-96020730D01*
X142789610Y-96001470D01*
X142751651Y-95969619D01*
X142743686Y-95962318D01*
X142739780Y-95958411D01*
X142715443Y-95939168D01*
X142712647Y-95936890D01*
X142655214Y-95888698D01*
X142649180Y-95884729D01*
X142649212Y-95884680D01*
X142642853Y-95880628D01*
X142642822Y-95880679D01*
X142636680Y-95876891D01*
X142636678Y-95876890D01*
X142636677Y-95876889D01*
X142568688Y-95845184D01*
X142565447Y-95843615D01*
X142534530Y-95828088D01*
X142498433Y-95809960D01*
X142498431Y-95809959D01*
X142498430Y-95809959D01*
X142491645Y-95807489D01*
X142491665Y-95807433D01*
X142484549Y-95804959D01*
X142484531Y-95805015D01*
X142477674Y-95802743D01*
X142404210Y-95787573D01*
X142400693Y-95786793D01*
X142327718Y-95769499D01*
X142320547Y-95768661D01*
X142320553Y-95768601D01*
X142313055Y-95767835D01*
X142313050Y-95767895D01*
X142305860Y-95767265D01*
X142230870Y-95769448D01*
X142227263Y-95769500D01*
X110407701Y-95769500D01*
X110340662Y-95749815D01*
X110306126Y-95716623D01*
X110258496Y-95648600D01*
X110258495Y-95648599D01*
X110136567Y-95526671D01*
X110103084Y-95465351D01*
X110108068Y-95395659D01*
X110149939Y-95339725D01*
X110180915Y-95322810D01*
X110312331Y-95273796D01*
X110427546Y-95187546D01*
X110513796Y-95072331D01*
X110564091Y-94937483D01*
X110570500Y-94877873D01*
X110570499Y-93082128D01*
X110564091Y-93022517D01*
X110513796Y-92887669D01*
X110513795Y-92887668D01*
X110513793Y-92887664D01*
X110427547Y-92772455D01*
X110427544Y-92772452D01*
X110312335Y-92686206D01*
X110312328Y-92686202D01*
X110177482Y-92635908D01*
X110177483Y-92635908D01*
X110117883Y-92629501D01*
X110117881Y-92629500D01*
X110117873Y-92629500D01*
X110117864Y-92629500D01*
X108322129Y-92629500D01*
X108322123Y-92629501D01*
X108262516Y-92635908D01*
X108127671Y-92686202D01*
X108127664Y-92686206D01*
X108012455Y-92772452D01*
X108012452Y-92772455D01*
X107926206Y-92887664D01*
X107926202Y-92887671D01*
X107875908Y-93022517D01*
X107869501Y-93082116D01*
X107869501Y-93082123D01*
X107869500Y-93082135D01*
X107869500Y-94877870D01*
X107869501Y-94877876D01*
X107875908Y-94937483D01*
X107926202Y-95072328D01*
X107926206Y-95072335D01*
X108012452Y-95187544D01*
X108012455Y-95187547D01*
X108127664Y-95273793D01*
X108127671Y-95273797D01*
X108259081Y-95322810D01*
X108315015Y-95364681D01*
X108339432Y-95430145D01*
X108324580Y-95498418D01*
X108303430Y-95526673D01*
X108181503Y-95648600D01*
X108045965Y-95842169D01*
X108045964Y-95842171D01*
X107946098Y-96056335D01*
X107946094Y-96056344D01*
X107884938Y-96284586D01*
X107884936Y-96284596D01*
X107864341Y-96519999D01*
X107864341Y-96520000D01*
X107884936Y-96755403D01*
X107884938Y-96755413D01*
X107946094Y-96983655D01*
X107946096Y-96983659D01*
X107946097Y-96983663D01*
X108045965Y-97197830D01*
X108045967Y-97197834D01*
X108181501Y-97391395D01*
X108181506Y-97391402D01*
X108348597Y-97558493D01*
X108348603Y-97558498D01*
X108534158Y-97688425D01*
X108577783Y-97743002D01*
X108584977Y-97812500D01*
X108553454Y-97874855D01*
X108534158Y-97891575D01*
X108348597Y-98021505D01*
X108181505Y-98188597D01*
X108045965Y-98382169D01*
X108045964Y-98382171D01*
X107946098Y-98596335D01*
X107946094Y-98596344D01*
X107884938Y-98824586D01*
X107884936Y-98824596D01*
X107864341Y-99059999D01*
X107864341Y-99060000D01*
X107884936Y-99295403D01*
X107884938Y-99295413D01*
X107946094Y-99523655D01*
X107946096Y-99523659D01*
X107946097Y-99523663D01*
X108045965Y-99737830D01*
X108045967Y-99737834D01*
X108181501Y-99931395D01*
X108181506Y-99931402D01*
X108348597Y-100098493D01*
X108348603Y-100098498D01*
X108534158Y-100228425D01*
X108577783Y-100283002D01*
X108584977Y-100352500D01*
X108553454Y-100414855D01*
X108534158Y-100431575D01*
X108348597Y-100561505D01*
X108181505Y-100728597D01*
X108045965Y-100922169D01*
X108045964Y-100922171D01*
X107946098Y-101136335D01*
X107946094Y-101136344D01*
X107884938Y-101364586D01*
X107884936Y-101364596D01*
X107864341Y-101599999D01*
X107864341Y-101600000D01*
X107884936Y-101835403D01*
X107884938Y-101835413D01*
X107946094Y-102063655D01*
X107946096Y-102063659D01*
X107946097Y-102063663D01*
X108038970Y-102262830D01*
X108045965Y-102277830D01*
X108045967Y-102277834D01*
X108154281Y-102432521D01*
X108179182Y-102468084D01*
X108181501Y-102471395D01*
X108181506Y-102471402D01*
X108348597Y-102638493D01*
X108348603Y-102638498D01*
X108534158Y-102768425D01*
X108577783Y-102823002D01*
X108584977Y-102892500D01*
X108553454Y-102954855D01*
X108534158Y-102971575D01*
X108348597Y-103101505D01*
X108181505Y-103268597D01*
X108045965Y-103462169D01*
X108045964Y-103462171D01*
X107946098Y-103676335D01*
X107946094Y-103676344D01*
X107884938Y-103904586D01*
X107884936Y-103904596D01*
X107864341Y-104139999D01*
X107864341Y-104140000D01*
X107884936Y-104375403D01*
X107884938Y-104375413D01*
X107946094Y-104603655D01*
X107946096Y-104603659D01*
X107946097Y-104603663D01*
X108045965Y-104817830D01*
X108045967Y-104817834D01*
X108181501Y-105011395D01*
X108181506Y-105011402D01*
X108348597Y-105178493D01*
X108348603Y-105178498D01*
X108534158Y-105308425D01*
X108577783Y-105363002D01*
X108584977Y-105432500D01*
X108553454Y-105494855D01*
X108534158Y-105511575D01*
X108348597Y-105641505D01*
X108181505Y-105808597D01*
X108045965Y-106002169D01*
X108045964Y-106002171D01*
X107946098Y-106216335D01*
X107946094Y-106216344D01*
X107884938Y-106444586D01*
X107884936Y-106444596D01*
X107864341Y-106679999D01*
X107864341Y-106680000D01*
X93980500Y-106680000D01*
X93980500Y-88900000D01*
X123104341Y-88900000D01*
X123124936Y-89135403D01*
X123124938Y-89135413D01*
X123186094Y-89363655D01*
X123186096Y-89363659D01*
X123186097Y-89363663D01*
X123190000Y-89372032D01*
X123285965Y-89577830D01*
X123285967Y-89577834D01*
X123394281Y-89732521D01*
X123421505Y-89771401D01*
X123588599Y-89938495D01*
X123685384Y-90006265D01*
X123782165Y-90074032D01*
X123782167Y-90074033D01*
X123782170Y-90074035D01*
X123996337Y-90173903D01*
X124224592Y-90235063D01*
X124401034Y-90250500D01*
X124459999Y-90255659D01*
X124460000Y-90255659D01*
X124460001Y-90255659D01*
X124518966Y-90250500D01*
X124695408Y-90235063D01*
X124923663Y-90173903D01*
X125137830Y-90074035D01*
X125331401Y-89938495D01*
X125498495Y-89771401D01*
X125628425Y-89585842D01*
X125683002Y-89542217D01*
X125752500Y-89535023D01*
X125814855Y-89566546D01*
X125831575Y-89585842D01*
X125961500Y-89771395D01*
X125961505Y-89771401D01*
X126128599Y-89938495D01*
X126225384Y-90006265D01*
X126322165Y-90074032D01*
X126322167Y-90074033D01*
X126322170Y-90074035D01*
X126536337Y-90173903D01*
X126764592Y-90235063D01*
X126941034Y-90250500D01*
X126999999Y-90255659D01*
X127000000Y-90255659D01*
X127000001Y-90255659D01*
X127058966Y-90250500D01*
X127235408Y-90235063D01*
X127463663Y-90173903D01*
X127677830Y-90074035D01*
X127871401Y-89938495D01*
X128038495Y-89771401D01*
X128168425Y-89585842D01*
X128223002Y-89542217D01*
X128292500Y-89535023D01*
X128354855Y-89566546D01*
X128371575Y-89585842D01*
X128501500Y-89771395D01*
X128501505Y-89771401D01*
X128668599Y-89938495D01*
X128765384Y-90006265D01*
X128862165Y-90074032D01*
X128862167Y-90074033D01*
X128862170Y-90074035D01*
X129076337Y-90173903D01*
X129304592Y-90235063D01*
X129481034Y-90250500D01*
X129539999Y-90255659D01*
X129540000Y-90255659D01*
X129540001Y-90255659D01*
X129598966Y-90250500D01*
X129775408Y-90235063D01*
X130003663Y-90173903D01*
X130217830Y-90074035D01*
X130411401Y-89938495D01*
X130578495Y-89771401D01*
X130708425Y-89585842D01*
X130763002Y-89542217D01*
X130832500Y-89535023D01*
X130894855Y-89566546D01*
X130911575Y-89585842D01*
X131041500Y-89771395D01*
X131041505Y-89771401D01*
X131208599Y-89938495D01*
X131305384Y-90006265D01*
X131402165Y-90074032D01*
X131402167Y-90074033D01*
X131402170Y-90074035D01*
X131616337Y-90173903D01*
X131844592Y-90235063D01*
X132021034Y-90250500D01*
X132079999Y-90255659D01*
X132080000Y-90255659D01*
X132080001Y-90255659D01*
X132138966Y-90250500D01*
X132315408Y-90235063D01*
X132543663Y-90173903D01*
X132757830Y-90074035D01*
X132951401Y-89938495D01*
X133118495Y-89771401D01*
X133248425Y-89585842D01*
X133303002Y-89542217D01*
X133372500Y-89535023D01*
X133434855Y-89566546D01*
X133451575Y-89585842D01*
X133581500Y-89771395D01*
X133581505Y-89771401D01*
X133748599Y-89938495D01*
X133845384Y-90006265D01*
X133942165Y-90074032D01*
X133942167Y-90074033D01*
X133942170Y-90074035D01*
X134156337Y-90173903D01*
X134384592Y-90235063D01*
X134561034Y-90250500D01*
X134619999Y-90255659D01*
X134620000Y-90255659D01*
X134620001Y-90255659D01*
X134678966Y-90250500D01*
X134855408Y-90235063D01*
X135083663Y-90173903D01*
X135297830Y-90074035D01*
X135491401Y-89938495D01*
X135613329Y-89816566D01*
X135674648Y-89783084D01*
X135744340Y-89788068D01*
X135800274Y-89829939D01*
X135817189Y-89860917D01*
X135866202Y-89992328D01*
X135866206Y-89992335D01*
X135952452Y-90107544D01*
X135952455Y-90107547D01*
X136067664Y-90193793D01*
X136067671Y-90193797D01*
X136202517Y-90244091D01*
X136202516Y-90244091D01*
X136209444Y-90244835D01*
X136262127Y-90250500D01*
X138057872Y-90250499D01*
X138117483Y-90244091D01*
X138252331Y-90193796D01*
X138367546Y-90107546D01*
X138453796Y-89992331D01*
X138502810Y-89860916D01*
X138544681Y-89804984D01*
X138610145Y-89780566D01*
X138678418Y-89795417D01*
X138706673Y-89816569D01*
X138828599Y-89938495D01*
X138925384Y-90006265D01*
X139022165Y-90074032D01*
X139022167Y-90074033D01*
X139022170Y-90074035D01*
X139236337Y-90173903D01*
X139464592Y-90235063D01*
X139641034Y-90250500D01*
X139699999Y-90255659D01*
X139700000Y-90255659D01*
X139700001Y-90255659D01*
X139758966Y-90250500D01*
X139935408Y-90235063D01*
X140163663Y-90173903D01*
X140377830Y-90074035D01*
X140571401Y-89938495D01*
X140738495Y-89771401D01*
X140868425Y-89585842D01*
X140923002Y-89542217D01*
X140992500Y-89535023D01*
X141054855Y-89566546D01*
X141071575Y-89585842D01*
X141201500Y-89771395D01*
X141201505Y-89771401D01*
X141368599Y-89938495D01*
X141465384Y-90006265D01*
X141562165Y-90074032D01*
X141562167Y-90074033D01*
X141562170Y-90074035D01*
X141776337Y-90173903D01*
X142004592Y-90235063D01*
X142181034Y-90250500D01*
X142239999Y-90255659D01*
X142240000Y-90255659D01*
X142240001Y-90255659D01*
X142298966Y-90250500D01*
X142475408Y-90235063D01*
X142703663Y-90173903D01*
X142917830Y-90074035D01*
X143111401Y-89938495D01*
X143278495Y-89771401D01*
X143408425Y-89585842D01*
X143463002Y-89542217D01*
X143532500Y-89535023D01*
X143594855Y-89566546D01*
X143611575Y-89585842D01*
X143741500Y-89771395D01*
X143741505Y-89771401D01*
X143908599Y-89938495D01*
X144005384Y-90006265D01*
X144102165Y-90074032D01*
X144102167Y-90074033D01*
X144102170Y-90074035D01*
X144316337Y-90173903D01*
X144544592Y-90235063D01*
X144721034Y-90250500D01*
X144779999Y-90255659D01*
X144780000Y-90255659D01*
X144780001Y-90255659D01*
X144838966Y-90250500D01*
X145015408Y-90235063D01*
X145243663Y-90173903D01*
X145457830Y-90074035D01*
X145651401Y-89938495D01*
X145818495Y-89771401D01*
X145948425Y-89585842D01*
X146003002Y-89542217D01*
X146072500Y-89535023D01*
X146134855Y-89566546D01*
X146151575Y-89585842D01*
X146281500Y-89771395D01*
X146281505Y-89771401D01*
X146448599Y-89938495D01*
X146545384Y-90006265D01*
X146642165Y-90074032D01*
X146642167Y-90074033D01*
X146642170Y-90074035D01*
X146856337Y-90173903D01*
X147084592Y-90235063D01*
X147261034Y-90250500D01*
X147319999Y-90255659D01*
X147320000Y-90255659D01*
X147320001Y-90255659D01*
X147378966Y-90250500D01*
X147555408Y-90235063D01*
X147783663Y-90173903D01*
X147997830Y-90074035D01*
X148191401Y-89938495D01*
X148358495Y-89771401D01*
X148488425Y-89585842D01*
X148543002Y-89542217D01*
X148612500Y-89535023D01*
X148674855Y-89566546D01*
X148691575Y-89585842D01*
X148821500Y-89771395D01*
X148821505Y-89771401D01*
X148988599Y-89938495D01*
X149085384Y-90006265D01*
X149182165Y-90074032D01*
X149182167Y-90074033D01*
X149182170Y-90074035D01*
X149396337Y-90173903D01*
X149624592Y-90235063D01*
X149801034Y-90250500D01*
X149859999Y-90255659D01*
X149860000Y-90255659D01*
X149860001Y-90255659D01*
X149918966Y-90250500D01*
X150095408Y-90235063D01*
X150323663Y-90173903D01*
X150537830Y-90074035D01*
X150731401Y-89938495D01*
X150898495Y-89771401D01*
X151028425Y-89585842D01*
X151083002Y-89542217D01*
X151152500Y-89535023D01*
X151214855Y-89566546D01*
X151231575Y-89585842D01*
X151361500Y-89771395D01*
X151361505Y-89771401D01*
X151528599Y-89938495D01*
X151625384Y-90006265D01*
X151722165Y-90074032D01*
X151722167Y-90074033D01*
X151722170Y-90074035D01*
X151936337Y-90173903D01*
X152164592Y-90235063D01*
X152341034Y-90250500D01*
X152399999Y-90255659D01*
X152400000Y-90255659D01*
X152400001Y-90255659D01*
X152458966Y-90250500D01*
X152635408Y-90235063D01*
X152863663Y-90173903D01*
X153077830Y-90074035D01*
X153271401Y-89938495D01*
X153438495Y-89771401D01*
X153568425Y-89585842D01*
X153623002Y-89542217D01*
X153692500Y-89535023D01*
X153754855Y-89566546D01*
X153771575Y-89585842D01*
X153901500Y-89771395D01*
X153901505Y-89771401D01*
X154068599Y-89938495D01*
X154165384Y-90006265D01*
X154262165Y-90074032D01*
X154262167Y-90074033D01*
X154262170Y-90074035D01*
X154476337Y-90173903D01*
X154704592Y-90235063D01*
X154881034Y-90250500D01*
X154939999Y-90255659D01*
X154940000Y-90255659D01*
X154940001Y-90255659D01*
X154998966Y-90250500D01*
X155175408Y-90235063D01*
X155403663Y-90173903D01*
X155617830Y-90074035D01*
X155811401Y-89938495D01*
X155978495Y-89771401D01*
X156108425Y-89585842D01*
X156163002Y-89542217D01*
X156232500Y-89535023D01*
X156294855Y-89566546D01*
X156311575Y-89585842D01*
X156441500Y-89771395D01*
X156441505Y-89771401D01*
X156608599Y-89938495D01*
X156705384Y-90006265D01*
X156802165Y-90074032D01*
X156802167Y-90074033D01*
X156802170Y-90074035D01*
X157016337Y-90173903D01*
X157244592Y-90235063D01*
X157421034Y-90250500D01*
X157479999Y-90255659D01*
X157480000Y-90255659D01*
X157480001Y-90255659D01*
X157538966Y-90250500D01*
X157715408Y-90235063D01*
X157943663Y-90173903D01*
X158157830Y-90074035D01*
X158351401Y-89938495D01*
X158518495Y-89771401D01*
X158648425Y-89585842D01*
X158703002Y-89542217D01*
X158772500Y-89535023D01*
X158834855Y-89566546D01*
X158851575Y-89585842D01*
X158981500Y-89771395D01*
X158981505Y-89771401D01*
X159148599Y-89938495D01*
X159245384Y-90006265D01*
X159342165Y-90074032D01*
X159342167Y-90074033D01*
X159342170Y-90074035D01*
X159556337Y-90173903D01*
X159784592Y-90235063D01*
X159961034Y-90250500D01*
X160019999Y-90255659D01*
X160020000Y-90255659D01*
X160020001Y-90255659D01*
X160078966Y-90250500D01*
X160255408Y-90235063D01*
X160483663Y-90173903D01*
X160697830Y-90074035D01*
X160891401Y-89938495D01*
X161058495Y-89771401D01*
X161188425Y-89585842D01*
X161243002Y-89542217D01*
X161312500Y-89535023D01*
X161374855Y-89566546D01*
X161391575Y-89585842D01*
X161521500Y-89771395D01*
X161521505Y-89771401D01*
X161688599Y-89938495D01*
X161785384Y-90006265D01*
X161882165Y-90074032D01*
X161882167Y-90074033D01*
X161882170Y-90074035D01*
X162096337Y-90173903D01*
X162324592Y-90235063D01*
X162501034Y-90250500D01*
X162559999Y-90255659D01*
X162560000Y-90255659D01*
X162560001Y-90255659D01*
X162618966Y-90250500D01*
X162795408Y-90235063D01*
X163023663Y-90173903D01*
X163237830Y-90074035D01*
X163431401Y-89938495D01*
X163598495Y-89771401D01*
X163728425Y-89585842D01*
X163783002Y-89542217D01*
X163852500Y-89535023D01*
X163914855Y-89566546D01*
X163931575Y-89585842D01*
X164061500Y-89771395D01*
X164061505Y-89771401D01*
X164228599Y-89938495D01*
X164325384Y-90006265D01*
X164422165Y-90074032D01*
X164422167Y-90074033D01*
X164422170Y-90074035D01*
X164636337Y-90173903D01*
X164864592Y-90235063D01*
X165041034Y-90250500D01*
X165099999Y-90255659D01*
X165100000Y-90255659D01*
X165100001Y-90255659D01*
X165158966Y-90250500D01*
X165335408Y-90235063D01*
X165563663Y-90173903D01*
X165777830Y-90074035D01*
X165971401Y-89938495D01*
X166138495Y-89771401D01*
X166268425Y-89585842D01*
X166323002Y-89542217D01*
X166392500Y-89535023D01*
X166454855Y-89566546D01*
X166471575Y-89585842D01*
X166601500Y-89771395D01*
X166601505Y-89771401D01*
X166768599Y-89938495D01*
X166865384Y-90006265D01*
X166962165Y-90074032D01*
X166962167Y-90074033D01*
X166962170Y-90074035D01*
X167176337Y-90173903D01*
X167404592Y-90235063D01*
X167581034Y-90250500D01*
X167639999Y-90255659D01*
X167640000Y-90255659D01*
X167640001Y-90255659D01*
X167698966Y-90250500D01*
X167875408Y-90235063D01*
X168103663Y-90173903D01*
X168317830Y-90074035D01*
X168511401Y-89938495D01*
X168678495Y-89771401D01*
X168808425Y-89585842D01*
X168863002Y-89542217D01*
X168932500Y-89535023D01*
X168994855Y-89566546D01*
X169011575Y-89585842D01*
X169141500Y-89771395D01*
X169141505Y-89771401D01*
X169308599Y-89938495D01*
X169405384Y-90006265D01*
X169502165Y-90074032D01*
X169502167Y-90074033D01*
X169502170Y-90074035D01*
X169716337Y-90173903D01*
X169944592Y-90235063D01*
X170121034Y-90250500D01*
X170179999Y-90255659D01*
X170180000Y-90255659D01*
X170180001Y-90255659D01*
X170238966Y-90250500D01*
X170415408Y-90235063D01*
X170643663Y-90173903D01*
X170857830Y-90074035D01*
X171051401Y-89938495D01*
X171218495Y-89771401D01*
X171354035Y-89577830D01*
X171453903Y-89363663D01*
X171515063Y-89135408D01*
X171535659Y-88900000D01*
X171515063Y-88664592D01*
X171453903Y-88436337D01*
X171354035Y-88222171D01*
X171348425Y-88214158D01*
X171218494Y-88028597D01*
X171051402Y-87861506D01*
X171051395Y-87861501D01*
X170857834Y-87725967D01*
X170857830Y-87725965D01*
X170857828Y-87725964D01*
X170643663Y-87626097D01*
X170643659Y-87626096D01*
X170643655Y-87626094D01*
X170415413Y-87564938D01*
X170415403Y-87564936D01*
X170180001Y-87544341D01*
X170179999Y-87544341D01*
X169944596Y-87564936D01*
X169944586Y-87564938D01*
X169716344Y-87626094D01*
X169716335Y-87626098D01*
X169502171Y-87725964D01*
X169502169Y-87725965D01*
X169308597Y-87861505D01*
X169141505Y-88028597D01*
X169011575Y-88214158D01*
X168956998Y-88257783D01*
X168887500Y-88264977D01*
X168825145Y-88233454D01*
X168808425Y-88214158D01*
X168678494Y-88028597D01*
X168511402Y-87861506D01*
X168511395Y-87861501D01*
X168317834Y-87725967D01*
X168317830Y-87725965D01*
X168317828Y-87725964D01*
X168103663Y-87626097D01*
X168103659Y-87626096D01*
X168103655Y-87626094D01*
X167875413Y-87564938D01*
X167875403Y-87564936D01*
X167640001Y-87544341D01*
X167639999Y-87544341D01*
X167404596Y-87564936D01*
X167404586Y-87564938D01*
X167176344Y-87626094D01*
X167176335Y-87626098D01*
X166962171Y-87725964D01*
X166962169Y-87725965D01*
X166768597Y-87861505D01*
X166601505Y-88028597D01*
X166471575Y-88214158D01*
X166416998Y-88257783D01*
X166347500Y-88264977D01*
X166285145Y-88233454D01*
X166268425Y-88214158D01*
X166138494Y-88028597D01*
X165971402Y-87861506D01*
X165971395Y-87861501D01*
X165777834Y-87725967D01*
X165777830Y-87725965D01*
X165777828Y-87725964D01*
X165563663Y-87626097D01*
X165563659Y-87626096D01*
X165563655Y-87626094D01*
X165335413Y-87564938D01*
X165335403Y-87564936D01*
X165100001Y-87544341D01*
X165099999Y-87544341D01*
X164864596Y-87564936D01*
X164864586Y-87564938D01*
X164636344Y-87626094D01*
X164636335Y-87626098D01*
X164422171Y-87725964D01*
X164422169Y-87725965D01*
X164228597Y-87861505D01*
X164061505Y-88028597D01*
X163931575Y-88214158D01*
X163876998Y-88257783D01*
X163807500Y-88264977D01*
X163745145Y-88233454D01*
X163728425Y-88214158D01*
X163598494Y-88028597D01*
X163431402Y-87861506D01*
X163431395Y-87861501D01*
X163237834Y-87725967D01*
X163237830Y-87725965D01*
X163237828Y-87725964D01*
X163023663Y-87626097D01*
X163023659Y-87626096D01*
X163023655Y-87626094D01*
X162795413Y-87564938D01*
X162795403Y-87564936D01*
X162560001Y-87544341D01*
X162559999Y-87544341D01*
X162324596Y-87564936D01*
X162324586Y-87564938D01*
X162096344Y-87626094D01*
X162096335Y-87626098D01*
X161882171Y-87725964D01*
X161882169Y-87725965D01*
X161688597Y-87861505D01*
X161521505Y-88028597D01*
X161391575Y-88214158D01*
X161336998Y-88257783D01*
X161267500Y-88264977D01*
X161205145Y-88233454D01*
X161188425Y-88214158D01*
X161058494Y-88028597D01*
X160891402Y-87861506D01*
X160891395Y-87861501D01*
X160697834Y-87725967D01*
X160697830Y-87725965D01*
X160697828Y-87725964D01*
X160483663Y-87626097D01*
X160483659Y-87626096D01*
X160483655Y-87626094D01*
X160255413Y-87564938D01*
X160255403Y-87564936D01*
X160020001Y-87544341D01*
X160019999Y-87544341D01*
X159784596Y-87564936D01*
X159784586Y-87564938D01*
X159556344Y-87626094D01*
X159556335Y-87626098D01*
X159342171Y-87725964D01*
X159342169Y-87725965D01*
X159148597Y-87861505D01*
X158981505Y-88028597D01*
X158851575Y-88214158D01*
X158796998Y-88257783D01*
X158727500Y-88264977D01*
X158665145Y-88233454D01*
X158648425Y-88214158D01*
X158518494Y-88028597D01*
X158351402Y-87861506D01*
X158351395Y-87861501D01*
X158157834Y-87725967D01*
X158157830Y-87725965D01*
X158157828Y-87725964D01*
X157943663Y-87626097D01*
X157943659Y-87626096D01*
X157943655Y-87626094D01*
X157715413Y-87564938D01*
X157715403Y-87564936D01*
X157480001Y-87544341D01*
X157479999Y-87544341D01*
X157244596Y-87564936D01*
X157244586Y-87564938D01*
X157016344Y-87626094D01*
X157016335Y-87626098D01*
X156802171Y-87725964D01*
X156802169Y-87725965D01*
X156608597Y-87861505D01*
X156441505Y-88028597D01*
X156311575Y-88214158D01*
X156256998Y-88257783D01*
X156187500Y-88264977D01*
X156125145Y-88233454D01*
X156108425Y-88214158D01*
X155978494Y-88028597D01*
X155811402Y-87861506D01*
X155811395Y-87861501D01*
X155617834Y-87725967D01*
X155617830Y-87725965D01*
X155617828Y-87725964D01*
X155403663Y-87626097D01*
X155403659Y-87626096D01*
X155403655Y-87626094D01*
X155175413Y-87564938D01*
X155175403Y-87564936D01*
X154940001Y-87544341D01*
X154939999Y-87544341D01*
X154704596Y-87564936D01*
X154704586Y-87564938D01*
X154476344Y-87626094D01*
X154476335Y-87626098D01*
X154262171Y-87725964D01*
X154262169Y-87725965D01*
X154068597Y-87861505D01*
X153901505Y-88028597D01*
X153771575Y-88214158D01*
X153716998Y-88257783D01*
X153647500Y-88264977D01*
X153585145Y-88233454D01*
X153568425Y-88214158D01*
X153438494Y-88028597D01*
X153271402Y-87861506D01*
X153271395Y-87861501D01*
X153077834Y-87725967D01*
X153077830Y-87725965D01*
X153077828Y-87725964D01*
X152863663Y-87626097D01*
X152863659Y-87626096D01*
X152863655Y-87626094D01*
X152635413Y-87564938D01*
X152635403Y-87564936D01*
X152400001Y-87544341D01*
X152399999Y-87544341D01*
X152164596Y-87564936D01*
X152164586Y-87564938D01*
X151936344Y-87626094D01*
X151936335Y-87626098D01*
X151722171Y-87725964D01*
X151722169Y-87725965D01*
X151528597Y-87861505D01*
X151361505Y-88028597D01*
X151231575Y-88214158D01*
X151176998Y-88257783D01*
X151107500Y-88264977D01*
X151045145Y-88233454D01*
X151028425Y-88214158D01*
X150898494Y-88028597D01*
X150731402Y-87861506D01*
X150731395Y-87861501D01*
X150537834Y-87725967D01*
X150537830Y-87725965D01*
X150537828Y-87725964D01*
X150323663Y-87626097D01*
X150323659Y-87626096D01*
X150323655Y-87626094D01*
X150095413Y-87564938D01*
X150095403Y-87564936D01*
X149860001Y-87544341D01*
X149859999Y-87544341D01*
X149624596Y-87564936D01*
X149624586Y-87564938D01*
X149396344Y-87626094D01*
X149396335Y-87626098D01*
X149182171Y-87725964D01*
X149182169Y-87725965D01*
X148988597Y-87861505D01*
X148821505Y-88028597D01*
X148691575Y-88214158D01*
X148636998Y-88257783D01*
X148567500Y-88264977D01*
X148505145Y-88233454D01*
X148488425Y-88214158D01*
X148358494Y-88028597D01*
X148191402Y-87861506D01*
X148191395Y-87861501D01*
X147997834Y-87725967D01*
X147997830Y-87725965D01*
X147997828Y-87725964D01*
X147783663Y-87626097D01*
X147783659Y-87626096D01*
X147783655Y-87626094D01*
X147555413Y-87564938D01*
X147555403Y-87564936D01*
X147320001Y-87544341D01*
X147319999Y-87544341D01*
X147084596Y-87564936D01*
X147084586Y-87564938D01*
X146856344Y-87626094D01*
X146856335Y-87626098D01*
X146642171Y-87725964D01*
X146642169Y-87725965D01*
X146448597Y-87861505D01*
X146281505Y-88028597D01*
X146151575Y-88214158D01*
X146096998Y-88257783D01*
X146027500Y-88264977D01*
X145965145Y-88233454D01*
X145948425Y-88214158D01*
X145818494Y-88028597D01*
X145651402Y-87861506D01*
X145651395Y-87861501D01*
X145457834Y-87725967D01*
X145457830Y-87725965D01*
X145457828Y-87725964D01*
X145243663Y-87626097D01*
X145243659Y-87626096D01*
X145243655Y-87626094D01*
X145015413Y-87564938D01*
X145015403Y-87564936D01*
X144780001Y-87544341D01*
X144779999Y-87544341D01*
X144544596Y-87564936D01*
X144544586Y-87564938D01*
X144316344Y-87626094D01*
X144316335Y-87626098D01*
X144102171Y-87725964D01*
X144102169Y-87725965D01*
X143908597Y-87861505D01*
X143741505Y-88028597D01*
X143611575Y-88214158D01*
X143556998Y-88257783D01*
X143487500Y-88264977D01*
X143425145Y-88233454D01*
X143408425Y-88214158D01*
X143278494Y-88028597D01*
X143111402Y-87861506D01*
X143111395Y-87861501D01*
X142917834Y-87725967D01*
X142917830Y-87725965D01*
X142917828Y-87725964D01*
X142703663Y-87626097D01*
X142703659Y-87626096D01*
X142703655Y-87626094D01*
X142475413Y-87564938D01*
X142475403Y-87564936D01*
X142240001Y-87544341D01*
X142239999Y-87544341D01*
X142004596Y-87564936D01*
X142004586Y-87564938D01*
X141776344Y-87626094D01*
X141776335Y-87626098D01*
X141562171Y-87725964D01*
X141562169Y-87725965D01*
X141368597Y-87861505D01*
X141201505Y-88028597D01*
X141071575Y-88214158D01*
X141016998Y-88257783D01*
X140947500Y-88264977D01*
X140885145Y-88233454D01*
X140868425Y-88214158D01*
X140738494Y-88028597D01*
X140571402Y-87861506D01*
X140571395Y-87861501D01*
X140377834Y-87725967D01*
X140377830Y-87725965D01*
X140377828Y-87725964D01*
X140163663Y-87626097D01*
X140163659Y-87626096D01*
X140163655Y-87626094D01*
X139935413Y-87564938D01*
X139935403Y-87564936D01*
X139700001Y-87544341D01*
X139699999Y-87544341D01*
X139464596Y-87564936D01*
X139464586Y-87564938D01*
X139236344Y-87626094D01*
X139236335Y-87626098D01*
X139022171Y-87725964D01*
X139022169Y-87725965D01*
X138828600Y-87861503D01*
X138706673Y-87983430D01*
X138645350Y-88016914D01*
X138575658Y-88011930D01*
X138519725Y-87970058D01*
X138502810Y-87939081D01*
X138453797Y-87807671D01*
X138453793Y-87807664D01*
X138367547Y-87692455D01*
X138367544Y-87692452D01*
X138252335Y-87606206D01*
X138252328Y-87606202D01*
X138117482Y-87555908D01*
X138117483Y-87555908D01*
X138057883Y-87549501D01*
X138057881Y-87549500D01*
X138057873Y-87549500D01*
X138057864Y-87549500D01*
X136262129Y-87549500D01*
X136262123Y-87549501D01*
X136202516Y-87555908D01*
X136067671Y-87606202D01*
X136067664Y-87606206D01*
X135952455Y-87692452D01*
X135952452Y-87692455D01*
X135866206Y-87807664D01*
X135866203Y-87807669D01*
X135817189Y-87939083D01*
X135775317Y-87995016D01*
X135709853Y-88019433D01*
X135641580Y-88004581D01*
X135613326Y-87983430D01*
X135491402Y-87861506D01*
X135491395Y-87861501D01*
X135297834Y-87725967D01*
X135297830Y-87725965D01*
X135297828Y-87725964D01*
X135083663Y-87626097D01*
X135083659Y-87626096D01*
X135083655Y-87626094D01*
X134855413Y-87564938D01*
X134855403Y-87564936D01*
X134620001Y-87544341D01*
X134619999Y-87544341D01*
X134384596Y-87564936D01*
X134384586Y-87564938D01*
X134156344Y-87626094D01*
X134156335Y-87626098D01*
X133942171Y-87725964D01*
X133942169Y-87725965D01*
X133748597Y-87861505D01*
X133581505Y-88028597D01*
X133451575Y-88214158D01*
X133396998Y-88257783D01*
X133327500Y-88264977D01*
X133265145Y-88233454D01*
X133248425Y-88214158D01*
X133118494Y-88028597D01*
X132951402Y-87861506D01*
X132951395Y-87861501D01*
X132757834Y-87725967D01*
X132757830Y-87725965D01*
X132757828Y-87725964D01*
X132543663Y-87626097D01*
X132543659Y-87626096D01*
X132543655Y-87626094D01*
X132315413Y-87564938D01*
X132315403Y-87564936D01*
X132080001Y-87544341D01*
X132079999Y-87544341D01*
X131844596Y-87564936D01*
X131844586Y-87564938D01*
X131616344Y-87626094D01*
X131616335Y-87626098D01*
X131402171Y-87725964D01*
X131402169Y-87725965D01*
X131208597Y-87861505D01*
X131041505Y-88028597D01*
X130911575Y-88214158D01*
X130856998Y-88257783D01*
X130787500Y-88264977D01*
X130725145Y-88233454D01*
X130708425Y-88214158D01*
X130578494Y-88028597D01*
X130411402Y-87861506D01*
X130411395Y-87861501D01*
X130217834Y-87725967D01*
X130217830Y-87725965D01*
X130217828Y-87725964D01*
X130003663Y-87626097D01*
X130003659Y-87626096D01*
X130003655Y-87626094D01*
X129775413Y-87564938D01*
X129775403Y-87564936D01*
X129540001Y-87544341D01*
X129539999Y-87544341D01*
X129304596Y-87564936D01*
X129304586Y-87564938D01*
X129076344Y-87626094D01*
X129076335Y-87626098D01*
X128862171Y-87725964D01*
X128862169Y-87725965D01*
X128668597Y-87861505D01*
X128501505Y-88028597D01*
X128371575Y-88214158D01*
X128316998Y-88257783D01*
X128247500Y-88264977D01*
X128185145Y-88233454D01*
X128168425Y-88214158D01*
X128038494Y-88028597D01*
X127871402Y-87861506D01*
X127871395Y-87861501D01*
X127677834Y-87725967D01*
X127677830Y-87725965D01*
X127677828Y-87725964D01*
X127463663Y-87626097D01*
X127463659Y-87626096D01*
X127463655Y-87626094D01*
X127235413Y-87564938D01*
X127235403Y-87564936D01*
X127000001Y-87544341D01*
X126999999Y-87544341D01*
X126764596Y-87564936D01*
X126764586Y-87564938D01*
X126536344Y-87626094D01*
X126536335Y-87626098D01*
X126322171Y-87725964D01*
X126322169Y-87725965D01*
X126128597Y-87861505D01*
X125961505Y-88028597D01*
X125831575Y-88214158D01*
X125776998Y-88257783D01*
X125707500Y-88264977D01*
X125645145Y-88233454D01*
X125628425Y-88214158D01*
X125498494Y-88028597D01*
X125331402Y-87861506D01*
X125331395Y-87861501D01*
X125137834Y-87725967D01*
X125137830Y-87725965D01*
X125137828Y-87725964D01*
X124923663Y-87626097D01*
X124923659Y-87626096D01*
X124923655Y-87626094D01*
X124695413Y-87564938D01*
X124695403Y-87564936D01*
X124460001Y-87544341D01*
X124459999Y-87544341D01*
X124224596Y-87564936D01*
X124224586Y-87564938D01*
X123996344Y-87626094D01*
X123996335Y-87626098D01*
X123782171Y-87725964D01*
X123782169Y-87725965D01*
X123588597Y-87861505D01*
X123421505Y-88028597D01*
X123285965Y-88222169D01*
X123285964Y-88222171D01*
X123186098Y-88436335D01*
X123186094Y-88436344D01*
X123124938Y-88664586D01*
X123124936Y-88664596D01*
X123104341Y-88899999D01*
X123104341Y-88900000D01*
X93980500Y-88900000D01*
X93980500Y-86484500D01*
X94000185Y-86417461D01*
X94052989Y-86371706D01*
X94104500Y-86360500D01*
X180215500Y-86360500D01*
X180282539Y-86380185D01*
G37*
%TD.AperFunction*%
%TA.AperFunction,NonConductor*%
G36*
X141944809Y-97290185D02*
G01*
X141965451Y-97306819D01*
X149073181Y-104414548D01*
X149106666Y-104475871D01*
X149109500Y-104502229D01*
X149109500Y-109176294D01*
X149108191Y-109194263D01*
X149104710Y-109218025D01*
X149109028Y-109267368D01*
X149109500Y-109278176D01*
X149109500Y-109283711D01*
X149113098Y-109314495D01*
X149113464Y-109318083D01*
X149120000Y-109392791D01*
X149121461Y-109399867D01*
X149121403Y-109399878D01*
X149123034Y-109407237D01*
X149123092Y-109407224D01*
X149124757Y-109414249D01*
X149150400Y-109484705D01*
X149151582Y-109488107D01*
X149175182Y-109559326D01*
X149178236Y-109565874D01*
X149178182Y-109565898D01*
X149181470Y-109572688D01*
X149181521Y-109572663D01*
X149184761Y-109579114D01*
X149225979Y-109641784D01*
X149227889Y-109644782D01*
X149258972Y-109695174D01*
X149267289Y-109708658D01*
X149271766Y-109714319D01*
X149271719Y-109714356D01*
X149276482Y-109720202D01*
X149276528Y-109720164D01*
X149281173Y-109725699D01*
X149335708Y-109777150D01*
X149338296Y-109779664D01*
X149775047Y-110216415D01*
X149808532Y-110277738D01*
X149803548Y-110347430D01*
X149761676Y-110403363D01*
X149698173Y-110427624D01*
X149636986Y-110432977D01*
X149568486Y-110419210D01*
X149538498Y-110397130D01*
X148106819Y-108965451D01*
X148073334Y-108904128D01*
X148070500Y-108877770D01*
X148070500Y-104203705D01*
X148071809Y-104185735D01*
X148072129Y-104183547D01*
X148075289Y-104161977D01*
X148073366Y-104140000D01*
X148070972Y-104112630D01*
X148070500Y-104101822D01*
X148070500Y-104096296D01*
X148070500Y-104096291D01*
X148066901Y-104065507D01*
X148066536Y-104061929D01*
X148059999Y-103987201D01*
X148058539Y-103980129D01*
X148058597Y-103980116D01*
X148056965Y-103972757D01*
X148056906Y-103972772D01*
X148055241Y-103965747D01*
X148055241Y-103965745D01*
X148029569Y-103895212D01*
X148028421Y-103891909D01*
X148004814Y-103820666D01*
X148004810Y-103820659D01*
X148001760Y-103814118D01*
X148001815Y-103814091D01*
X147998533Y-103807313D01*
X147998480Y-103807340D01*
X147995235Y-103800880D01*
X147954025Y-103738223D01*
X147952086Y-103735181D01*
X147912710Y-103671342D01*
X147908234Y-103665682D01*
X147908281Y-103665644D01*
X147903519Y-103659799D01*
X147903474Y-103659838D01*
X147898831Y-103654305D01*
X147844272Y-103602831D01*
X147841685Y-103600318D01*
X142815729Y-98574361D01*
X142803949Y-98560730D01*
X142789610Y-98541470D01*
X142751651Y-98509619D01*
X142743686Y-98502318D01*
X142739780Y-98498411D01*
X142715443Y-98479168D01*
X142712647Y-98476890D01*
X142655214Y-98428698D01*
X142649180Y-98424729D01*
X142649212Y-98424680D01*
X142642853Y-98420628D01*
X142642822Y-98420679D01*
X142636680Y-98416891D01*
X142636678Y-98416890D01*
X142636677Y-98416889D01*
X142568688Y-98385184D01*
X142565447Y-98383615D01*
X142534530Y-98368088D01*
X142498433Y-98349960D01*
X142498431Y-98349959D01*
X142498430Y-98349959D01*
X142491645Y-98347489D01*
X142491665Y-98347433D01*
X142484549Y-98344959D01*
X142484531Y-98345015D01*
X142477674Y-98342743D01*
X142404210Y-98327573D01*
X142400693Y-98326793D01*
X142327718Y-98309499D01*
X142320547Y-98308661D01*
X142320553Y-98308601D01*
X142313055Y-98307835D01*
X142313050Y-98307895D01*
X142305860Y-98307265D01*
X142230870Y-98309448D01*
X142227263Y-98309500D01*
X110407701Y-98309500D01*
X110340662Y-98289815D01*
X110306126Y-98256623D01*
X110258494Y-98188597D01*
X110091402Y-98021506D01*
X110091396Y-98021501D01*
X109905842Y-97891575D01*
X109862217Y-97836998D01*
X109855023Y-97767500D01*
X109886546Y-97705145D01*
X109905842Y-97688425D01*
X109928026Y-97672891D01*
X110091401Y-97558495D01*
X110258495Y-97391401D01*
X110306127Y-97323376D01*
X110360704Y-97279751D01*
X110407701Y-97270500D01*
X141877770Y-97270500D01*
X141944809Y-97290185D01*
G37*
%TD.AperFunction*%
%TA.AperFunction,NonConductor*%
G36*
X141944809Y-99830185D02*
G01*
X141965451Y-99846819D01*
X146533181Y-104414549D01*
X146566666Y-104475872D01*
X146569500Y-104502230D01*
X146569500Y-109176294D01*
X146568191Y-109194263D01*
X146564710Y-109218025D01*
X146569028Y-109267368D01*
X146569500Y-109278176D01*
X146569500Y-109283711D01*
X146573098Y-109314495D01*
X146573464Y-109318083D01*
X146580000Y-109392791D01*
X146581461Y-109399867D01*
X146581403Y-109399878D01*
X146583034Y-109407237D01*
X146583092Y-109407224D01*
X146584757Y-109414249D01*
X146610400Y-109484705D01*
X146611582Y-109488107D01*
X146635182Y-109559326D01*
X146638236Y-109565874D01*
X146638182Y-109565898D01*
X146641470Y-109572688D01*
X146641521Y-109572663D01*
X146644761Y-109579114D01*
X146685979Y-109641784D01*
X146687889Y-109644782D01*
X146718972Y-109695174D01*
X146727289Y-109708658D01*
X146731766Y-109714319D01*
X146731719Y-109714356D01*
X146736482Y-109720202D01*
X146736528Y-109720164D01*
X146741173Y-109725699D01*
X146795708Y-109777150D01*
X146798296Y-109779664D01*
X147235047Y-110216415D01*
X147268532Y-110277738D01*
X147263548Y-110347430D01*
X147221676Y-110403363D01*
X147158173Y-110427624D01*
X147096985Y-110432977D01*
X147028485Y-110419210D01*
X146998497Y-110397130D01*
X146180484Y-109579117D01*
X145335729Y-108734361D01*
X145323949Y-108720730D01*
X145309610Y-108701470D01*
X145271651Y-108669619D01*
X145263686Y-108662318D01*
X145259780Y-108658411D01*
X145235443Y-108639168D01*
X145232647Y-108636890D01*
X145175214Y-108588698D01*
X145169180Y-108584729D01*
X145169212Y-108584680D01*
X145162853Y-108580628D01*
X145162822Y-108580679D01*
X145156680Y-108576891D01*
X145156678Y-108576890D01*
X145156677Y-108576889D01*
X145088688Y-108545184D01*
X145085447Y-108543615D01*
X145054530Y-108528088D01*
X145018433Y-108509960D01*
X145018431Y-108509959D01*
X145018430Y-108509959D01*
X145011645Y-108507489D01*
X145011665Y-108507433D01*
X145004549Y-108504959D01*
X145004531Y-108505015D01*
X144997674Y-108502743D01*
X144924210Y-108487573D01*
X144920693Y-108486793D01*
X144847718Y-108469499D01*
X144840547Y-108468661D01*
X144840553Y-108468601D01*
X144833055Y-108467835D01*
X144833050Y-108467895D01*
X144825860Y-108467265D01*
X144750870Y-108469448D01*
X144747263Y-108469500D01*
X117202229Y-108469500D01*
X117135190Y-108449815D01*
X117114548Y-108433181D01*
X112335729Y-103654361D01*
X112323949Y-103640730D01*
X112309610Y-103621470D01*
X112271651Y-103589619D01*
X112263686Y-103582318D01*
X112259780Y-103578411D01*
X112235443Y-103559168D01*
X112232647Y-103556890D01*
X112175214Y-103508698D01*
X112169180Y-103504729D01*
X112169212Y-103504680D01*
X112162853Y-103500628D01*
X112162822Y-103500679D01*
X112156680Y-103496891D01*
X112156678Y-103496890D01*
X112156677Y-103496889D01*
X112088688Y-103465184D01*
X112085447Y-103463615D01*
X112054530Y-103448088D01*
X112018433Y-103429960D01*
X112018431Y-103429959D01*
X112018430Y-103429959D01*
X112011645Y-103427489D01*
X112011665Y-103427433D01*
X112004549Y-103424959D01*
X112004531Y-103425015D01*
X111997674Y-103422743D01*
X111924210Y-103407573D01*
X111920693Y-103406793D01*
X111847718Y-103389499D01*
X111840547Y-103388661D01*
X111840553Y-103388601D01*
X111833055Y-103387835D01*
X111833050Y-103387895D01*
X111825860Y-103387265D01*
X111750870Y-103389448D01*
X111747263Y-103389500D01*
X110407701Y-103389500D01*
X110340662Y-103369815D01*
X110306126Y-103336623D01*
X110258494Y-103268597D01*
X110091402Y-103101506D01*
X110091396Y-103101501D01*
X109905842Y-102971575D01*
X109862217Y-102916998D01*
X109855023Y-102847500D01*
X109886546Y-102785145D01*
X109905842Y-102768425D01*
X110000238Y-102702328D01*
X110091401Y-102638495D01*
X110258495Y-102471401D01*
X110394035Y-102277830D01*
X110493903Y-102063663D01*
X110555063Y-101835408D01*
X110575659Y-101600000D01*
X110574347Y-101585000D01*
X115474341Y-101585000D01*
X115494936Y-101820403D01*
X115494938Y-101820413D01*
X115556094Y-102048655D01*
X115556096Y-102048659D01*
X115556097Y-102048663D01*
X115636004Y-102220023D01*
X115655965Y-102262830D01*
X115655967Y-102262834D01*
X115679080Y-102295842D01*
X115791505Y-102456401D01*
X115958599Y-102623495D01*
X116055384Y-102691265D01*
X116152165Y-102759032D01*
X116152167Y-102759033D01*
X116152170Y-102759035D01*
X116366337Y-102858903D01*
X116594592Y-102920063D01*
X116771034Y-102935500D01*
X116829999Y-102940659D01*
X116830000Y-102940659D01*
X116830001Y-102940659D01*
X116888966Y-102935500D01*
X117065408Y-102920063D01*
X117293663Y-102858903D01*
X117507830Y-102759035D01*
X117701401Y-102623495D01*
X117868495Y-102456401D01*
X117998425Y-102270842D01*
X118053002Y-102227217D01*
X118122500Y-102220023D01*
X118184855Y-102251546D01*
X118201575Y-102270842D01*
X118331500Y-102456395D01*
X118331505Y-102456401D01*
X118498599Y-102623495D01*
X118595384Y-102691265D01*
X118692165Y-102759032D01*
X118692167Y-102759033D01*
X118692170Y-102759035D01*
X118906337Y-102858903D01*
X119134592Y-102920063D01*
X119311034Y-102935500D01*
X119369999Y-102940659D01*
X119370000Y-102940659D01*
X119370001Y-102940659D01*
X119428966Y-102935500D01*
X119605408Y-102920063D01*
X119833663Y-102858903D01*
X120047830Y-102759035D01*
X120241401Y-102623495D01*
X120408495Y-102456401D01*
X120538425Y-102270842D01*
X120593002Y-102227217D01*
X120662500Y-102220023D01*
X120724855Y-102251546D01*
X120741575Y-102270842D01*
X120871500Y-102456395D01*
X120871505Y-102456401D01*
X121038599Y-102623495D01*
X121135384Y-102691265D01*
X121232165Y-102759032D01*
X121232167Y-102759033D01*
X121232170Y-102759035D01*
X121446337Y-102858903D01*
X121674592Y-102920063D01*
X121851034Y-102935500D01*
X121909999Y-102940659D01*
X121910000Y-102940659D01*
X121910001Y-102940659D01*
X121968966Y-102935500D01*
X122145408Y-102920063D01*
X122373663Y-102858903D01*
X122587830Y-102759035D01*
X122781401Y-102623495D01*
X122948495Y-102456401D01*
X123078425Y-102270842D01*
X123133002Y-102227217D01*
X123202500Y-102220023D01*
X123264855Y-102251546D01*
X123281575Y-102270842D01*
X123411500Y-102456395D01*
X123411505Y-102456401D01*
X123578599Y-102623495D01*
X123675384Y-102691265D01*
X123772165Y-102759032D01*
X123772167Y-102759033D01*
X123772170Y-102759035D01*
X123986337Y-102858903D01*
X124214592Y-102920063D01*
X124391034Y-102935500D01*
X124449999Y-102940659D01*
X124450000Y-102940659D01*
X124450001Y-102940659D01*
X124508966Y-102935500D01*
X124685408Y-102920063D01*
X124913663Y-102858903D01*
X125127830Y-102759035D01*
X125321401Y-102623495D01*
X125488495Y-102456401D01*
X125618425Y-102270842D01*
X125673002Y-102227217D01*
X125742500Y-102220023D01*
X125804855Y-102251546D01*
X125821575Y-102270842D01*
X125951500Y-102456395D01*
X125951505Y-102456401D01*
X126118599Y-102623495D01*
X126215384Y-102691265D01*
X126312165Y-102759032D01*
X126312167Y-102759033D01*
X126312170Y-102759035D01*
X126526337Y-102858903D01*
X126754592Y-102920063D01*
X126931034Y-102935500D01*
X126989999Y-102940659D01*
X126990000Y-102940659D01*
X126990001Y-102940659D01*
X127048966Y-102935500D01*
X127225408Y-102920063D01*
X127453663Y-102858903D01*
X127667830Y-102759035D01*
X127861401Y-102623495D01*
X128028495Y-102456401D01*
X128158425Y-102270842D01*
X128213002Y-102227217D01*
X128282500Y-102220023D01*
X128344855Y-102251546D01*
X128361575Y-102270842D01*
X128491500Y-102456395D01*
X128491505Y-102456401D01*
X128658599Y-102623495D01*
X128755384Y-102691265D01*
X128852165Y-102759032D01*
X128852167Y-102759033D01*
X128852170Y-102759035D01*
X129066337Y-102858903D01*
X129294592Y-102920063D01*
X129471034Y-102935500D01*
X129529999Y-102940659D01*
X129530000Y-102940659D01*
X129530001Y-102940659D01*
X129588966Y-102935500D01*
X129765408Y-102920063D01*
X129993663Y-102858903D01*
X130207830Y-102759035D01*
X130401401Y-102623495D01*
X130568495Y-102456401D01*
X130698425Y-102270842D01*
X130753002Y-102227217D01*
X130822500Y-102220023D01*
X130884855Y-102251546D01*
X130901575Y-102270842D01*
X131031500Y-102456395D01*
X131031505Y-102456401D01*
X131198599Y-102623495D01*
X131295384Y-102691265D01*
X131392165Y-102759032D01*
X131392167Y-102759033D01*
X131392170Y-102759035D01*
X131606337Y-102858903D01*
X131834592Y-102920063D01*
X132011034Y-102935500D01*
X132069999Y-102940659D01*
X132070000Y-102940659D01*
X132070001Y-102940659D01*
X132128966Y-102935500D01*
X132305408Y-102920063D01*
X132533663Y-102858903D01*
X132747830Y-102759035D01*
X132941401Y-102623495D01*
X133063329Y-102501566D01*
X133124648Y-102468084D01*
X133194340Y-102473068D01*
X133250274Y-102514939D01*
X133267189Y-102545917D01*
X133316202Y-102677328D01*
X133316206Y-102677335D01*
X133402452Y-102792544D01*
X133402455Y-102792547D01*
X133517664Y-102878793D01*
X133517671Y-102878797D01*
X133652517Y-102929091D01*
X133652516Y-102929091D01*
X133659444Y-102929835D01*
X133712127Y-102935500D01*
X135507872Y-102935499D01*
X135567483Y-102929091D01*
X135702331Y-102878796D01*
X135817546Y-102792546D01*
X135903796Y-102677331D01*
X135954091Y-102542483D01*
X135960500Y-102482873D01*
X135960499Y-100687128D01*
X135954091Y-100627517D01*
X135952810Y-100624083D01*
X135903797Y-100492671D01*
X135903793Y-100492664D01*
X135817547Y-100377455D01*
X135817544Y-100377452D01*
X135702335Y-100291206D01*
X135702328Y-100291202D01*
X135567482Y-100240908D01*
X135567483Y-100240908D01*
X135507883Y-100234501D01*
X135507881Y-100234500D01*
X135507873Y-100234500D01*
X135507864Y-100234500D01*
X133712129Y-100234500D01*
X133712123Y-100234501D01*
X133652516Y-100240908D01*
X133517671Y-100291202D01*
X133517664Y-100291206D01*
X133402455Y-100377452D01*
X133402452Y-100377455D01*
X133316206Y-100492664D01*
X133316203Y-100492669D01*
X133267189Y-100624083D01*
X133225317Y-100680016D01*
X133159853Y-100704433D01*
X133091580Y-100689581D01*
X133063326Y-100668430D01*
X132941402Y-100546506D01*
X132941395Y-100546501D01*
X132747834Y-100410967D01*
X132747830Y-100410965D01*
X132729574Y-100402452D01*
X132533663Y-100311097D01*
X132533659Y-100311096D01*
X132533655Y-100311094D01*
X132305413Y-100249938D01*
X132305403Y-100249936D01*
X132070001Y-100229341D01*
X132069999Y-100229341D01*
X131834596Y-100249936D01*
X131834586Y-100249938D01*
X131606344Y-100311094D01*
X131606335Y-100311098D01*
X131392171Y-100410964D01*
X131392169Y-100410965D01*
X131198597Y-100546505D01*
X131031505Y-100713597D01*
X130901575Y-100899158D01*
X130846998Y-100942783D01*
X130777500Y-100949977D01*
X130715145Y-100918454D01*
X130698425Y-100899158D01*
X130568494Y-100713597D01*
X130401402Y-100546506D01*
X130401395Y-100546501D01*
X130207834Y-100410967D01*
X130207830Y-100410965D01*
X130189574Y-100402452D01*
X129993663Y-100311097D01*
X129993659Y-100311096D01*
X129993655Y-100311094D01*
X129765413Y-100249938D01*
X129765403Y-100249936D01*
X129530001Y-100229341D01*
X129529999Y-100229341D01*
X129294596Y-100249936D01*
X129294586Y-100249938D01*
X129066344Y-100311094D01*
X129066335Y-100311098D01*
X128852171Y-100410964D01*
X128852169Y-100410965D01*
X128658597Y-100546505D01*
X128491505Y-100713597D01*
X128361575Y-100899158D01*
X128306998Y-100942783D01*
X128237500Y-100949977D01*
X128175145Y-100918454D01*
X128158425Y-100899158D01*
X128028494Y-100713597D01*
X127861402Y-100546506D01*
X127861395Y-100546501D01*
X127667834Y-100410967D01*
X127667830Y-100410965D01*
X127649574Y-100402452D01*
X127453663Y-100311097D01*
X127453659Y-100311096D01*
X127453655Y-100311094D01*
X127225413Y-100249938D01*
X127225403Y-100249936D01*
X126990001Y-100229341D01*
X126989999Y-100229341D01*
X126754596Y-100249936D01*
X126754586Y-100249938D01*
X126526344Y-100311094D01*
X126526335Y-100311098D01*
X126312171Y-100410964D01*
X126312169Y-100410965D01*
X126118597Y-100546505D01*
X125951505Y-100713597D01*
X125821575Y-100899158D01*
X125766998Y-100942783D01*
X125697500Y-100949977D01*
X125635145Y-100918454D01*
X125618425Y-100899158D01*
X125488494Y-100713597D01*
X125321402Y-100546506D01*
X125321395Y-100546501D01*
X125127834Y-100410967D01*
X125127830Y-100410965D01*
X125109574Y-100402452D01*
X124913663Y-100311097D01*
X124913659Y-100311096D01*
X124913655Y-100311094D01*
X124685413Y-100249938D01*
X124685403Y-100249936D01*
X124450001Y-100229341D01*
X124449999Y-100229341D01*
X124214596Y-100249936D01*
X124214586Y-100249938D01*
X123986344Y-100311094D01*
X123986335Y-100311098D01*
X123772171Y-100410964D01*
X123772169Y-100410965D01*
X123578597Y-100546505D01*
X123411505Y-100713597D01*
X123281575Y-100899158D01*
X123226998Y-100942783D01*
X123157500Y-100949977D01*
X123095145Y-100918454D01*
X123078425Y-100899158D01*
X122948494Y-100713597D01*
X122781402Y-100546506D01*
X122781395Y-100546501D01*
X122587834Y-100410967D01*
X122587830Y-100410965D01*
X122569574Y-100402452D01*
X122373663Y-100311097D01*
X122373659Y-100311096D01*
X122373655Y-100311094D01*
X122145413Y-100249938D01*
X122145403Y-100249936D01*
X121910001Y-100229341D01*
X121909999Y-100229341D01*
X121674596Y-100249936D01*
X121674586Y-100249938D01*
X121446344Y-100311094D01*
X121446335Y-100311098D01*
X121232171Y-100410964D01*
X121232169Y-100410965D01*
X121038597Y-100546505D01*
X120871505Y-100713597D01*
X120741575Y-100899158D01*
X120686998Y-100942783D01*
X120617500Y-100949977D01*
X120555145Y-100918454D01*
X120538425Y-100899158D01*
X120408494Y-100713597D01*
X120241402Y-100546506D01*
X120241395Y-100546501D01*
X120047834Y-100410967D01*
X120047830Y-100410965D01*
X120029574Y-100402452D01*
X119833663Y-100311097D01*
X119833659Y-100311096D01*
X119833655Y-100311094D01*
X119605413Y-100249938D01*
X119605403Y-100249936D01*
X119370001Y-100229341D01*
X119369999Y-100229341D01*
X119134596Y-100249936D01*
X119134586Y-100249938D01*
X118906344Y-100311094D01*
X118906335Y-100311098D01*
X118692171Y-100410964D01*
X118692169Y-100410965D01*
X118498597Y-100546505D01*
X118331505Y-100713597D01*
X118201575Y-100899158D01*
X118146998Y-100942783D01*
X118077500Y-100949977D01*
X118015145Y-100918454D01*
X117998425Y-100899158D01*
X117868494Y-100713597D01*
X117701402Y-100546506D01*
X117701395Y-100546501D01*
X117507834Y-100410967D01*
X117507830Y-100410965D01*
X117489574Y-100402452D01*
X117293663Y-100311097D01*
X117293659Y-100311096D01*
X117293655Y-100311094D01*
X117065413Y-100249938D01*
X117065403Y-100249936D01*
X116830001Y-100229341D01*
X116829999Y-100229341D01*
X116594596Y-100249936D01*
X116594586Y-100249938D01*
X116366344Y-100311094D01*
X116366335Y-100311098D01*
X116152171Y-100410964D01*
X116152169Y-100410965D01*
X115958597Y-100546505D01*
X115791505Y-100713597D01*
X115655965Y-100907169D01*
X115655964Y-100907171D01*
X115556098Y-101121335D01*
X115556094Y-101121344D01*
X115494938Y-101349586D01*
X115494936Y-101349596D01*
X115474341Y-101584999D01*
X115474341Y-101585000D01*
X110574347Y-101585000D01*
X110555063Y-101364592D01*
X110496584Y-101146344D01*
X110493905Y-101136344D01*
X110493904Y-101136343D01*
X110493903Y-101136337D01*
X110394035Y-100922171D01*
X110391433Y-100918454D01*
X110258494Y-100728597D01*
X110091402Y-100561506D01*
X110091396Y-100561501D01*
X109905842Y-100431575D01*
X109862217Y-100376998D01*
X109855023Y-100307500D01*
X109886546Y-100245145D01*
X109905842Y-100228425D01*
X109928026Y-100212891D01*
X110091401Y-100098495D01*
X110258495Y-99931401D01*
X110306127Y-99863376D01*
X110360704Y-99819751D01*
X110407701Y-99810500D01*
X141877770Y-99810500D01*
X141944809Y-99830185D01*
G37*
%TD.AperFunction*%
M02*
