%TF.GenerationSoftware,KiCad,Pcbnew,7.0.10*%
%TF.CreationDate,2024-01-17T15:28:00-05:00*%
%TF.ProjectId,ESP32-SD,45535033-322d-4534-942e-6b696361645f,1*%
%TF.SameCoordinates,Original*%
%TF.FileFunction,Copper,L2,Inr*%
%TF.FilePolarity,Positive*%
%FSLAX46Y46*%
G04 Gerber Fmt 4.6, Leading zero omitted, Abs format (unit mm)*
G04 Created by KiCad (PCBNEW 7.0.10) date 2024-01-17 15:28:00*
%MOMM*%
%LPD*%
G01*
G04 APERTURE LIST*
%TA.AperFunction,ComponentPad*%
%ADD10R,1.700000X1.700000*%
%TD*%
%TA.AperFunction,ComponentPad*%
%ADD11O,1.700000X1.700000*%
%TD*%
%TA.AperFunction,ComponentPad*%
%ADD12C,1.700000*%
%TD*%
%TA.AperFunction,Conductor*%
%ADD13C,0.500000*%
%TD*%
G04 APERTURE END LIST*
D10*
%TO.N,N/C*%
%TO.C,SD*%
X109220000Y-93980000D03*
D11*
X109220000Y-96520000D03*
X109220000Y-99060000D03*
X109220000Y-101600000D03*
X109220000Y-104140000D03*
X109220000Y-106680000D03*
%TD*%
%TO.N,N/C*%
%TO.C,FZ_R*%
X152390000Y-101610000D03*
X154930000Y-101610000D03*
D10*
X157470000Y-101610000D03*
D11*
X160010000Y-101610000D03*
X162550000Y-101610000D03*
X165090000Y-101610000D03*
X167630000Y-101610000D03*
X170170000Y-101610000D03*
X172710000Y-101610000D03*
D10*
X175250000Y-101610000D03*
%TD*%
D12*
%TO.N,N/C*%
%TO.C,Bottom*%
X124450000Y-111770000D03*
D11*
X126990000Y-111770000D03*
X129530000Y-111770000D03*
D12*
X132070000Y-111770000D03*
D11*
X134610000Y-111770000D03*
X137150000Y-111770000D03*
X139690000Y-111770000D03*
X142230000Y-111770000D03*
X144770000Y-111770000D03*
X147310000Y-111770000D03*
X149850000Y-111770000D03*
X152390000Y-111770000D03*
D10*
X154930000Y-111770000D03*
D11*
X157470000Y-111770000D03*
X160010000Y-111770000D03*
X162550000Y-111770000D03*
X165090000Y-111770000D03*
X167630000Y-111770000D03*
D10*
X170170000Y-111770000D03*
%TD*%
D12*
%TO.N,N/C*%
%TO.C,Top*%
X124460000Y-88900000D03*
D11*
X127000000Y-88900000D03*
X129540000Y-88900000D03*
D12*
X132080000Y-88900000D03*
D11*
X134620000Y-88900000D03*
D10*
X137160000Y-88900000D03*
D11*
X139700000Y-88900000D03*
X142240000Y-88900000D03*
X144780000Y-88900000D03*
X147320000Y-88900000D03*
X149860000Y-88900000D03*
X152400000Y-88900000D03*
X154940000Y-88900000D03*
X157480000Y-88900000D03*
X160020000Y-88900000D03*
X162560000Y-88900000D03*
X165100000Y-88900000D03*
X167640000Y-88900000D03*
X170180000Y-88900000D03*
%TD*%
D12*
%TO.N,N/C*%
%TO.C,Left*%
X116830000Y-101585000D03*
D11*
X119370000Y-101585000D03*
X121910000Y-101585000D03*
X124450000Y-101585000D03*
X126990000Y-101585000D03*
X129530000Y-101585000D03*
X132070000Y-101585000D03*
D10*
X134610000Y-101585000D03*
%TD*%
D13*
%TO.N,*%
X157470000Y-104130000D02*
X157470000Y-101610000D01*
X157480000Y-104140000D02*
X157470000Y-104130000D01*
X154930000Y-106690000D02*
X157480000Y-104140000D01*
X154930000Y-111770000D02*
X154930000Y-106690000D01*
X134620000Y-93980000D02*
X137160000Y-91440000D01*
X134610000Y-93990000D02*
X134620000Y-93980000D01*
X134620000Y-93980000D02*
X109220000Y-93980000D01*
X137160000Y-91440000D02*
X137160000Y-88900000D01*
X134610000Y-101585000D02*
X134610000Y-93990000D01*
X170170000Y-109230000D02*
X170170000Y-111770000D01*
X175260000Y-104140000D02*
X170170000Y-109230000D01*
X175250000Y-104130000D02*
X175260000Y-104140000D01*
X175250000Y-101610000D02*
X175250000Y-104130000D01*
%TD*%
M02*
